solid OpenSCAD_Model
  facet normal -1 0 0
    outer loop
      vertex -2 -2.5 0
      vertex -2 -2.5 8.5
      vertex -2 2.5 0
    endloop
  endfacet
  facet normal 0 0 -1
    outer loop
      vertex -2 -2.5 0
      vertex -2 2.5 0
      vertex 1 3.5 0
    endloop
  endfacet
  facet normal -0.31622776601683794 -0.9486832980505138 0
    outer loop
      vertex -2 -2.5 0
      vertex 1 -3.5 0
      vertex 1 -3.5 8.5
    endloop
  endfacet
  facet normal -0.31622776601683794 -0.9486832980505138 0
    outer loop
      vertex -2 -2.5 0
      vertex 1 -3.5 8.5
      vertex -2 -2.5 8.5
    endloop
  endfacet
  facet normal 0 0 -1
    outer loop
      vertex -2 -2.5 0
      vertex 1 3.5 0
      vertex 1 -3.5 0
    endloop
  endfacet
  facet normal -1 0 0
    outer loop
      vertex -2 -2.5 8.5
      vertex -2 2.5 8.5
      vertex -2 2.5 0
    endloop
  endfacet
  facet normal 0 0 1
    outer loop
      vertex -2 -2.5 8.5
      vertex 1 -3.5 8.5
      vertex 1 3.5 8.5
    endloop
  endfacet
  facet normal 0 0 1
    outer loop
      vertex -2 -2.5 8.5
      vertex 1 3.5 8.5
      vertex -2 2.5 8.5
    endloop
  endfacet
  facet normal -0.31622776601683794 0.9486832980505138 0
    outer loop
      vertex -2 2.5 0
      vertex -2 2.5 8.5
      vertex 1 3.5 8.5
    endloop
  endfacet
  facet normal -0.31622776601683794 0.9486832980505138 0
    outer loop
      vertex -2 2.5 0
      vertex 1 3.5 8.5
      vertex 1 3.5 0
    endloop
  endfacet
  facet normal 1 0 0
    outer loop
      vertex 1 -3.5 0
      vertex 1 3.5 0
      vertex 1 -3.5 8.5
    endloop
  endfacet
  facet normal 1 0 0
    outer loop
      vertex 1 -3.5 8.5
      vertex 1 3.5 0
      vertex 1 3.5 8.5
    endloop
  endfacet
endsolid OpenSCAD_Model
