999
DXF from OpenSCAD
  0
SECTION
  2
HEADER
  9
$ACADVER
  1
AC1006
  9
$INSBASE
 10
0.0
 20
0.0
 30
0.0
  9
$EXTMIN
 10
-124.78
 20
0
  9
$EXTMAX
 10
8
 20
31.1684
  9
$LINMIN
 10
-124.78
 20
0
  9
$LINMAX
 10
8
 20
31.1684
  0
ENDSEC
  0
SECTION
  2
TABLES
  0
TABLE
  2
LTYPE
 70
1
  0
LTYPE
  2
CONTINUOUS
 70
64
  3
Solid line
 72
65
 73
0
 40
0.000000
  0
ENDTAB
  0
TABLE
  2
LAYER
 70
6
  0
LAYER
  2
0
 70
64
 62
7
  6
CONTINUOUS
  0
ENDTAB
  0
TABLE
  2
STYLE
 70
0
  0
ENDTAB
  0
ENDSEC
  0
SECTION
  2
BLOCKS
  0
ENDSEC
  0
SECTION
  2
ENTITIES
  0
LWPOLYLINE
100
AcDbEntity
  8
0
100
AcDbPolyline
 90
617
 70
1
 10
0.113441
 20
0.000989981
 10
0.226847
 20
0.00395963
 10
0.340184
 20
0.00890803
 10
0.453417
 20
0.0158337
 10
0.566512
 20
0.0247345
 10
0.679435
 20
0.0356077
 10
0.792151
 20
0.04845
 10
0.904625
 20
0.0632576
 10
1.01682
 20
0.0800258
 10
1.12871
 20
0.0987496
 10
1.24026
 20
0.119423
 10
1.35143
 20
0.142041
 10
1.46218
 20
0.166595
 10
1.57249
 20
0.193078
 10
1.68232
 20
0.221482
 10
1.79164
 20
0.251799
 10
1.90042
 20
0.284019
 10
2.00861
 20
0.318133
 10
2.11619
 20
0.354129
 10
2.22313
 20
0.391998
 10
2.32939
 20
0.431727
 10
2.43494
 20
0.473305
 10
2.53975
 20
0.516718
 10
2.64379
 20
0.561955
 10
2.74702
 20
0.608999
 10
2.84941
 20
0.657839
 10
2.95094
 20
0.708458
 10
3.05157
 20
0.760841
 10
3.15126
 20
0.814972
 10
3.25
 20
0.870835
 10
3.34775
 20
0.928413
 10
3.44448
 20
0.987687
 10
3.54015
 20
1.04864
 10
3.63475
 20
1.11126
 10
3.72825
 20
1.17551
 10
3.8206
 20
1.24139
 10
3.9118
 20
1.30887
 10
4.0018
 20
1.37793
 10
4.09058
 20
1.44855
 10
4.17812
 20
1.52071
 10
4.26438
 20
1.59439
 10
4.34935
 20
1.66956
 10
4.3746
 20
1.6927
 10
4.37819
 20
1.69369
 10
4.46186
 20
1.71848
 10
4.54508
 20
1.74472
 10
4.62784
 20
1.77241
 10
4.7101
 20
1.80154
 10
4.79184
 20
1.8321
 10
4.87303
 20
1.86408
 10
4.95366
 20
1.89748
 10
5.03368
 20
1.93227
 10
5.11309
 20
1.96846
 10
5.19186
 20
2.00603
 10
5.26995
 20
2.04497
 10
5.34736
 20
2.08526
 10
5.42405
 20
2.1269
 10
5.5
 20
2.16987
 10
5.57519
 20
2.21416
 10
5.6496
 20
2.25976
 10
5.7232
 20
2.30665
 10
5.79596
 20
2.35481
 10
5.86788
 20
2.40424
 10
5.93893
 20
2.45492
 10
6.00908
 20
2.50682
 10
6.07831
 20
2.55995
 10
6.1466
 20
2.61427
 10
6.21394
 20
2.66978
 10
6.2803
 20
2.72645
 10
6.34565
 20
2.78428
 10
6.40999
 20
2.84323
 10
6.47329
 20
2.9033
 10
6.53553
 20
2.96447
 10
6.5967
 20
3.02671
 10
6.65677
 20
3.09001
 10
6.71572
 20
3.15435
 10
6.77355
 20
3.2197
 10
6.83022
 20
3.28606
 10
6.88573
 20
3.3534
 10
6.94005
 20
3.42169
 10
6.99318
 20
3.49092
 10
7.04508
 20
3.56107
 10
7.09576
 20
3.63212
 10
7.14519
 20
3.70404
 10
7.19335
 20
3.7768
 10
7.24024
 20
3.8504
 10
7.28584
 20
3.92481
 10
7.33013
 20
4
 10
7.3731
 20
4.07595
 10
7.41474
 20
4.15264
 10
7.45503
 20
4.23005
 10
7.49397
 20
4.30814
 10
7.53154
 20
4.38691
 10
7.56773
 20
4.46632
 10
7.60252
 20
4.54634
 10
7.63592
 20
4.62697
 10
7.6679
 20
4.70816
 10
7.69846
 20
4.7899
 10
7.72759
 20
4.87216
 10
7.75528
 20
4.95492
 10
7.78152
 20
5.03814
 10
7.80631
 20
5.12181
 10
7.82963
 20
5.2059
 10
7.85148
 20
5.29039
 10
7.87185
 20
5.37524
 10
7.89074
 20
5.46044
 10
7.90814
 20
5.54596
 10
7.92404
 20
5.63176
 10
7.93844
 20
5.71783
 10
7.95134
 20
5.80413
 10
7.96273
 20
5.89065
 10
7.97261
 20
5.97736
 10
7.98097
 20
6.06422
 10
7.98782
 20
6.15122
 10
7.99315
 20
6.23832
 10
7.99695
 20
6.3255
 10
7.99924
 20
6.41274
 10
8
 20
6.5
 10
7.99924
 20
6.58726
 10
7.99695
 20
6.6745
 10
7.99315
 20
6.76168
 10
7.98782
 20
6.84878
 10
7.98097
 20
6.93578
 10
7.97261
 20
7.02264
 10
7.96273
 20
7.10935
 10
7.95134
 20
7.19587
 10
7.93844
 20
7.28217
 10
7.92404
 20
7.36824
 10
7.90814
 20
7.45404
 10
7.89074
 20
7.53956
 10
7.87185
 20
7.62476
 10
7.85148
 20
7.70961
 10
7.82963
 20
7.7941
 10
7.80631
 20
7.87819
 10
7.78152
 20
7.96186
 10
7.75528
 20
8.04508
 10
7.72759
 20
8.12784
 10
7.69846
 20
8.2101
 10
7.6679
 20
8.29184
 10
7.63592
 20
8.37303
 10
7.60252
 20
8.45366
 10
7.56773
 20
8.53368
 10
7.53154
 20
8.61309
 10
7.49397
 20
8.69186
 10
7.45503
 20
8.76995
 10
7.41474
 20
8.84736
 10
7.3731
 20
8.92405
 10
7.33013
 20
9
 10
7.28584
 20
9.07519
 10
7.24024
 20
9.1496
 10
7.19335
 20
9.2232
 10
7.14519
 20
9.29596
 10
7.09576
 20
9.36788
 10
7.04508
 20
9.43893
 10
6.99318
 20
9.50908
 10
6.94005
 20
9.57831
 10
6.88573
 20
9.6466
 10
6.83022
 20
9.71394
 10
6.77355
 20
9.7803
 10
6.71572
 20
9.84565
 10
6.65677
 20
9.90999
 10
6.5967
 20
9.97329
 10
6.53553
 20
10.0355
 10
6.47329
 20
10.0967
 10
6.40999
 20
10.1568
 10
6.34565
 20
10.2157
 10
6.2803
 20
10.2735
 10
6.21394
 20
10.3302
 10
6.1466
 20
10.3857
 10
6.07831
 20
10.4401
 10
6.00908
 20
10.4932
 10
5.93893
 20
10.5451
 10
5.86788
 20
10.5958
 10
5.79596
 20
10.6452
 10
5.7232
 20
10.6934
 10
5.6496
 20
10.7402
 10
5.57519
 20
10.7858
 10
5.5
 20
10.8301
 10
5.42405
 20
10.8731
 10
5.34736
 20
10.9147
 10
5.26995
 20
10.955
 10
5.19186
 20
10.994
 10
5.11309
 20
11.0315
 10
5.03368
 20
11.0677
 10
4.95366
 20
11.1025
 10
4.87303
 20
11.1359
 10
4.79184
 20
11.1679
 10
4.7101
 20
11.1985
 10
4.62784
 20
11.2276
 10
4.54508
 20
11.2553
 10
4.46186
 20
11.2815
 10
4.37819
 20
11.3063
 10
4.3746
 20
11.3073
 10
4.34935
 20
11.3304
 10
4.26438
 20
11.4056
 10
4.17812
 20
11.4793
 10
4.09058
 20
11.5514
 10
4.0018
 20
11.6221
 10
3.9118
 20
11.6911
 10
3.8206
 20
11.7586
 10
3.72825
 20
11.8245
 10
3.63475
 20
11.8887
 10
3.54015
 20
11.9514
 10
3.44448
 20
12.0123
 10
3.34775
 20
12.0716
 10
3.25
 20
12.1292
 10
3.15126
 20
12.185
 10
3.05157
 20
12.2392
 10
2.95094
 20
12.2915
 10
2.84941
 20
12.3422
 10
2.74702
 20
12.391
 10
2.64379
 20
12.438
 10
2.53975
 20
12.4833
 10
2.43494
 20
12.5267
 10
2.32939
 20
12.5683
 10
2.22313
 20
12.608
 10
2.11619
 20
12.6459
 10
2.00861
 20
12.6819
 10
1.03931
 20
13
 10
-45
 20
13
 10
-45
 20
13.0073
 10
-45.1648
 20
13.0116
 10
-45.497
 20
13.0261
 10
-45.8289
 20
13.0464
 10
-46.1603
 20
13.0725
 10
-46.4913
 20
13.1044
 10
-46.8216
 20
13.142
 10
-47.1512
 20
13.1854
 10
-47.4801
 20
13.2345
 10
-47.808
 20
13.2894
 10
-48.1349
 20
13.35
 10
-48.4607
 20
13.4163
 10
-48.7853
 20
13.4883
 10
-49.1086
 20
13.5659
 10
-49.4305
 20
13.6491
 10
-49.7509
 20
13.738
 10
-50.0697
 20
13.8324
 10
-50.3868
 20
13.9324
 10
-50.7021
 20
14.0379
 10
-51.0155
 20
14.1489
 10
-51.3269
 20
14.2653
 10
-51.6363
 20
14.3871
 10
-51.9434
 20
14.5144
 10
-52.2483
 20
14.647
 10
-52.5509
 20
14.7848
 10
-52.851
 20
14.928
 10
-53.1485
 20
15.0763
 10
-53.4434
 20
15.2298
 10
-53.7356
 20
15.3885
 10
-54.025
 20
15.5522
 10
-54.3115
 20
15.721
 10
-54.595
 20
15.8947
 10
-54.8754
 20
16.0733
 10
-55.1526
 20
16.2568
 10
-55.4266
 20
16.4452
 10
-55.6973
 20
16.6382
 10
-55.9646
 20
16.836
 10
-56.2284
 20
17.0384
 10
-56.4886
 20
17.2454
 10
-56.7451
 20
17.4569
 10
-56.9979
 20
17.6728
 10
-57.2469
 20
17.8931
 10
-57.4921
 20
18.1177
 10
-57.7332
 20
18.3466
 10
-57.9704
 20
18.5796
 10
-58.2034
 20
18.8168
 10
-58.4323
 20
19.0579
 10
-58.6569
 20
19.3031
 10
-58.8772
 20
19.5521
 10
-59.0931
 20
19.8049
 10
-59.3046
 20
20.0614
 10
-59.5116
 20
20.3216
 10
-59.714
 20
20.5854
 10
-59.9118
 20
20.8527
 10
-60.1048
 20
21.1234
 10
-60.2932
 20
21.3974
 10
-60.4767
 20
21.6746
 10
-60.6553
 20
21.955
 10
-60.829
 20
22.2385
 10
-60.9978
 20
22.525
 10
-61.1615
 20
22.8144
 10
-61.3202
 20
23.1066
 10
-61.4737
 20
23.4015
 10
-61.622
 20
23.699
 10
-61.7652
 20
23.9991
 10
-61.903
 20
24.3017
 10
-62.0356
 20
24.6066
 10
-62.1629
 20
24.9137
 10
-62.2847
 20
25.2231
 10
-62.4011
 20
25.5345
 10
-62.5121
 20
25.8479
 10
-62.6176
 20
26.1632
 10
-62.7176
 20
26.4803
 10
-62.7931
 20
26.7353
 10
-62.8022
 20
26.7444
 10
-62.8044
 20
26.7529
 10
-62.8324
 20
26.8538
 10
-62.8622
 20
26.9542
 10
-62.8937
 20
27.0541
 10
-62.9269
 20
27.1534
 10
-62.9618
 20
27.2521
 10
-62.9985
 20
27.3502
 10
-63.0369
 20
27.4476
 10
-63.077
 20
27.5444
 10
-63.1187
 20
27.6404
 10
-63.1622
 20
27.7357
 10
-63.2072
 20
27.8302
 10
-63.254
 20
27.9239
 10
-63.3023
 20
28.0168
 10
-63.3523
 20
28.1089
 10
-63.4038
 20
28.2
 10
-63.457
 20
28.2902
 10
-63.5117
 20
28.3795
 10
-63.568
 20
28.4678
 10
-63.6258
 20
28.5552
 10
-63.6851
 20
28.6415
 10
-63.7459
 20
28.7267
 10
-63.8082
 20
28.8109
 10
-63.8719
 20
28.894
 10
-63.9371
 20
28.9759
 10
-64.0037
 20
29.0567
 10
-64.0717
 20
29.1364
 10
-64.1411
 20
29.2148
 10
-64.2119
 20
29.292
 10
-64.284
 20
29.368
 10
-64.3574
 20
29.4426
 10
-64.432
 20
29.516
 10
-64.508
 20
29.5881
 10
-64.5852
 20
29.6589
 10
-64.6636
 20
29.7283
 10
-64.7433
 20
29.7963
 10
-64.8241
 20
29.8629
 10
-64.906
 20
29.9281
 10
-64.9891
 20
29.9918
 10
-65.0733
 20
30.0541
 10
-65.1585
 20
30.1149
 10
-65.2448
 20
30.1742
 10
-65.3322
 20
30.232
 10
-65.4205
 20
30.2883
 10
-65.5098
 20
30.343
 10
-65.6
 20
30.3962
 10
-65.6911
 20
30.4477
 10
-65.7832
 20
30.4977
 10
-65.8761
 20
30.546
 10
-65.9698
 20
30.5928
 10
-66.0643
 20
30.6378
 10
-66.1596
 20
30.6813
 10
-66.2556
 20
30.723
 10
-66.3524
 20
30.7631
 10
-66.4498
 20
30.8015
 10
-66.5479
 20
30.8382
 10
-66.6466
 20
30.8731
 10
-66.7459
 20
30.9063
 10
-66.8458
 20
30.9378
 10
-66.9462
 20
30.9676
 10
-67.0471
 20
30.9956
 10
-67.1485
 20
31.0218
 10
-67.2503
 20
31.0462
 10
-67.3525
 20
31.0689
 10
-67.4551
 20
31.0898
 10
-67.5581
 20
31.1088
 10
-67.6614
 20
31.1261
 10
-67.765
 20
31.1416
 10
-67.8688
 20
31.1553
 10
-67.9728
 20
31.1671
 10
-67.9859
 20
31.1684
 10
-68.0251
 20
31.1678
 10
-68.7068
 20
31.1529
 10
-69.3929
 20
31.134
 10
-70.0831
 20
31.111
 10
-70.777
 20
31.0841
 10
-71.4747
 20
31.0532
 10
-72.1757
 20
31.0182
 10
-72.88
 20
30.9793
 10
-73.5873
 20
30.9364
 10
-74.2974
 20
30.8896
 10
-75.01
 20
30.8388
 10
-75.725
 20
30.7841
 10
-76.4421
 20
30.7255
 10
-77.1612
 20
30.663
 10
-77.882
 20
30.5966
 10
-78.6042
 20
30.5263
 10
-79.3277
 20
30.4523
 10
-80.0522
 20
30.3744
 10
-80.7775
 20
30.2927
 10
-81.5035
 20
30.2073
 10
-82.2298
 20
30.1181
 10
-82.9563
 20
30.0252
 10
-83.6827
 20
29.9287
 10
-84.4088
 20
29.8285
 10
-85.1344
 20
29.7247
 10
-85.8593
 20
29.6173
 10
-86.5832
 20
29.5063
 10
-87.306
 20
29.3918
 10
-88.0274
 20
29.2738
 10
-88.7471
 20
29.1524
 10
-89.4651
 20
29.0276
 10
-90.1809
 20
28.8993
 10
-90.8946
 20
28.7678
 10
-91.6057
 20
28.6329
 10
-92.3141
 20
28.4948
 10
-93.0196
 20
28.3535
 10
-93.722
 20
28.209
 10
-94.421
 20
28.0614
 10
-95.1165
 20
27.9107
 10
-95.8082
 20
27.757
 10
-96.496
 20
27.6003
 10
-97.1795
 20
27.4406
 10
-97.8586
 20
27.278
 10
-98.5331
 20
27.1126
 10
-99.2029
 20
26.9445
 10
-99.8676
 20
26.7735
 10
-100.527
 20
26.5999
 10
-101.181
 20
26.4236
 10
-101.83
 20
26.2448
 10
-102.472
 20
26.0634
 10
-103.109
 20
25.8796
 10
-103.739
 20
25.6933
 10
-104.363
 20
25.5047
 10
-104.981
 20
25.3138
 10
-105.591
 20
25.1206
 10
-106.195
 20
24.9253
 10
-106.792
 20
24.7278
 10
-107.381
 20
24.5283
 10
-107.963
 20
24.3267
 10
-108.537
 20
24.1232
 10
-109.103
 20
23.9179
 10
-109.661
 20
23.7107
 10
-110.211
 20
23.5017
 10
-110.752
 20
23.2911
 10
-111.285
 20
23.0788
 10
-111.81
 20
22.865
 10
-112.325
 20
22.6496
 10
-112.832
 20
22.4329
 10
-113.329
 20
22.2147
 10
-113.817
 20
21.9953
 10
-114.296
 20
21.7746
 10
-114.765
 20
21.5528
 10
-115.224
 20
21.3299
 10
-115.673
 20
21.1059
 10
-116.112
 20
20.881
 10
-116.541
 20
20.6552
 10
-116.96
 20
20.4285
 10
-117.368
 20
20.2011
 10
-117.766
 20
19.973
 10
-118.153
 20
19.7443
 10
-118.53
 20
19.5151
 10
-118.895
 20
19.2853
 10
-119.25
 20
19.0552
 10
-119.593
 20
18.8247
 10
-119.925
 20
18.594
 10
-120.246
 20
18.363
 10
-120.555
 20
18.132
 10
-120.853
 20
17.9008
 10
-121.139
 20
17.6697
 10
-121.414
 20
17.4387
 10
-121.676
 20
17.2078
 10
-121.927
 20
16.9772
 10
-122.166
 20
16.7468
 10
-122.393
 20
16.5168
 10
-122.608
 20
16.2873
 10
-122.81
 20
16.0582
 10
-123.001
 20
15.8297
 10
-123.179
 20
15.6019
 10
-123.345
 20
15.3748
 10
-123.499
 20
15.1484
 10
-123.64
 20
14.923
 10
-123.768
 20
14.6984
 10
-123.885
 20
14.4748
 10
-123.988
 20
14.2523
 10
-124.079
 20
14.0309
 10
-124.158
 20
13.8107
 10
-124.224
 20
13.5918
 10
-124.572
 20
12.1935
 10
-124.601
 20
12.0747
 10
-124.627
 20
11.9554
 10
-124.651
 20
11.8357
 10
-124.674
 20
11.7155
 10
-124.694
 20
11.595
 10
-124.712
 20
11.4742
 10
-124.728
 20
11.3531
 10
-124.742
 20
11.2317
 10
-124.753
 20
11.1101
 10
-124.763
 20
10.9883
 10
-124.77
 20
10.8664
 10
-124.776
 20
10.7443
 10
-124.779
 20
10.6222
 10
-124.78
 20
10.5
 10
-124.779
 20
10.3778
 10
-124.776
 20
10.2557
 10
-124.77
 20
10.1336
 10
-124.763
 20
10.0117
 10
-124.753
 20
9.88991
 10
-124.742
 20
9.7683
 10
-124.728
 20
9.64691
 10
-124.712
 20
9.52579
 10
-124.694
 20
9.40496
 10
-124.674
 20
9.28446
 10
-124.651
 20
9.16434
 10
-124.627
 20
9.04462
 10
-124.601
 20
8.92534
 10
-124.572
 20
8.80655
 10
-124.541
 20
8.68827
 10
-124.509
 20
8.57054
 10
-124.474
 20
8.4534
 10
-124.437
 20
8.33688
 10
-124.399
 20
8.22102
 10
-124.358
 20
8.10586
 10
-124.315
 20
7.99142
 10
-124.27
 20
7.87775
 10
-124.224
 20
7.76488
 10
-124.175
 20
7.65284
 10
-124.124
 20
7.54167
 10
-124.072
 20
7.4314
 10
-124.017
 20
7.32207
 10
-123.961
 20
7.2137
 10
-123.902
 20
7.10633
 10
-123.842
 20
7
 10
-123.78
 20
6.89473
 10
-123.716
 20
6.79057
 10
-123.651
 20
6.68753
 10
-123.583
 20
6.58565
 10
-123.514
 20
6.48496
 10
-123.443
 20
6.3855
 10
-123.37
 20
6.28729
 10
-123.296
 20
6.19037
 10
-123.22
 20
6.09476
 10
-123.142
 20
6.00049
 10
-123.063
 20
5.90759
 10
-122.982
 20
5.81609
 10
-122.899
 20
5.72601
 10
-122.815
 20
5.63739
 10
-122.73
 20
5.55025
 10
-122.643
 20
5.46462
 10
-122.554
 20
5.38052
 10
-122.464
 20
5.29799
 10
-122.372
 20
5.21703
 10
-122.28
 20
5.13769
 10
-122.185
 20
5.05998
 10
-122.09
 20
4.98392
 10
-121.993
 20
4.90955
 10
-121.894
 20
4.83688
 10
-121.795
 20
4.76594
 10
-121.694
 20
4.69674
 10
-121.592
 20
4.62931
 10
-121.489
 20
4.56366
 10
-121.385
 20
4.49983
 10
-121.28
 20
4.43782
 10
-121.174
 20
4.37766
 10
-121.066
 20
4.31937
 10
-120.958
 20
4.26295
 10
-120.849
 20
4.20844
 10
-120.738
 20
4.15585
 10
-120.627
 20
4.10518
 10
-119.969
 20
3.80633
 10
-119.729
 20
3.7
 10
-119.481
 20
3.59473
 10
-119.225
 20
3.49057
 10
-118.963
 20
3.38753
 10
-118.693
 20
3.28565
 10
-118.416
 20
3.18496
 10
-118.132
 20
3.0855
 10
-117.842
 20
2.98729
 10
-117.544
 20
2.89037
 10
-117.24
 20
2.79476
 10
-116.929
 20
2.70049
 10
-116.612
 20
2.60759
 10
-116.288
 20
2.51609
 10
-115.958
 20
2.42601
 10
-115.622
 20
2.33739
 10
-115.279
 20
2.25025
 10
-114.93
 20
2.16462
 10
-114.576
 20
2.08052
 10
-114.216
 20
1.99799
 10
-113.85
 20
1.91703
 10
-113.478
 20
1.83769
 10
-113.101
 20
1.75998
 10
-112.719
 20
1.68392
 10
-112.331
 20
1.60955
 10
-111.938
 20
1.53688
 10
-111.54
 20
1.46594
 10
-111.137
 20
1.39674
 10
-110.73
 20
1.32931
 10
-110.318
 20
1.26366
 10
-109.901
 20
1.19983
 10
-109.48
 20
1.13782
 10
-109.055
 20
1.07766
 10
-108.625
 20
1.01937
 10
-108.192
 20
0.962954
 10
-107.754
 20
0.908442
 10
-107.313
 20
0.855845
 10
-106.869
 20
0.805182
 10
-106.42
 20
0.756466
 10
-105.969
 20
0.709713
 10
-105.514
 20
0.664937
 10
-105.057
 20
0.622152
 10
-104.596
 20
0.58137
 10
-104.132
 20
0.542604
 10
-103.666
 20
0.505867
 10
-103.198
 20
0.471168
 10
-102.727
 20
0.438519
 10
-102.254
 20
0.40793
 10
-101.779
 20
0.37941
 10
-101.302
 20
0.352967
 10
-100.823
 20
0.32861
 10
-100.342
 20
0.306346
 10
-99.8602
 20
0.286182
 10
-99.3768
 20
0.268124
 10
-98.8923
 20
0.252177
 10
-98.4068
 20
0.238347
 10
-97.9204
 20
0.226637
 10
-97.4332
 20
0.217052
 10
-96.9454
 20
0.209593
 10
-96.4572
 20
0.204264
 10
-95.9687
 20
0.201066
 10
-95.48
 20
0.2
 10
0
 20
0
  0
LWPOLYLINE
100
AcDbEntity
  8
0
100
AcDbPolyline
 90
360
 70
1
 10
-84.801
 20
20.7371
 10
-84.8269
 20
20.7378
 10
-84.8529
 20
20.7389
 10
-84.8788
 20
20.7405
 10
-84.9047
 20
20.7425
 10
-84.9306
 20
20.745
 10
-84.9564
 20
20.748
 10
-84.9821
 20
20.7514
 10
-85.0078
 20
20.7552
 10
-85.0334
 20
20.7595
 10
-85.0589
 20
20.7642
 10
-85.0844
 20
20.7694
 10
-85.1098
 20
20.775
 10
-85.135
 20
20.7811
 10
-85.1602
 20
20.7876
 10
-85.1852
 20
20.7945
 10
-85.2101
 20
20.8019
 10
-85.2349
 20
20.8097
 10
-85.2595
 20
20.818
 10
-85.284
 20
20.8266
 10
-85.3083
 20
20.8357
 10
-85.3325
 20
20.8452
 10
-85.3565
 20
20.8552
 10
-85.3803
 20
20.8655
 10
-85.4039
 20
20.8763
 10
-85.4273
 20
20.8875
 10
-85.4506
 20
20.8991
 10
-85.4736
 20
20.9111
 10
-85.4965
 20
20.9235
 10
-85.5191
 20
20.9362
 10
-85.5414
 20
20.9494
 10
-85.5636
 20
20.963
 10
-85.5855
 20
20.977
 10
-85.6071
 20
20.9913
 10
-85.6286
 20
21.006
 10
-85.6497
 20
21.0211
 10
-85.6706
 20
21.0365
 10
-85.6912
 20
21.0523
 10
-85.7115
 20
21.0685
 10
-85.7315
 20
21.085
 10
-85.7513
 20
21.1019
 10
-85.7707
 20
21.1191
 10
-85.7899
 20
21.1367
 10
-85.8087
 20
21.1545
 10
-85.8273
 20
21.1727
 10
-85.8455
 20
21.1913
 10
-85.8633
 20
21.2101
 10
-85.8809
 20
21.2293
 10
-85.8981
 20
21.2487
 10
-85.915
 20
21.2685
 10
-85.9315
 20
21.2885
 10
-85.9477
 20
21.3088
 10
-85.9635
 20
21.3294
 10
-85.9789
 20
21.3503
 10
-85.994
 20
21.3714
 10
-86.0087
 20
21.3929
 10
-86.023
 20
21.4145
 10
-86.037
 20
21.4364
 10
-86.0506
 20
21.4586
 10
-86.0638
 20
21.4809
 10
-86.0765
 20
21.5035
 10
-86.0889
 20
21.5264
 10
-86.1009
 20
21.5494
 10
-86.1125
 20
21.5727
 10
-86.1237
 20
21.5961
 10
-86.1345
 20
21.6197
 10
-86.1448
 20
21.6435
 10
-86.1548
 20
21.6675
 10
-86.1643
 20
21.6917
 10
-86.1734
 20
21.716
 10
-86.182
 20
21.7405
 10
-86.1903
 20
21.7651
 10
-86.1981
 20
21.7899
 10
-86.2055
 20
21.8148
 10
-86.2124
 20
21.8398
 10
-86.2189
 20
21.865
 10
-86.225
 20
21.8902
 10
-86.2306
 20
21.9156
 10
-86.2358
 20
21.9411
 10
-86.2405
 20
21.9666
 10
-86.2448
 20
21.9922
 10
-86.2486
 20
22.0179
 10
-86.252
 20
22.0436
 10
-86.255
 20
22.0694
 10
-86.2575
 20
22.0953
 10
-86.2595
 20
22.1212
 10
-86.2611
 20
22.1471
 10
-86.2622
 20
22.1731
 10
-86.2629
 20
22.199
 10
-86.2631
 20
22.225
 10
-86.2629
 20
22.251
 10
-86.2622
 20
22.2769
 10
-86.2611
 20
22.3029
 10
-86.2595
 20
22.3288
 10
-86.2575
 20
22.3547
 10
-86.255
 20
22.3806
 10
-86.252
 20
22.4064
 10
-86.2486
 20
22.4321
 10
-86.2448
 20
22.4578
 10
-86.2405
 20
22.4834
 10
-86.2358
 20
22.5089
 10
-86.2306
 20
22.5344
 10
-86.225
 20
22.5598
 10
-86.2189
 20
22.585
 10
-86.2124
 20
22.6102
 10
-86.2055
 20
22.6352
 10
-86.1981
 20
22.6601
 10
-86.1903
 20
22.6849
 10
-86.182
 20
22.7095
 10
-86.1734
 20
22.734
 10
-86.1643
 20
22.7583
 10
-86.1548
 20
22.7825
 10
-86.1448
 20
22.8065
 10
-86.1345
 20
22.8303
 10
-86.1237
 20
22.8539
 10
-86.1125
 20
22.8773
 10
-86.1009
 20
22.9006
 10
-86.0889
 20
22.9236
 10
-86.0765
 20
22.9465
 10
-86.0638
 20
22.9691
 10
-86.0506
 20
22.9914
 10
-86.037
 20
23.0136
 10
-86.023
 20
23.0355
 10
-86.0087
 20
23.0571
 10
-85.994
 20
23.0786
 10
-85.9789
 20
23.0997
 10
-85.9635
 20
23.1206
 10
-85.9477
 20
23.1412
 10
-85.9315
 20
23.1615
 10
-85.915
 20
23.1815
 10
-85.8981
 20
23.2013
 10
-85.8809
 20
23.2207
 10
-85.8633
 20
23.2399
 10
-85.8455
 20
23.2587
 10
-85.8273
 20
23.2773
 10
-85.8087
 20
23.2955
 10
-85.7899
 20
23.3133
 10
-85.7707
 20
23.3309
 10
-85.7513
 20
23.3481
 10
-85.7315
 20
23.365
 10
-85.7115
 20
23.3815
 10
-85.6912
 20
23.3977
 10
-85.6706
 20
23.4135
 10
-85.6497
 20
23.4289
 10
-85.6286
 20
23.444
 10
-85.6071
 20
23.4587
 10
-85.5855
 20
23.473
 10
-85.5636
 20
23.487
 10
-85.5414
 20
23.5006
 10
-85.5191
 20
23.5138
 10
-85.4965
 20
23.5265
 10
-85.4736
 20
23.5389
 10
-85.4506
 20
23.5509
 10
-85.4273
 20
23.5625
 10
-85.4039
 20
23.5737
 10
-85.3803
 20
23.5845
 10
-85.3565
 20
23.5948
 10
-85.3325
 20
23.6048
 10
-85.3083
 20
23.6143
 10
-85.284
 20
23.6234
 10
-85.2595
 20
23.632
 10
-85.2349
 20
23.6403
 10
-85.2101
 20
23.6481
 10
-85.1852
 20
23.6555
 10
-85.1602
 20
23.6624
 10
-85.135
 20
23.6689
 10
-85.1098
 20
23.675
 10
-85.0844
 20
23.6806
 10
-85.0589
 20
23.6858
 10
-85.0334
 20
23.6905
 10
-85.0078
 20
23.6948
 10
-84.9821
 20
23.6986
 10
-84.9564
 20
23.702
 10
-84.9306
 20
23.705
 10
-84.9047
 20
23.7075
 10
-84.8788
 20
23.7095
 10
-84.8529
 20
23.7111
 10
-84.8269
 20
23.7122
 10
-84.801
 20
23.7129
 10
-84.775
 20
23.7131
 10
-84.749
 20
23.7129
 10
-84.7231
 20
23.7122
 10
-84.6971
 20
23.7111
 10
-84.6712
 20
23.7095
 10
-84.6453
 20
23.7075
 10
-84.6194
 20
23.705
 10
-84.5936
 20
23.702
 10
-84.5679
 20
23.6986
 10
-84.5422
 20
23.6948
 10
-84.5166
 20
23.6905
 10
-84.4911
 20
23.6858
 10
-84.4656
 20
23.6806
 10
-84.4402
 20
23.675
 10
-84.415
 20
23.6689
 10
-84.3898
 20
23.6624
 10
-84.3648
 20
23.6555
 10
-84.3399
 20
23.6481
 10
-84.3151
 20
23.6403
 10
-84.2905
 20
23.632
 10
-84.266
 20
23.6234
 10
-84.2417
 20
23.6143
 10
-84.2175
 20
23.6048
 10
-84.1935
 20
23.5948
 10
-84.1697
 20
23.5845
 10
-84.1461
 20
23.5737
 10
-84.1227
 20
23.5625
 10
-84.0994
 20
23.5509
 10
-84.0764
 20
23.5389
 10
-84.0535
 20
23.5265
 10
-84.0309
 20
23.5138
 10
-84.0086
 20
23.5006
 10
-83.9864
 20
23.487
 10
-83.9645
 20
23.473
 10
-83.9429
 20
23.4587
 10
-83.9214
 20
23.444
 10
-83.9003
 20
23.4289
 10
-83.8794
 20
23.4135
 10
-83.8588
 20
23.3977
 10
-83.8385
 20
23.3815
 10
-83.8185
 20
23.365
 10
-83.7987
 20
23.3481
 10
-83.7793
 20
23.3309
 10
-83.7601
 20
23.3133
 10
-83.7413
 20
23.2955
 10
-83.7227
 20
23.2773
 10
-83.7045
 20
23.2587
 10
-83.6867
 20
23.2399
 10
-83.6691
 20
23.2207
 10
-83.6519
 20
23.2013
 10
-83.635
 20
23.1815
 10
-83.6185
 20
23.1615
 10
-83.6023
 20
23.1412
 10
-83.5865
 20
23.1206
 10
-83.5711
 20
23.0997
 10
-83.556
 20
23.0786
 10
-83.5413
 20
23.0571
 10
-83.527
 20
23.0355
 10
-83.513
 20
23.0136
 10
-83.4994
 20
22.9914
 10
-83.4862
 20
22.9691
 10
-83.4735
 20
22.9465
 10
-83.4611
 20
22.9236
 10
-83.4491
 20
22.9006
 10
-83.4375
 20
22.8773
 10
-83.4263
 20
22.8539
 10
-83.4155
 20
22.8303
 10
-83.4052
 20
22.8065
 10
-83.3952
 20
22.7825
 10
-83.3857
 20
22.7583
 10
-83.3766
 20
22.734
 10
-83.368
 20
22.7095
 10
-83.3597
 20
22.6849
 10
-83.3519
 20
22.6601
 10
-83.3445
 20
22.6352
 10
-83.3376
 20
22.6102
 10
-83.3311
 20
22.585
 10
-83.325
 20
22.5598
 10
-83.3194
 20
22.5344
 10
-83.3142
 20
22.5089
 10
-83.3095
 20
22.4834
 10
-83.3052
 20
22.4578
 10
-83.3014
 20
22.4321
 10
-83.298
 20
22.4064
 10
-83.295
 20
22.3806
 10
-83.2925
 20
22.3547
 10
-83.2905
 20
22.3288
 10
-83.2889
 20
22.3029
 10
-83.2878
 20
22.2769
 10
-83.2871
 20
22.251
 10
-83.2869
 20
22.225
 10
-83.2871
 20
22.199
 10
-83.2878
 20
22.1731
 10
-83.2889
 20
22.1471
 10
-83.2905
 20
22.1212
 10
-83.2925
 20
22.0953
 10
-83.295
 20
22.0694
 10
-83.298
 20
22.0436
 10
-83.3014
 20
22.0179
 10
-83.3052
 20
21.9922
 10
-83.3095
 20
21.9666
 10
-83.3142
 20
21.9411
 10
-83.3194
 20
21.9156
 10
-83.325
 20
21.8902
 10
-83.3311
 20
21.865
 10
-83.3376
 20
21.8398
 10
-83.3445
 20
21.8148
 10
-83.3519
 20
21.7899
 10
-83.3597
 20
21.7651
 10
-83.368
 20
21.7405
 10
-83.3766
 20
21.716
 10
-83.3857
 20
21.6917
 10
-83.3952
 20
21.6675
 10
-83.4052
 20
21.6435
 10
-83.4155
 20
21.6197
 10
-83.4263
 20
21.5961
 10
-83.4375
 20
21.5727
 10
-83.4491
 20
21.5494
 10
-83.4611
 20
21.5264
 10
-83.4735
 20
21.5035
 10
-83.4862
 20
21.4809
 10
-83.4994
 20
21.4586
 10
-83.513
 20
21.4364
 10
-83.527
 20
21.4145
 10
-83.5413
 20
21.3929
 10
-83.556
 20
21.3714
 10
-83.5711
 20
21.3503
 10
-83.5865
 20
21.3294
 10
-83.6023
 20
21.3088
 10
-83.6185
 20
21.2885
 10
-83.635
 20
21.2685
 10
-83.6519
 20
21.2487
 10
-83.6691
 20
21.2293
 10
-83.6867
 20
21.2101
 10
-83.7045
 20
21.1913
 10
-83.7227
 20
21.1727
 10
-83.7413
 20
21.1545
 10
-83.7601
 20
21.1367
 10
-83.7793
 20
21.1191
 10
-83.7987
 20
21.1019
 10
-83.8185
 20
21.085
 10
-83.8385
 20
21.0685
 10
-83.8588
 20
21.0523
 10
-83.8794
 20
21.0365
 10
-83.9003
 20
21.0211
 10
-83.9214
 20
21.006
 10
-83.9429
 20
20.9913
 10
-83.9645
 20
20.977
 10
-83.9864
 20
20.963
 10
-84.0086
 20
20.9494
 10
-84.0309
 20
20.9362
 10
-84.0535
 20
20.9235
 10
-84.0764
 20
20.9111
 10
-84.0994
 20
20.8991
 10
-84.1227
 20
20.8875
 10
-84.1461
 20
20.8763
 10
-84.1697
 20
20.8655
 10
-84.1935
 20
20.8552
 10
-84.2175
 20
20.8452
 10
-84.2417
 20
20.8357
 10
-84.266
 20
20.8266
 10
-84.2905
 20
20.818
 10
-84.3151
 20
20.8097
 10
-84.3399
 20
20.8019
 10
-84.3648
 20
20.7945
 10
-84.3898
 20
20.7876
 10
-84.415
 20
20.7811
 10
-84.4402
 20
20.775
 10
-84.4656
 20
20.7694
 10
-84.4911
 20
20.7642
 10
-84.5166
 20
20.7595
 10
-84.5422
 20
20.7552
 10
-84.5679
 20
20.7514
 10
-84.5936
 20
20.748
 10
-84.6194
 20
20.745
 10
-84.6453
 20
20.7425
 10
-84.6712
 20
20.7405
 10
-84.6971
 20
20.7389
 10
-84.7231
 20
20.7378
 10
-84.749
 20
20.7371
 10
-84.775
 20
20.7369
  0
LWPOLYLINE
100
AcDbEntity
  8
0
100
AcDbPolyline
 90
360
 70
1
 10
-91.9586
 20
15.181
 10
-91.9984
 20
15.182
 10
-92.0382
 20
15.1838
 10
-92.0779
 20
15.1862
 10
-92.1176
 20
15.1893
 10
-92.1573
 20
15.1931
 10
-92.1968
 20
15.1976
 10
-92.2363
 20
15.2028
 10
-92.2757
 20
15.2087
 10
-92.315
 20
15.2153
 10
-92.3542
 20
15.2226
 10
-92.3932
 20
15.2305
 10
-92.4321
 20
15.2391
 10
-92.4708
 20
15.2484
 10
-92.5093
 20
15.2584
 10
-92.5477
 20
15.269
 10
-92.5859
 20
15.2803
 10
-92.6239
 20
15.2923
 10
-92.6617
 20
15.3049
 10
-92.6992
 20
15.3182
 10
-92.7365
 20
15.3322
 10
-92.7736
 20
15.3468
 10
-92.8103
 20
15.362
 10
-92.8469
 20
15.3779
 10
-92.8831
 20
15.3944
 10
-92.9191
 20
15.4116
 10
-92.9547
 20
15.4293
 10
-92.99
 20
15.4477
 10
-93.025
 20
15.4667
 10
-93.0597
 20
15.4863
 10
-93.094
 20
15.5066
 10
-93.128
 20
15.5274
 10
-93.1615
 20
15.5488
 10
-93.1948
 20
15.5707
 10
-93.2276
 20
15.5933
 10
-93.26
 20
15.6164
 10
-93.292
 20
15.6401
 10
-93.3236
 20
15.6644
 10
-93.3548
 20
15.6892
 10
-93.3855
 20
15.7145
 10
-93.4158
 20
15.7403
 10
-93.4456
 20
15.7667
 10
-93.475
 20
15.7936
 10
-93.5039
 20
15.8211
 10
-93.5323
 20
15.849
 10
-93.5602
 20
15.8774
 10
-93.5876
 20
15.9063
 10
-93.6145
 20
15.9356
 10
-93.6409
 20
15.9655
 10
-93.6668
 20
15.9957
 10
-93.6921
 20
16.0265
 10
-93.7169
 20
16.0576
 10
-93.7411
 20
16.0892
 10
-93.7648
 20
16.1212
 10
-93.788
 20
16.1537
 10
-93.8105
 20
16.1865
 10
-93.8325
 20
16.2197
 10
-93.8539
 20
16.2533
 10
-93.8747
 20
16.2872
 10
-93.8949
 20
16.3216
 10
-93.9145
 20
16.3562
 10
-93.9335
 20
16.3912
 10
-93.9519
 20
16.4266
 10
-93.9697
 20
16.4622
 10
-93.9868
 20
16.4981
 10
-94.0033
 20
16.5344
 10
-94.0192
 20
16.5709
 10
-94.0345
 20
16.6077
 10
-94.0491
 20
16.6448
 10
-94.063
 20
16.6821
 10
-94.0763
 20
16.7196
 10
-94.0889
 20
16.7574
 10
-94.1009
 20
16.7953
 10
-94.1122
 20
16.8335
 10
-94.1229
 20
16.8719
 10
-94.1328
 20
16.9105
 10
-94.1421
 20
16.9492
 10
-94.1508
 20
16.9881
 10
-94.1587
 20
17.0271
 10
-94.166
 20
17.0663
 10
-94.1725
 20
17.1055
 10
-94.1784
 20
17.1449
 10
-94.1836
 20
17.1844
 10
-94.1881
 20
17.224
 10
-94.1919
 20
17.2636
 10
-94.1951
 20
17.3033
 10
-94.1975
 20
17.3431
 10
-94.1992
 20
17.3829
 10
-94.2003
 20
17.4227
 10
-94.2006
 20
17.4625
 10
-94.2003
 20
17.5023
 10
-94.1992
 20
17.5421
 10
-94.1975
 20
17.5819
 10
-94.1951
 20
17.6217
 10
-94.1919
 20
17.6614
 10
-94.1881
 20
17.701
 10
-94.1836
 20
17.7406
 10
-94.1784
 20
17.7801
 10
-94.1725
 20
17.8195
 10
-94.166
 20
17.8587
 10
-94.1587
 20
17.8979
 10
-94.1508
 20
17.9369
 10
-94.1421
 20
17.9758
 10
-94.1328
 20
18.0145
 10
-94.1229
 20
18.0531
 10
-94.1122
 20
18.0915
 10
-94.1009
 20
18.1297
 10
-94.0889
 20
18.1676
 10
-94.0763
 20
18.2054
 10
-94.063
 20
18.2429
 10
-94.0491
 20
18.2802
 10
-94.0345
 20
18.3173
 10
-94.0192
 20
18.3541
 10
-94.0033
 20
18.3906
 10
-93.9868
 20
18.4269
 10
-93.9697
 20
18.4628
 10
-93.9519
 20
18.4984
 10
-93.9335
 20
18.5338
 10
-93.9145
 20
18.5688
 10
-93.8949
 20
18.6034
 10
-93.8747
 20
18.6378
 10
-93.8539
 20
18.6717
 10
-93.8325
 20
18.7053
 10
-93.8105
 20
18.7385
 10
-93.788
 20
18.7713
 10
-93.7648
 20
18.8038
 10
-93.7411
 20
18.8358
 10
-93.7169
 20
18.8674
 10
-93.6921
 20
18.8985
 10
-93.6668
 20
18.9293
 10
-93.6409
 20
18.9595
 10
-93.6145
 20
18.9894
 10
-93.5876
 20
19.0187
 10
-93.5602
 20
19.0476
 10
-93.5323
 20
19.076
 10
-93.5039
 20
19.1039
 10
-93.475
 20
19.1314
 10
-93.4456
 20
19.1583
 10
-93.4158
 20
19.1847
 10
-93.3855
 20
19.2105
 10
-93.3548
 20
19.2358
 10
-93.3236
 20
19.2606
 10
-93.292
 20
19.2849
 10
-93.26
 20
19.3086
 10
-93.2276
 20
19.3317
 10
-93.1948
 20
19.3543
 10
-93.1615
 20
19.3762
 10
-93.128
 20
19.3976
 10
-93.094
 20
19.4184
 10
-93.0597
 20
19.4387
 10
-93.025
 20
19.4583
 10
-92.99
 20
19.4773
 10
-92.9547
 20
19.4957
 10
-92.9191
 20
19.5134
 10
-92.8831
 20
19.5306
 10
-92.8469
 20
19.5471
 10
-92.8103
 20
19.563
 10
-92.7736
 20
19.5782
 10
-92.7365
 20
19.5928
 10
-92.6992
 20
19.6068
 10
-92.6617
 20
19.6201
 10
-92.6239
 20
19.6327
 10
-92.5859
 20
19.6447
 10
-92.5477
 20
19.656
 10
-92.5093
 20
19.6666
 10
-92.4708
 20
19.6766
 10
-92.4321
 20
19.6859
 10
-92.3932
 20
19.6945
 10
-92.3542
 20
19.7024
 10
-92.315
 20
19.7097
 10
-92.2757
 20
19.7163
 10
-92.2363
 20
19.7222
 10
-92.1968
 20
19.7274
 10
-92.1573
 20
19.7319
 10
-92.1176
 20
19.7357
 10
-92.0779
 20
19.7388
 10
-92.0382
 20
19.7412
 10
-91.9984
 20
19.743
 10
-91.9586
 20
19.744
 10
-91.9188
 20
19.7444
 10
-91.8789
 20
19.744
 10
-91.8391
 20
19.743
 10
-91.7993
 20
19.7412
 10
-91.7596
 20
19.7388
 10
-91.7199
 20
19.7357
 10
-91.6802
 20
19.7319
 10
-91.6407
 20
19.7274
 10
-91.6012
 20
19.7222
 10
-91.5618
 20
19.7163
 10
-91.5225
 20
19.7097
 10
-91.4833
 20
19.7024
 10
-91.4443
 20
19.6945
 10
-91.4054
 20
19.6859
 10
-91.3667
 20
19.6766
 10
-91.3282
 20
19.6666
 10
-91.2898
 20
19.656
 10
-91.2516
 20
19.6447
 10
-91.2136
 20
19.6327
 10
-91.1758
 20
19.6201
 10
-91.1383
 20
19.6068
 10
-91.101
 20
19.5928
 10
-91.0639
 20
19.5782
 10
-91.0272
 20
19.563
 10
-90.9906
 20
19.5471
 10
-90.9544
 20
19.5306
 10
-90.9184
 20
19.5134
 10
-90.8828
 20
19.4957
 10
-90.8475
 20
19.4773
 10
-90.8125
 20
19.4583
 10
-90.7778
 20
19.4387
 10
-90.7435
 20
19.4184
 10
-90.7095
 20
19.3976
 10
-90.676
 20
19.3762
 10
-90.6427
 20
19.3543
 10
-90.6099
 20
19.3317
 10
-90.5775
 20
19.3086
 10
-90.5455
 20
19.2849
 10
-90.5139
 20
19.2606
 10
-90.4827
 20
19.2358
 10
-90.452
 20
19.2105
 10
-90.4217
 20
19.1847
 10
-90.3919
 20
19.1583
 10
-90.3625
 20
19.1314
 10
-90.3336
 20
19.1039
 10
-90.3052
 20
19.076
 10
-90.2773
 20
19.0476
 10
-90.2499
 20
19.0187
 10
-90.223
 20
18.9894
 10
-90.1966
 20
18.9595
 10
-90.1707
 20
18.9293
 10
-90.1454
 20
18.8985
 10
-90.1206
 20
18.8674
 10
-90.0964
 20
18.8358
 10
-90.0727
 20
18.8038
 10
-90.0495
 20
18.7713
 10
-90.027
 20
18.7385
 10
-90.005
 20
18.7053
 10
-89.9836
 20
18.6717
 10
-89.9628
 20
18.6378
 10
-89.9426
 20
18.6034
 10
-89.923
 20
18.5688
 10
-89.904
 20
18.5338
 10
-89.8856
 20
18.4984
 10
-89.8678
 20
18.4628
 10
-89.8507
 20
18.4269
 10
-89.8342
 20
18.3906
 10
-89.8183
 20
18.3541
 10
-89.803
 20
18.3173
 10
-89.7884
 20
18.2802
 10
-89.7745
 20
18.2429
 10
-89.7612
 20
18.2054
 10
-89.7486
 20
18.1676
 10
-89.7366
 20
18.1297
 10
-89.7253
 20
18.0915
 10
-89.7146
 20
18.0531
 10
-89.7047
 20
18.0145
 10
-89.6954
 20
17.9758
 10
-89.6867
 20
17.9369
 10
-89.6788
 20
17.8979
 10
-89.6715
 20
17.8587
 10
-89.665
 20
17.8195
 10
-89.6591
 20
17.7801
 10
-89.6539
 20
17.7406
 10
-89.6494
 20
17.701
 10
-89.6456
 20
17.6614
 10
-89.6424
 20
17.6217
 10
-89.64
 20
17.5819
 10
-89.6383
 20
17.5421
 10
-89.6372
 20
17.5023
 10
-89.6369
 20
17.4625
 10
-89.6372
 20
17.4227
 10
-89.6383
 20
17.3829
 10
-89.64
 20
17.3431
 10
-89.6424
 20
17.3033
 10
-89.6456
 20
17.2636
 10
-89.6494
 20
17.224
 10
-89.6539
 20
17.1844
 10
-89.6591
 20
17.1449
 10
-89.665
 20
17.1055
 10
-89.6715
 20
17.0663
 10
-89.6788
 20
17.0271
 10
-89.6867
 20
16.9881
 10
-89.6954
 20
16.9492
 10
-89.7047
 20
16.9105
 10
-89.7146
 20
16.8719
 10
-89.7253
 20
16.8335
 10
-89.7366
 20
16.7953
 10
-89.7486
 20
16.7574
 10
-89.7612
 20
16.7196
 10
-89.7745
 20
16.6821
 10
-89.7884
 20
16.6448
 10
-89.803
 20
16.6077
 10
-89.8183
 20
16.5709
 10
-89.8342
 20
16.5344
 10
-89.8507
 20
16.4981
 10
-89.8678
 20
16.4622
 10
-89.8856
 20
16.4266
 10
-89.904
 20
16.3912
 10
-89.923
 20
16.3562
 10
-89.9426
 20
16.3216
 10
-89.9628
 20
16.2872
 10
-89.9836
 20
16.2533
 10
-90.005
 20
16.2197
 10
-90.027
 20
16.1865
 10
-90.0495
 20
16.1537
 10
-90.0727
 20
16.1212
 10
-90.0964
 20
16.0892
 10
-90.1206
 20
16.0576
 10
-90.1454
 20
16.0265
 10
-90.1707
 20
15.9957
 10
-90.1966
 20
15.9655
 10
-90.223
 20
15.9356
 10
-90.2499
 20
15.9063
 10
-90.2773
 20
15.8774
 10
-90.3052
 20
15.849
 10
-90.3336
 20
15.8211
 10
-90.3625
 20
15.7936
 10
-90.3919
 20
15.7667
 10
-90.4217
 20
15.7403
 10
-90.452
 20
15.7145
 10
-90.4827
 20
15.6892
 10
-90.5139
 20
15.6644
 10
-90.5455
 20
15.6401
 10
-90.5775
 20
15.6164
 10
-90.6099
 20
15.5933
 10
-90.6427
 20
15.5707
 10
-90.676
 20
15.5488
 10
-90.7095
 20
15.5274
 10
-90.7435
 20
15.5066
 10
-90.7778
 20
15.4863
 10
-90.8125
 20
15.4667
 10
-90.8475
 20
15.4477
 10
-90.8828
 20
15.4293
 10
-90.9184
 20
15.4116
 10
-90.9544
 20
15.3944
 10
-90.9906
 20
15.3779
 10
-91.0272
 20
15.362
 10
-91.0639
 20
15.3468
 10
-91.101
 20
15.3322
 10
-91.1383
 20
15.3182
 10
-91.1758
 20
15.3049
 10
-91.2136
 20
15.2923
 10
-91.2516
 20
15.2803
 10
-91.2898
 20
15.269
 10
-91.3282
 20
15.2584
 10
-91.3667
 20
15.2484
 10
-91.4054
 20
15.2391
 10
-91.4443
 20
15.2305
 10
-91.4833
 20
15.2226
 10
-91.5225
 20
15.2153
 10
-91.5618
 20
15.2087
 10
-91.6012
 20
15.2028
 10
-91.6407
 20
15.1976
 10
-91.6802
 20
15.1931
 10
-91.7199
 20
15.1893
 10
-91.7596
 20
15.1862
 10
-91.7993
 20
15.1838
 10
-91.8391
 20
15.182
 10
-91.8789
 20
15.181
 10
-91.9188
 20
15.1806
  0
LWPOLYLINE
100
AcDbEntity
  8
0
100
AcDbPolyline
 90
360
 70
1
 10
-113.773
 20
10.8152
 10
-113.799
 20
10.8159
 10
-113.825
 20
10.817
 10
-113.851
 20
10.8186
 10
-113.877
 20
10.8207
 10
-113.902
 20
10.8232
 10
-113.928
 20
10.8261
 10
-113.954
 20
10.8295
 10
-113.98
 20
10.8333
 10
-114.005
 20
10.8376
 10
-114.031
 20
10.8423
 10
-114.056
 20
10.8475
 10
-114.082
 20
10.8531
 10
-114.107
 20
10.8592
 10
-114.132
 20
10.8657
 10
-114.157
 20
10.8726
 10
-114.182
 20
10.88
 10
-114.207
 20
10.8878
 10
-114.231
 20
10.8961
 10
-114.256
 20
10.9047
 10
-114.28
 20
10.9138
 10
-114.304
 20
10.9234
 10
-114.328
 20
10.9333
 10
-114.352
 20
10.9437
 10
-114.376
 20
10.9544
 10
-114.399
 20
10.9656
 10
-114.422
 20
10.9772
 10
-114.446
 20
10.9892
 10
-114.468
 20
11.0016
 10
-114.491
 20
11.0144
 10
-114.513
 20
11.0276
 10
-114.535
 20
11.0411
 10
-114.557
 20
11.0551
 10
-114.579
 20
11.0694
 10
-114.6
 20
11.0841
 10
-114.622
 20
11.0992
 10
-114.642
 20
11.1147
 10
-114.663
 20
11.1305
 10
-114.683
 20
11.1466
 10
-114.703
 20
11.1632
 10
-114.723
 20
11.18
 10
-114.743
 20
11.1972
 10
-114.762
 20
11.2148
 10
-114.781
 20
11.2327
 10
-114.799
 20
11.2509
 10
-114.817
 20
11.2694
 10
-114.835
 20
11.2882
 10
-114.853
 20
11.3074
 10
-114.87
 20
11.3268
 10
-114.887
 20
11.3466
 10
-114.903
 20
11.3666
 10
-114.92
 20
11.3869
 10
-114.935
 20
11.4076
 10
-114.951
 20
11.4284
 10
-114.966
 20
11.4496
 10
-114.981
 20
11.471
 10
-114.995
 20
11.4926
 10
-115.009
 20
11.5145
 10
-115.022
 20
11.5367
 10
-115.036
 20
11.5591
 10
-115.048
 20
11.5817
 10
-115.061
 20
11.6045
 10
-115.073
 20
11.6275
 10
-115.084
 20
11.6508
 10
-115.096
 20
11.6742
 10
-115.106
 20
11.6979
 10
-115.117
 20
11.7217
 10
-115.127
 20
11.7457
 10
-115.136
 20
11.7698
 10
-115.145
 20
11.7942
 10
-115.154
 20
11.8186
 10
-115.162
 20
11.8433
 10
-115.17
 20
11.868
 10
-115.177
 20
11.8929
 10
-115.184
 20
11.918
 10
-115.191
 20
11.9431
 10
-115.197
 20
11.9684
 10
-115.202
 20
11.9937
 10
-115.208
 20
12.0192
 10
-115.212
 20
12.0447
 10
-115.217
 20
12.0703
 10
-115.221
 20
12.096
 10
-115.224
 20
12.1218
 10
-115.227
 20
12.1476
 10
-115.229
 20
12.1734
 10
-115.231
 20
12.1993
 10
-115.233
 20
12.2252
 10
-115.234
 20
12.2512
 10
-115.235
 20
12.2772
 10
-115.235
 20
12.3031
 10
-115.235
 20
12.3291
 10
-115.234
 20
12.3551
 10
-115.233
 20
12.381
 10
-115.231
 20
12.4069
 10
-115.229
 20
12.4328
 10
-115.227
 20
12.4587
 10
-115.224
 20
12.4845
 10
-115.221
 20
12.5102
 10
-115.217
 20
12.5359
 10
-115.212
 20
12.5615
 10
-115.208
 20
12.5871
 10
-115.202
 20
12.6125
 10
-115.197
 20
12.6379
 10
-115.191
 20
12.6631
 10
-115.184
 20
12.6883
 10
-115.177
 20
12.7133
 10
-115.17
 20
12.7382
 10
-115.162
 20
12.763
 10
-115.154
 20
12.7876
 10
-115.145
 20
12.8121
 10
-115.136
 20
12.8364
 10
-115.127
 20
12.8606
 10
-115.117
 20
12.8846
 10
-115.106
 20
12.9084
 10
-115.096
 20
12.932
 10
-115.084
 20
12.9555
 10
-115.073
 20
12.9787
 10
-115.061
 20
13.0018
 10
-115.048
 20
13.0246
 10
-115.036
 20
13.0472
 10
-115.022
 20
13.0696
 10
-115.009
 20
13.0917
 10
-114.995
 20
13.1136
 10
-114.981
 20
13.1353
 10
-114.966
 20
13.1567
 10
-114.951
 20
13.1778
 10
-114.935
 20
13.1987
 10
-114.92
 20
13.2193
 10
-114.903
 20
13.2396
 10
-114.887
 20
13.2597
 10
-114.87
 20
13.2794
 10
-114.853
 20
13.2989
 10
-114.835
 20
13.318
 10
-114.817
 20
13.3369
 10
-114.799
 20
13.3554
 10
-114.781
 20
13.3736
 10
-114.762
 20
13.3915
 10
-114.743
 20
13.409
 10
-114.723
 20
13.4262
 10
-114.703
 20
13.4431
 10
-114.683
 20
13.4596
 10
-114.663
 20
13.4758
 10
-114.642
 20
13.4916
 10
-114.622
 20
13.507
 10
-114.6
 20
13.5221
 10
-114.579
 20
13.5368
 10
-114.557
 20
13.5512
 10
-114.535
 20
13.5651
 10
-114.513
 20
13.5787
 10
-114.491
 20
13.5919
 10
-114.468
 20
13.6047
 10
-114.446
 20
13.6171
 10
-114.422
 20
13.6291
 10
-114.399
 20
13.6406
 10
-114.376
 20
13.6518
 10
-114.352
 20
13.6626
 10
-114.328
 20
13.6729
 10
-114.304
 20
13.6829
 10
-114.28
 20
13.6924
 10
-114.256
 20
13.7015
 10
-114.231
 20
13.7102
 10
-114.207
 20
13.7184
 10
-114.182
 20
13.7262
 10
-114.157
 20
13.7336
 10
-114.132
 20
13.7405
 10
-114.107
 20
13.747
 10
-114.082
 20
13.7531
 10
-114.056
 20
13.7587
 10
-114.031
 20
13.7639
 10
-114.005
 20
13.7686
 10
-113.98
 20
13.7729
 10
-113.954
 20
13.7768
 10
-113.928
 20
13.7802
 10
-113.902
 20
13.7831
 10
-113.877
 20
13.7856
 10
-113.851
 20
13.7876
 10
-113.825
 20
13.7892
 10
-113.799
 20
13.7903
 10
-113.773
 20
13.791
 10
-113.747
 20
13.7912
 10
-113.721
 20
13.791
 10
-113.695
 20
13.7903
 10
-113.669
 20
13.7892
 10
-113.643
 20
13.7876
 10
-113.617
 20
13.7856
 10
-113.591
 20
13.7831
 10
-113.566
 20
13.7802
 10
-113.54
 20
13.7768
 10
-113.514
 20
13.7729
 10
-113.488
 20
13.7686
 10
-113.463
 20
13.7639
 10
-113.437
 20
13.7587
 10
-113.412
 20
13.7531
 10
-113.387
 20
13.747
 10
-113.362
 20
13.7405
 10
-113.337
 20
13.7336
 10
-113.312
 20
13.7262
 10
-113.287
 20
13.7184
 10
-113.262
 20
13.7102
 10
-113.238
 20
13.7015
 10
-113.214
 20
13.6924
 10
-113.189
 20
13.6829
 10
-113.165
 20
13.6729
 10
-113.142
 20
13.6626
 10
-113.118
 20
13.6518
 10
-113.095
 20
13.6406
 10
-113.071
 20
13.6291
 10
-113.048
 20
13.6171
 10
-113.025
 20
13.6047
 10
-113.003
 20
13.5919
 10
-112.98
 20
13.5787
 10
-112.958
 20
13.5651
 10
-112.936
 20
13.5512
 10
-112.915
 20
13.5368
 10
-112.893
 20
13.5221
 10
-112.872
 20
13.507
 10
-112.851
 20
13.4916
 10
-112.831
 20
13.4758
 10
-112.81
 20
13.4596
 10
-112.79
 20
13.4431
 10
-112.771
 20
13.4262
 10
-112.751
 20
13.409
 10
-112.732
 20
13.3915
 10
-112.713
 20
13.3736
 10
-112.695
 20
13.3554
 10
-112.676
 20
13.3369
 10
-112.659
 20
13.318
 10
-112.641
 20
13.2989
 10
-112.624
 20
13.2794
 10
-112.607
 20
13.2597
 10
-112.59
 20
13.2396
 10
-112.574
 20
13.2193
 10
-112.558
 20
13.1987
 10
-112.543
 20
13.1778
 10
-112.528
 20
13.1567
 10
-112.513
 20
13.1353
 10
-112.499
 20
13.1136
 10
-112.485
 20
13.0917
 10
-112.471
 20
13.0696
 10
-112.458
 20
13.0472
 10
-112.445
 20
13.0246
 10
-112.433
 20
13.0018
 10
-112.421
 20
12.9787
 10
-112.409
 20
12.9555
 10
-112.398
 20
12.932
 10
-112.387
 20
12.9084
 10
-112.377
 20
12.8846
 10
-112.367
 20
12.8606
 10
-112.358
 20
12.8364
 10
-112.348
 20
12.8121
 10
-112.34
 20
12.7876
 10
-112.332
 20
12.763
 10
-112.324
 20
12.7382
 10
-112.316
 20
12.7133
 10
-112.309
 20
12.6883
 10
-112.303
 20
12.6631
 10
-112.297
 20
12.6379
 10
-112.291
 20
12.6125
 10
-112.286
 20
12.5871
 10
-112.281
 20
12.5615
 10
-112.277
 20
12.5359
 10
-112.273
 20
12.5102
 10
-112.27
 20
12.4845
 10
-112.267
 20
12.4587
 10
-112.264
 20
12.4328
 10
-112.262
 20
12.4069
 10
-112.261
 20
12.381
 10
-112.26
 20
12.3551
 10
-112.259
 20
12.3291
 10
-112.259
 20
12.3031
 10
-112.259
 20
12.2772
 10
-112.26
 20
12.2512
 10
-112.261
 20
12.2252
 10
-112.262
 20
12.1993
 10
-112.264
 20
12.1734
 10
-112.267
 20
12.1476
 10
-112.27
 20
12.1218
 10
-112.273
 20
12.096
 10
-112.277
 20
12.0703
 10
-112.281
 20
12.0447
 10
-112.286
 20
12.0192
 10
-112.291
 20
11.9937
 10
-112.297
 20
11.9684
 10
-112.303
 20
11.9431
 10
-112.309
 20
11.918
 10
-112.316
 20
11.8929
 10
-112.324
 20
11.868
 10
-112.332
 20
11.8433
 10
-112.34
 20
11.8186
 10
-112.348
 20
11.7942
 10
-112.358
 20
11.7698
 10
-112.367
 20
11.7457
 10
-112.377
 20
11.7217
 10
-112.387
 20
11.6979
 10
-112.398
 20
11.6742
 10
-112.409
 20
11.6508
 10
-112.421
 20
11.6275
 10
-112.433
 20
11.6045
 10
-112.445
 20
11.5817
 10
-112.458
 20
11.5591
 10
-112.471
 20
11.5367
 10
-112.485
 20
11.5145
 10
-112.499
 20
11.4926
 10
-112.513
 20
11.471
 10
-112.528
 20
11.4496
 10
-112.543
 20
11.4284
 10
-112.558
 20
11.4076
 10
-112.574
 20
11.3869
 10
-112.59
 20
11.3666
 10
-112.607
 20
11.3466
 10
-112.624
 20
11.3268
 10
-112.641
 20
11.3074
 10
-112.659
 20
11.2882
 10
-112.676
 20
11.2694
 10
-112.695
 20
11.2509
 10
-112.713
 20
11.2327
 10
-112.732
 20
11.2148
 10
-112.751
 20
11.1972
 10
-112.771
 20
11.18
 10
-112.79
 20
11.1632
 10
-112.81
 20
11.1466
 10
-112.831
 20
11.1305
 10
-112.851
 20
11.1147
 10
-112.872
 20
11.0992
 10
-112.893
 20
11.0841
 10
-112.915
 20
11.0694
 10
-112.936
 20
11.0551
 10
-112.958
 20
11.0411
 10
-112.98
 20
11.0276
 10
-113.003
 20
11.0144
 10
-113.025
 20
11.0016
 10
-113.048
 20
10.9892
 10
-113.071
 20
10.9772
 10
-113.095
 20
10.9656
 10
-113.118
 20
10.9544
 10
-113.142
 20
10.9437
 10
-113.165
 20
10.9333
 10
-113.189
 20
10.9234
 10
-113.214
 20
10.9138
 10
-113.238
 20
10.9047
 10
-113.262
 20
10.8961
 10
-113.287
 20
10.8878
 10
-113.312
 20
10.88
 10
-113.337
 20
10.8726
 10
-113.362
 20
10.8657
 10
-113.387
 20
10.8592
 10
-113.412
 20
10.8531
 10
-113.437
 20
10.8475
 10
-113.463
 20
10.8423
 10
-113.488
 20
10.8376
 10
-113.514
 20
10.8333
 10
-113.54
 20
10.8295
 10
-113.566
 20
10.8261
 10
-113.591
 20
10.8232
 10
-113.617
 20
10.8207
 10
-113.643
 20
10.8186
 10
-113.669
 20
10.817
 10
-113.695
 20
10.8159
 10
-113.721
 20
10.8152
 10
-113.747
 20
10.815
  0
LWPOLYLINE
100
AcDbEntity
  8
0
100
AcDbPolyline
 90
360
 70
1
 10
-56.2294
 20
3.86995
 10
-56.2589
 20
3.87072
 10
-56.2883
 20
3.872
 10
-56.3176
 20
3.8738
 10
-56.347
 20
3.87611
 10
-56.3763
 20
3.87893
 10
-56.4055
 20
3.88226
 10
-56.4347
 20
3.8861
 10
-56.4638
 20
3.89045
 10
-56.4929
 20
3.89531
 10
-56.5218
 20
3.90068
 10
-56.5507
 20
3.90655
 10
-56.5794
 20
3.91292
 10
-56.608
 20
3.91979
 10
-56.6365
 20
3.92716
 10
-56.6649
 20
3.93502
 10
-56.6931
 20
3.94338
 10
-56.7212
 20
3.95224
 10
-56.7491
 20
3.96158
 10
-56.7768
 20
3.9714
 10
-56.8044
 20
3.98171
 10
-56.8318
 20
3.9925
 10
-56.859
 20
4.00376
 10
-56.886
 20
4.0155
 10
-56.9128
 20
4.02771
 10
-56.9393
 20
4.04038
 10
-56.9657
 20
4.05351
 10
-56.9918
 20
4.06711
 10
-57.0177
 20
4.08115
 10
-57.0433
 20
4.09565
 10
-57.0686
 20
4.11059
 10
-57.0937
 20
4.12597
 10
-57.1186
 20
4.14178
 10
-57.1431
 20
4.15803
 10
-57.1674
 20
4.1747
 10
-57.1913
 20
4.19179
 10
-57.215
 20
4.2093
 10
-57.2384
 20
4.22722
 10
-57.2614
 20
4.24555
 10
-57.2841
 20
4.26427
 10
-57.3065
 20
4.28339
 10
-57.3285
 20
4.30289
 10
-57.3502
 20
4.32278
 10
-57.3716
 20
4.34304
 10
-57.3926
 20
4.36367
 10
-57.4132
 20
4.38467
 10
-57.4335
 20
4.40602
 10
-57.4534
 20
4.42772
 10
-57.4729
 20
4.44977
 10
-57.492
 20
4.47215
 10
-57.5107
 20
4.49486
 10
-57.529
 20
4.5179
 10
-57.5469
 20
4.54125
 10
-57.5645
 20
4.56491
 10
-57.5815
 20
4.58888
 10
-57.5982
 20
4.61314
 10
-57.6145
 20
4.63768
 10
-57.6303
 20
4.66251
 10
-57.6457
 20
4.68761
 10
-57.6606
 20
4.71297
 10
-57.6751
 20
4.73859
 10
-57.6891
 20
4.76446
 10
-57.7027
 20
4.79057
 10
-57.7159
 20
4.81691
 10
-57.7285
 20
4.84348
 10
-57.7407
 20
4.87026
 10
-57.7525
 20
4.89726
 10
-57.7638
 20
4.92445
 10
-57.7745
 20
4.95184
 10
-57.7848
 20
4.97941
 10
-57.7947
 20
5.00716
 10
-57.804
 20
5.03507
 10
-57.8129
 20
5.06315
 10
-57.8212
 20
5.09137
 10
-57.8291
 20
5.11974
 10
-57.8365
 20
5.14823
 10
-57.8433
 20
5.17686
 10
-57.8497
 20
5.20559
 10
-57.8556
 20
5.23444
 10
-57.8609
 20
5.26338
 10
-57.8658
 20
5.29241
 10
-57.8701
 20
5.32153
 10
-57.874
 20
5.35071
 10
-57.8773
 20
5.37996
 10
-57.8801
 20
5.40926
 10
-57.8825
 20
5.4386
 10
-57.8842
 20
5.46798
 10
-57.8855
 20
5.49739
 10
-57.8863
 20
5.52682
 10
-57.8866
 20
5.55625
 10
-57.8863
 20
5.58568
 10
-57.8855
 20
5.61511
 10
-57.8842
 20
5.64452
 10
-57.8825
 20
5.6739
 10
-57.8801
 20
5.70324
 10
-57.8773
 20
5.73254
 10
-57.874
 20
5.76179
 10
-57.8701
 20
5.79097
 10
-57.8658
 20
5.82009
 10
-57.8609
 20
5.84912
 10
-57.8556
 20
5.87806
 10
-57.8497
 20
5.90691
 10
-57.8433
 20
5.93564
 10
-57.8365
 20
5.96427
 10
-57.8291
 20
5.99276
 10
-57.8212
 20
6.02113
 10
-57.8129
 20
6.04935
 10
-57.804
 20
6.07743
 10
-57.7947
 20
6.10534
 10
-57.7848
 20
6.13309
 10
-57.7745
 20
6.16066
 10
-57.7638
 20
6.18805
 10
-57.7525
 20
6.21524
 10
-57.7407
 20
6.24224
 10
-57.7285
 20
6.26902
 10
-57.7159
 20
6.29559
 10
-57.7027
 20
6.32193
 10
-57.6891
 20
6.34804
 10
-57.6751
 20
6.37391
 10
-57.6606
 20
6.39953
 10
-57.6457
 20
6.42489
 10
-57.6303
 20
6.44999
 10
-57.6145
 20
6.47482
 10
-57.5982
 20
6.49936
 10
-57.5815
 20
6.52362
 10
-57.5645
 20
6.54759
 10
-57.5469
 20
6.57125
 10
-57.529
 20
6.5946
 10
-57.5107
 20
6.61764
 10
-57.492
 20
6.64035
 10
-57.4729
 20
6.66273
 10
-57.4534
 20
6.68478
 10
-57.4335
 20
6.70648
 10
-57.4132
 20
6.72783
 10
-57.3926
 20
6.74883
 10
-57.3716
 20
6.76946
 10
-57.3502
 20
6.78972
 10
-57.3285
 20
6.80961
 10
-57.3065
 20
6.82911
 10
-57.2841
 20
6.84823
 10
-57.2614
 20
6.86695
 10
-57.2384
 20
6.88528
 10
-57.215
 20
6.9032
 10
-57.1913
 20
6.92071
 10
-57.1674
 20
6.9378
 10
-57.1431
 20
6.95447
 10
-57.1186
 20
6.97072
 10
-57.0937
 20
6.98653
 10
-57.0686
 20
7.00191
 10
-57.0433
 20
7.01685
 10
-57.0177
 20
7.03135
 10
-56.9918
 20
7.04539
 10
-56.9657
 20
7.05899
 10
-56.9393
 20
7.07212
 10
-56.9128
 20
7.08479
 10
-56.886
 20
7.097
 10
-56.859
 20
7.10874
 10
-56.8318
 20
7.12
 10
-56.8044
 20
7.13079
 10
-56.7768
 20
7.1411
 10
-56.7491
 20
7.15092
 10
-56.7212
 20
7.16026
 10
-56.6931
 20
7.16912
 10
-56.6649
 20
7.17748
 10
-56.6365
 20
7.18534
 10
-56.608
 20
7.19271
 10
-56.5794
 20
7.19958
 10
-56.5507
 20
7.20595
 10
-56.5218
 20
7.21182
 10
-56.4929
 20
7.21719
 10
-56.4638
 20
7.22205
 10
-56.4347
 20
7.2264
 10
-56.4055
 20
7.23024
 10
-56.3763
 20
7.23357
 10
-56.347
 20
7.23639
 10
-56.3176
 20
7.2387
 10
-56.2883
 20
7.2405
 10
-56.2589
 20
7.24178
 10
-56.2294
 20
7.24255
 10
-56.2
 20
7.24281
 10
-56.1706
 20
7.24255
 10
-56.1411
 20
7.24178
 10
-56.1117
 20
7.2405
 10
-56.0824
 20
7.2387
 10
-56.053
 20
7.23639
 10
-56.0237
 20
7.23357
 10
-55.9945
 20
7.23024
 10
-55.9653
 20
7.2264
 10
-55.9362
 20
7.22205
 10
-55.9071
 20
7.21719
 10
-55.8782
 20
7.21182
 10
-55.8493
 20
7.20595
 10
-55.8206
 20
7.19958
 10
-55.792
 20
7.19271
 10
-55.7635
 20
7.18534
 10
-55.7351
 20
7.17748
 10
-55.7069
 20
7.16912
 10
-55.6788
 20
7.16026
 10
-55.6509
 20
7.15092
 10
-55.6232
 20
7.1411
 10
-55.5956
 20
7.13079
 10
-55.5682
 20
7.12
 10
-55.541
 20
7.10874
 10
-55.514
 20
7.097
 10
-55.4872
 20
7.08479
 10
-55.4607
 20
7.07212
 10
-55.4343
 20
7.05899
 10
-55.4082
 20
7.04539
 10
-55.3823
 20
7.03135
 10
-55.3567
 20
7.01685
 10
-55.3314
 20
7.00191
 10
-55.3063
 20
6.98653
 10
-55.2814
 20
6.97072
 10
-55.2569
 20
6.95447
 10
-55.2326
 20
6.9378
 10
-55.2087
 20
6.92071
 10
-55.185
 20
6.9032
 10
-55.1616
 20
6.88528
 10
-55.1386
 20
6.86695
 10
-55.1159
 20
6.84823
 10
-55.0935
 20
6.82911
 10
-55.0715
 20
6.80961
 10
-55.0498
 20
6.78972
 10
-55.0284
 20
6.76946
 10
-55.0074
 20
6.74883
 10
-54.9868
 20
6.72783
 10
-54.9665
 20
6.70648
 10
-54.9466
 20
6.68478
 10
-54.9271
 20
6.66273
 10
-54.908
 20
6.64035
 10
-54.8893
 20
6.61764
 10
-54.871
 20
6.5946
 10
-54.8531
 20
6.57125
 10
-54.8355
 20
6.54759
 10
-54.8185
 20
6.52362
 10
-54.8018
 20
6.49936
 10
-54.7855
 20
6.47482
 10
-54.7697
 20
6.44999
 10
-54.7543
 20
6.42489
 10
-54.7394
 20
6.39953
 10
-54.7249
 20
6.37391
 10
-54.7109
 20
6.34804
 10
-54.6973
 20
6.32193
 10
-54.6841
 20
6.29559
 10
-54.6715
 20
6.26902
 10
-54.6593
 20
6.24224
 10
-54.6475
 20
6.21524
 10
-54.6362
 20
6.18805
 10
-54.6255
 20
6.16066
 10
-54.6152
 20
6.13309
 10
-54.6053
 20
6.10534
 10
-54.596
 20
6.07743
 10
-54.5871
 20
6.04935
 10
-54.5788
 20
6.02113
 10
-54.5709
 20
5.99276
 10
-54.5635
 20
5.96427
 10
-54.5567
 20
5.93564
 10
-54.5503
 20
5.90691
 10
-54.5444
 20
5.87806
 10
-54.5391
 20
5.84912
 10
-54.5342
 20
5.82009
 10
-54.5299
 20
5.79097
 10
-54.526
 20
5.76179
 10
-54.5227
 20
5.73254
 10
-54.5199
 20
5.70324
 10
-54.5175
 20
5.6739
 10
-54.5158
 20
5.64452
 10
-54.5145
 20
5.61511
 10
-54.5137
 20
5.58568
 10
-54.5134
 20
5.55625
 10
-54.5137
 20
5.52682
 10
-54.5145
 20
5.49739
 10
-54.5158
 20
5.46798
 10
-54.5175
 20
5.4386
 10
-54.5199
 20
5.40926
 10
-54.5227
 20
5.37996
 10
-54.526
 20
5.35071
 10
-54.5299
 20
5.32153
 10
-54.5342
 20
5.29241
 10
-54.5391
 20
5.26338
 10
-54.5444
 20
5.23444
 10
-54.5503
 20
5.20559
 10
-54.5567
 20
5.17686
 10
-54.5635
 20
5.14823
 10
-54.5709
 20
5.11974
 10
-54.5788
 20
5.09137
 10
-54.5871
 20
5.06315
 10
-54.596
 20
5.03507
 10
-54.6053
 20
5.00716
 10
-54.6152
 20
4.97941
 10
-54.6255
 20
4.95184
 10
-54.6362
 20
4.92445
 10
-54.6475
 20
4.89726
 10
-54.6593
 20
4.87026
 10
-54.6715
 20
4.84348
 10
-54.6841
 20
4.81691
 10
-54.6973
 20
4.79057
 10
-54.7109
 20
4.76446
 10
-54.7249
 20
4.73859
 10
-54.7394
 20
4.71297
 10
-54.7543
 20
4.68761
 10
-54.7697
 20
4.66251
 10
-54.7855
 20
4.63768
 10
-54.8018
 20
4.61314
 10
-54.8185
 20
4.58888
 10
-54.8355
 20
4.56491
 10
-54.8531
 20
4.54125
 10
-54.871
 20
4.5179
 10
-54.8893
 20
4.49486
 10
-54.908
 20
4.47215
 10
-54.9271
 20
4.44977
 10
-54.9466
 20
4.42772
 10
-54.9665
 20
4.40602
 10
-54.9868
 20
4.38467
 10
-55.0074
 20
4.36367
 10
-55.0284
 20
4.34304
 10
-55.0498
 20
4.32278
 10
-55.0715
 20
4.30289
 10
-55.0935
 20
4.28339
 10
-55.1159
 20
4.26427
 10
-55.1386
 20
4.24555
 10
-55.1616
 20
4.22722
 10
-55.185
 20
4.2093
 10
-55.2087
 20
4.19179
 10
-55.2326
 20
4.1747
 10
-55.2569
 20
4.15803
 10
-55.2814
 20
4.14178
 10
-55.3063
 20
4.12597
 10
-55.3314
 20
4.11059
 10
-55.3567
 20
4.09565
 10
-55.3823
 20
4.08115
 10
-55.4082
 20
4.06711
 10
-55.4343
 20
4.05351
 10
-55.4607
 20
4.04038
 10
-55.4872
 20
4.02771
 10
-55.514
 20
4.0155
 10
-55.541
 20
4.00376
 10
-55.5682
 20
3.9925
 10
-55.5956
 20
3.98171
 10
-55.6232
 20
3.9714
 10
-55.6509
 20
3.96158
 10
-55.6788
 20
3.95224
 10
-55.7069
 20
3.94338
 10
-55.7351
 20
3.93502
 10
-55.7635
 20
3.92716
 10
-55.792
 20
3.91979
 10
-55.8206
 20
3.91292
 10
-55.8493
 20
3.90655
 10
-55.8782
 20
3.90068
 10
-55.9071
 20
3.89531
 10
-55.9362
 20
3.89045
 10
-55.9653
 20
3.8861
 10
-55.9945
 20
3.88226
 10
-56.0237
 20
3.87893
 10
-56.053
 20
3.87611
 10
-56.0824
 20
3.8738
 10
-56.1117
 20
3.872
 10
-56.1411
 20
3.87072
 10
-56.1706
 20
3.86995
 10
-56.2
 20
3.86969
  0
LWPOLYLINE
100
AcDbEntity
  8
0
100
AcDbPolyline
 90
360
 70
1
 10
-99.4784
 20
2.08392
 10
-99.4975
 20
2.08442
 10
-99.5165
 20
2.08525
 10
-99.5355
 20
2.08641
 10
-99.5545
 20
2.08791
 10
-99.5734
 20
2.08973
 10
-99.5924
 20
2.09189
 10
-99.6112
 20
2.09437
 10
-99.6301
 20
2.09719
 10
-99.6489
 20
2.10033
 10
-99.6676
 20
2.1038
 10
-99.6863
 20
2.1076
 10
-99.7049
 20
2.11172
 10
-99.7234
 20
2.11617
 10
-99.7418
 20
2.12094
 10
-99.7602
 20
2.12603
 10
-99.7784
 20
2.13143
 10
-99.7966
 20
2.13716
 10
-99.8147
 20
2.14321
 10
-99.8326
 20
2.14956
 10
-99.8504
 20
2.15623
 10
-99.8682
 20
2.16321
 10
-99.8858
 20
2.1705
 10
-99.9032
 20
2.1781
 10
-99.9206
 20
2.18599
 10
-99.9377
 20
2.19419
 10
-99.9548
 20
2.20269
 10
-99.9717
 20
2.21149
 10
-99.9884
 20
2.22057
 10
-100.005
 20
2.22995
 10
-100.021
 20
2.23962
 10
-100.038
 20
2.24957
 10
-100.054
 20
2.2598
 10
-100.07
 20
2.27031
 10
-100.085
 20
2.2811
 10
-100.101
 20
2.29216
 10
-100.116
 20
2.30349
 10
-100.131
 20
2.31509
 10
-100.146
 20
2.32694
 10
-100.161
 20
2.33906
 10
-100.175
 20
2.35143
 10
-100.19
 20
2.36405
 10
-100.204
 20
2.37691
 10
-100.217
 20
2.39002
 10
-100.231
 20
2.40337
 10
-100.244
 20
2.41696
 10
-100.257
 20
2.43077
 10
-100.27
 20
2.44481
 10
-100.283
 20
2.45908
 10
-100.295
 20
2.47356
 10
-100.307
 20
2.48826
 10
-100.319
 20
2.50316
 10
-100.331
 20
2.51827
 10
-100.342
 20
2.53358
 10
-100.353
 20
2.54909
 10
-100.364
 20
2.56478
 10
-100.375
 20
2.58066
 10
-100.385
 20
2.59673
 10
-100.395
 20
2.61297
 10
-100.404
 20
2.62938
 10
-100.414
 20
2.64595
 10
-100.423
 20
2.66269
 10
-100.432
 20
2.67958
 10
-100.44
 20
2.69663
 10
-100.448
 20
2.71382
 10
-100.456
 20
2.73115
 10
-100.464
 20
2.74862
 10
-100.471
 20
2.76621
 10
-100.478
 20
2.78393
 10
-100.485
 20
2.80177
 10
-100.491
 20
2.81972
 10
-100.497
 20
2.83779
 10
-100.503
 20
2.85595
 10
-100.508
 20
2.87421
 10
-100.513
 20
2.89256
 10
-100.518
 20
2.911
 10
-100.523
 20
2.92952
 10
-100.527
 20
2.94812
 10
-100.531
 20
2.96678
 10
-100.534
 20
2.98551
 10
-100.537
 20
3.00429
 10
-100.54
 20
3.02313
 10
-100.542
 20
3.04201
 10
-100.545
 20
3.06093
 10
-100.546
 20
3.07989
 10
-100.548
 20
3.09888
 10
-100.549
 20
3.11789
 10
-100.55
 20
3.13692
 10
-100.55
 20
3.15596
 10
-100.551
 20
3.175
 10
-100.55
 20
3.19404
 10
-100.55
 20
3.21308
 10
-100.549
 20
3.23211
 10
-100.548
 20
3.25112
 10
-100.546
 20
3.27011
 10
-100.545
 20
3.28907
 10
-100.542
 20
3.30799
 10
-100.54
 20
3.32687
 10
-100.537
 20
3.34571
 10
-100.534
 20
3.36449
 10
-100.531
 20
3.38322
 10
-100.527
 20
3.40188
 10
-100.523
 20
3.42048
 10
-100.518
 20
3.439
 10
-100.513
 20
3.45744
 10
-100.508
 20
3.47579
 10
-100.503
 20
3.49405
 10
-100.497
 20
3.51221
 10
-100.491
 20
3.53028
 10
-100.485
 20
3.54823
 10
-100.478
 20
3.56607
 10
-100.471
 20
3.58379
 10
-100.464
 20
3.60138
 10
-100.456
 20
3.61885
 10
-100.448
 20
3.63618
 10
-100.44
 20
3.65337
 10
-100.432
 20
3.67042
 10
-100.423
 20
3.68731
 10
-100.414
 20
3.70405
 10
-100.404
 20
3.72062
 10
-100.395
 20
3.73703
 10
-100.385
 20
3.75327
 10
-100.375
 20
3.76934
 10
-100.364
 20
3.78522
 10
-100.353
 20
3.80091
 10
-100.342
 20
3.81642
 10
-100.331
 20
3.83173
 10
-100.319
 20
3.84684
 10
-100.307
 20
3.86174
 10
-100.295
 20
3.87644
 10
-100.283
 20
3.89092
 10
-100.27
 20
3.90519
 10
-100.257
 20
3.91923
 10
-100.244
 20
3.93304
 10
-100.231
 20
3.94663
 10
-100.217
 20
3.95998
 10
-100.204
 20
3.97309
 10
-100.19
 20
3.98595
 10
-100.175
 20
3.99857
 10
-100.161
 20
4.01094
 10
-100.146
 20
4.02306
 10
-100.131
 20
4.03491
 10
-100.116
 20
4.04651
 10
-100.101
 20
4.05784
 10
-100.085
 20
4.0689
 10
-100.07
 20
4.07969
 10
-100.054
 20
4.0902
 10
-100.038
 20
4.10043
 10
-100.021
 20
4.11038
 10
-100.005
 20
4.12005
 10
-99.9884
 20
4.12943
 10
-99.9717
 20
4.13851
 10
-99.9548
 20
4.14731
 10
-99.9377
 20
4.15581
 10
-99.9206
 20
4.16401
 10
-99.9032
 20
4.1719
 10
-99.8858
 20
4.1795
 10
-99.8682
 20
4.18679
 10
-99.8504
 20
4.19377
 10
-99.8326
 20
4.20044
 10
-99.8147
 20
4.20679
 10
-99.7966
 20
4.21284
 10
-99.7784
 20
4.21857
 10
-99.7602
 20
4.22397
 10
-99.7418
 20
4.22906
 10
-99.7234
 20
4.23383
 10
-99.7049
 20
4.23828
 10
-99.6863
 20
4.2424
 10
-99.6676
 20
4.2462
 10
-99.6489
 20
4.24967
 10
-99.6301
 20
4.25281
 10
-99.6112
 20
4.25563
 10
-99.5924
 20
4.25811
 10
-99.5734
 20
4.26027
 10
-99.5545
 20
4.26209
 10
-99.5355
 20
4.26359
 10
-99.5165
 20
4.26475
 10
-99.4975
 20
4.26558
 10
-99.4784
 20
4.26608
 10
-99.4594
 20
4.26625
 10
-99.4403
 20
4.26608
 10
-99.4213
 20
4.26558
 10
-99.4023
 20
4.26475
 10
-99.3833
 20
4.26359
 10
-99.3643
 20
4.26209
 10
-99.3453
 20
4.26027
 10
-99.3264
 20
4.25811
 10
-99.3075
 20
4.25563
 10
-99.2887
 20
4.25281
 10
-99.2699
 20
4.24967
 10
-99.2512
 20
4.2462
 10
-99.2325
 20
4.2424
 10
-99.2139
 20
4.23828
 10
-99.1954
 20
4.23383
 10
-99.1769
 20
4.22906
 10
-99.1586
 20
4.22397
 10
-99.1403
 20
4.21857
 10
-99.1222
 20
4.21284
 10
-99.1041
 20
4.20679
 10
-99.0861
 20
4.20044
 10
-99.0683
 20
4.19377
 10
-99.0506
 20
4.18679
 10
-99.033
 20
4.1795
 10
-99.0155
 20
4.1719
 10
-98.9982
 20
4.16401
 10
-98.981
 20
4.15581
 10
-98.964
 20
4.14731
 10
-98.9471
 20
4.13851
 10
-98.9303
 20
4.12943
 10
-98.9138
 20
4.12005
 10
-98.8973
 20
4.11038
 10
-98.8811
 20
4.10043
 10
-98.865
 20
4.0902
 10
-98.8492
 20
4.07969
 10
-98.8335
 20
4.0689
 10
-98.818
 20
4.05784
 10
-98.8026
 20
4.04651
 10
-98.7875
 20
4.03491
 10
-98.7726
 20
4.02306
 10
-98.7579
 20
4.01094
 10
-98.7435
 20
3.99857
 10
-98.7292
 20
3.98595
 10
-98.7151
 20
3.97309
 10
-98.7013
 20
3.95998
 10
-98.6877
 20
3.94663
 10
-98.6744
 20
3.93304
 10
-98.6613
 20
3.91923
 10
-98.6484
 20
3.90519
 10
-98.6358
 20
3.89092
 10
-98.6234
 20
3.87644
 10
-98.6113
 20
3.86174
 10
-98.5995
 20
3.84684
 10
-98.5879
 20
3.83173
 10
-98.5765
 20
3.81642
 10
-98.5655
 20
3.80091
 10
-98.5547
 20
3.78522
 10
-98.5442
 20
3.76934
 10
-98.5339
 20
3.75327
 10
-98.524
 20
3.73703
 10
-98.5143
 20
3.72062
 10
-98.5049
 20
3.70405
 10
-98.4959
 20
3.68731
 10
-98.4871
 20
3.67042
 10
-98.4786
 20
3.65337
 10
-98.4704
 20
3.63618
 10
-98.4625
 20
3.61885
 10
-98.4549
 20
3.60138
 10
-98.4476
 20
3.58379
 10
-98.4406
 20
3.56607
 10
-98.4339
 20
3.54823
 10
-98.4276
 20
3.53028
 10
-98.4215
 20
3.51221
 10
-98.4158
 20
3.49405
 10
-98.4104
 20
3.47579
 10
-98.4053
 20
3.45744
 10
-98.4005
 20
3.439
 10
-98.3961
 20
3.42048
 10
-98.392
 20
3.40188
 10
-98.3882
 20
3.38322
 10
-98.3847
 20
3.36449
 10
-98.3816
 20
3.34571
 10
-98.3787
 20
3.32687
 10
-98.3763
 20
3.30799
 10
-98.3741
 20
3.28907
 10
-98.3723
 20
3.27011
 10
-98.3708
 20
3.25112
 10
-98.3696
 20
3.23211
 10
-98.3688
 20
3.21308
 10
-98.3683
 20
3.19404
 10
-98.3681
 20
3.175
 10
-98.3683
 20
3.15596
 10
-98.3688
 20
3.13692
 10
-98.3696
 20
3.11789
 10
-98.3708
 20
3.09888
 10
-98.3723
 20
3.07989
 10
-98.3741
 20
3.06093
 10
-98.3763
 20
3.04201
 10
-98.3787
 20
3.02313
 10
-98.3816
 20
3.00429
 10
-98.3847
 20
2.98551
 10
-98.3882
 20
2.96678
 10
-98.392
 20
2.94812
 10
-98.3961
 20
2.92952
 10
-98.4005
 20
2.911
 10
-98.4053
 20
2.89256
 10
-98.4104
 20
2.87421
 10
-98.4158
 20
2.85595
 10
-98.4215
 20
2.83779
 10
-98.4276
 20
2.81972
 10
-98.4339
 20
2.80177
 10
-98.4406
 20
2.78393
 10
-98.4476
 20
2.76621
 10
-98.4549
 20
2.74862
 10
-98.4625
 20
2.73115
 10
-98.4704
 20
2.71382
 10
-98.4786
 20
2.69663
 10
-98.4871
 20
2.67958
 10
-98.4959
 20
2.66269
 10
-98.5049
 20
2.64595
 10
-98.5143
 20
2.62938
 10
-98.524
 20
2.61297
 10
-98.5339
 20
2.59673
 10
-98.5442
 20
2.58066
 10
-98.5547
 20
2.56478
 10
-98.5655
 20
2.54909
 10
-98.5765
 20
2.53358
 10
-98.5879
 20
2.51827
 10
-98.5995
 20
2.50316
 10
-98.6113
 20
2.48826
 10
-98.6234
 20
2.47356
 10
-98.6358
 20
2.45908
 10
-98.6484
 20
2.44481
 10
-98.6613
 20
2.43077
 10
-98.6744
 20
2.41696
 10
-98.6877
 20
2.40337
 10
-98.7013
 20
2.39002
 10
-98.7151
 20
2.37691
 10
-98.7292
 20
2.36405
 10
-98.7435
 20
2.35143
 10
-98.7579
 20
2.33906
 10
-98.7726
 20
2.32694
 10
-98.7875
 20
2.31509
 10
-98.8026
 20
2.30349
 10
-98.818
 20
2.29216
 10
-98.8335
 20
2.2811
 10
-98.8492
 20
2.27031
 10
-98.865
 20
2.2598
 10
-98.8811
 20
2.24957
 10
-98.8973
 20
2.23962
 10
-98.9138
 20
2.22995
 10
-98.9303
 20
2.22057
 10
-98.9471
 20
2.21149
 10
-98.964
 20
2.20269
 10
-98.981
 20
2.19419
 10
-98.9982
 20
2.18599
 10
-99.0155
 20
2.1781
 10
-99.033
 20
2.1705
 10
-99.0506
 20
2.16321
 10
-99.0683
 20
2.15623
 10
-99.0861
 20
2.14956
 10
-99.1041
 20
2.14321
 10
-99.1222
 20
2.13716
 10
-99.1403
 20
2.13143
 10
-99.1586
 20
2.12603
 10
-99.1769
 20
2.12094
 10
-99.1954
 20
2.11617
 10
-99.2139
 20
2.11172
 10
-99.2325
 20
2.1076
 10
-99.2512
 20
2.1038
 10
-99.2699
 20
2.10033
 10
-99.2887
 20
2.09719
 10
-99.3075
 20
2.09437
 10
-99.3264
 20
2.09189
 10
-99.3453
 20
2.08973
 10
-99.3643
 20
2.08791
 10
-99.3833
 20
2.08641
 10
-99.4023
 20
2.08525
 10
-99.4213
 20
2.08442
 10
-99.4403
 20
2.08392
 10
-99.4594
 20
2.08375
  0
ENDSEC
  0
EOF
