999
FreeCAD v1.2 46664 (Git)
  0
SECTION
  2
HEADER
  9
$ACADVER
  1
AC1014
  9
$ACADMAINTVER
 70
     9
  9
$DWGCODEPAGE
  3
ANSI_1252
  9
$TEXTSTYLE
  7
STANDARD
  9
$DIMSTYLE
  2
STANDARD
  9
$DIMTXSTY
  7
STANDARD
  9
$CMLSTYLE
  2
STANDARD
  9
$LUNITS
 70
2
  9
$INSUNITS
 70
4
  9
$PEXTMAX
 10
50
 20
50
 30
50
  9
$PEXTMIN
 10
0
 20
0
 30
0
  9
$HANDSEED
  5
FFFF
  0
ENDSEC
  0
SECTION
  2
CLASSES
  0
CLASS
  1
ACDBDICTIONARYWDFLT
  2
AcDbDictionaryWithDefault
  3
ObjectDBX Classes
 90
        0
280
     0
281
     0
  0
CLASS
  1
XRECORD
  2
AcDbXrecord
  3
ObjectDBX Classes
 90
        0
280
     0
281
     0
  0
CLASS
  1
LWPOLYLINE
  2
AcDbPolyline
  3
ObjectDBX Classes
 90
        0
280
     0
281
     1
  0
ENDSEC
  0
SECTION
  2
TABLES
  0
TABLE
  2
VPORT
  5
20
330
0
100
AcDbSymbolTable
 70
     1
  0
VPORT
  5
21
330
20
100
AcDbSymbolTableRecord
100
AcDbViewportTableRecord
  2
*ACTIVE
 70
     0
  0
ENDTAB
  0
TABLE
  2
LTYPE
  5
22
330
0
100
AcDbSymbolTable
 70
     1
  0
LTYPE
  5
23
330
21
100
AcDbSymbolTableRecord
100
AcDbLinetypeTableRecord
  2
BYBLOCK
 70
     0
  3

 72
    65
 73
     0
 40
0.0
  0
LTYPE
  5
24
330
21
100
AcDbSymbolTableRecord
100
AcDbLinetypeTableRecord
  2
BYLAYER
 70
     0
  3

 72
    65
 73
     0
 40
0.0
  0
LTYPE
  5
25
330
21
100
AcDbSymbolTableRecord
100
AcDbLinetypeTableRecord
  2
CONTINUOUS
 70
     0
  3
Solid line
 72
    65
 73
     0
 40
0.0
  0
ENDTAB
  0
TABLE
  2
LAYER
  5
C71
330
0
100
AcDbSymbolTable
 70
3
  0
LAYER
  5
C72
330
C71
100
AcDbSymbolTableRecord
100
AcDbLayerTableRecord
  2
0
 70
   0
 62
   7
  6
CONTINUOUS
  0
LAYER
  5
C73
330
C71
100
AcDbSymbolTableRecord
100
AcDbLayerTableRecord
  2
none
 70
    0
 62
    7
  6
CONTINUOUS
  0
LAYER
  5
C74
330
C71
100
AcDbSymbolTableRecord
100
AcDbLayerTableRecord
  2
Polyline
 70
    0
 62
    7
  6
CONTINUOUS
  0
ENDTAB
  0
TABLE
  2
STYLE
  5
70
330
0
100
AcDbSymbolTable
 70
     2
  0
STYLE
  5
71
330
70
100
AcDbSymbolTableRecord
100
AcDbTextStyleTableRecord
  2
STANDARD
 70
     0
 40
0.0
 41
1.0
 50
0.0
 71
     0
 42
2.5
  3
arial.ttf
  4

  0
STYLE
  5
72
330
70
100
AcDbSymbolTableRecord
100
AcDbTextStyleTableRecord
  2
ANNOTATIVE
 70
     0
 40
0.0
 41
1.0
 50
0.0
 71
     0
 42
2.5
  3
arial.ttf
  4

  0
ENDTAB
  0
TABLE
  2
VIEW
  5
73
330
0
100
AcDbSymbolTable
 70
     0
  0
ENDTAB
  0
TABLE
  2
UCS
  5
74
330
0
100
AcDbSymbolTable
 70
     0
  0
ENDTAB
  0
TABLE
  2
APPID
  5
75
330
0
100
AcDbSymbolTable
 70
     2
  0
APPID
  5
76
330
75
100
AcDbSymbolTableRecord
100
AcDbRegAppTableRecord
  2
ACAD
 70
     0
  0
APPID
  5
77
330
75
100
AcDbSymbolTableRecord
100
AcDbRegAppTableRecord
  2
ACADANNOTATIVE
 70
     0
  0
ENDTAB
  0
TABLE
  2
DIMSTYLE
  5
78
330
0
100
AcDbSymbolTable
 70
     2
  0
DIMSTYLE
105
79
330
78
100
AcDbSymbolTableRecord
100
AcDbDimStyleTableRecord
  2
STANDARD
 70
     0
  3

  4

  5

  6

  7

 40
0.0
 41
2.5
 42
0.625
 43
3.75
 44
1.25
 45
0.0
 46
0.0
 47
0.0
 48
0.0
140
2.5
141
2.5
142
0.0
143
0.03937007874016
144
1.0
145
0.0
146
1.0
147
0.625
 71
     0
 72
     0
 73
     0
 74
     0
 75
     0
 76
     0
 77
     1
 78
     8
170
     0
171
     3
172
     1
173
     0
174
     0
175
     0
176
     0
177
     0
178
     0
270
     2
271
     2
272
     2
273
     2
274
     3
340
71
275
     0
280
     0
281
     0
282
     0
283
     0
284
     8
285
     0
286
     0
287
     3
288
     0
  0
ENDTAB
  0
TABLE
  2
BLOCK_RECORD
  5
A01
330
0
100
AcDbSymbolTable
  70
5
  0
BLOCK_RECORD
  5
A02
330
A01
100
AcDbSymbolTableRecord
100
AcDbBlockTableRecord
  2
*MODEL_SPACE
  0
BLOCK_RECORD
  5
A03
330
A01
100
AcDbSymbolTableRecord
100
AcDbBlockTableRecord
  2
*PAPER_SPACE
  0
ENDTAB
  0
ENDSEC
  0
SECTION
  2
BLOCKS
  0
BLOCK
  5
A04
330
A02
100
AcDbEntity
  8
0
100
AcDbBlockBegin
  2
*MODEL_SPACE
 70
   0
 10
0
 20
0
 30
0
  3
*MODEL_SPACE
  1
 
  0
ENDBLK
  5
A05
330
A02
100
AcDbEntity
  8
0
100
AcDbBlockEnd
  0
BLOCK
  5
A06
330
A03
100
AcDbEntity
 67
1
  8
0
100
AcDbBlockBegin
  2
*PAPER_SPACE
 70
   0
 10
0
 20
0
 30
0
  3
*PAPER_SPACE
  1
 
  0
ENDBLK
  5
A07
330
A03
100
AcDbEntity
 67
    1
  8
0
100
AcDbBlockEnd
  0
ENDSEC
  0
SECTION
  2
ENTITIES
  0
LINE
  5
A08
330
A02
100
AcDbEntity
  8
Polyline
100
AcDbLine
 10
0.113441000
 20
0.000989981
 30
0.000000000
 11
0.226847000
 21
0.003959630
 31
0.000000000
  0
LINE
  5
A09
330
A02
100
AcDbEntity
  8
Polyline
100
AcDbLine
 10
0.226847000
 20
0.003959630
 30
0.000000000
 11
0.340184000
 21
0.008908030
 31
0.000000000
  0
LINE
  5
A0A
330
A02
100
AcDbEntity
  8
Polyline
100
AcDbLine
 10
0.340184000
 20
0.008908030
 30
0.000000000
 11
0.453417000
 21
0.015833700
 31
0.000000000
  0
LINE
  5
A0B
330
A02
100
AcDbEntity
  8
Polyline
100
AcDbLine
 10
0.453417000
 20
0.015833700
 30
0.000000000
 11
0.566512000
 21
0.024734500
 31
0.000000000
  0
LINE
  5
A0C
330
A02
100
AcDbEntity
  8
Polyline
100
AcDbLine
 10
0.566512000
 20
0.024734500
 30
0.000000000
 11
0.679435000
 21
0.035607700
 31
0.000000000
  0
LINE
  5
A0D
330
A02
100
AcDbEntity
  8
Polyline
100
AcDbLine
 10
0.679435000
 20
0.035607700
 30
0.000000000
 11
0.792151000
 21
0.048450000
 31
0.000000000
  0
LINE
  5
A0E
330
A02
100
AcDbEntity
  8
Polyline
100
AcDbLine
 10
0.792151000
 20
0.048450000
 30
0.000000000
 11
0.904625000
 21
0.063257600
 31
0.000000000
  0
LINE
  5
A0F
330
A02
100
AcDbEntity
  8
Polyline
100
AcDbLine
 10
0.904625000
 20
0.063257600
 30
0.000000000
 11
1.016820000
 21
0.080025800
 31
0.000000000
  0
LINE
  5
A10
330
A02
100
AcDbEntity
  8
Polyline
100
AcDbLine
 10
1.016820000
 20
0.080025800
 30
0.000000000
 11
1.128710000
 21
0.098749600
 31
0.000000000
  0
LINE
  5
A11
330
A02
100
AcDbEntity
  8
Polyline
100
AcDbLine
 10
1.128710000
 20
0.098749600
 30
0.000000000
 11
1.240260000
 21
0.119423000
 31
0.000000000
  0
LINE
  5
A12
330
A02
100
AcDbEntity
  8
Polyline
100
AcDbLine
 10
1.240260000
 20
0.119423000
 30
0.000000000
 11
1.351430000
 21
0.142041000
 31
0.000000000
  0
LINE
  5
A13
330
A02
100
AcDbEntity
  8
Polyline
100
AcDbLine
 10
1.351430000
 20
0.142041000
 30
0.000000000
 11
1.462180000
 21
0.166595000
 31
0.000000000
  0
LINE
  5
A14
330
A02
100
AcDbEntity
  8
Polyline
100
AcDbLine
 10
1.462180000
 20
0.166595000
 30
0.000000000
 11
1.572490000
 21
0.193078000
 31
0.000000000
  0
LINE
  5
A15
330
A02
100
AcDbEntity
  8
Polyline
100
AcDbLine
 10
1.572490000
 20
0.193078000
 30
0.000000000
 11
1.682320000
 21
0.221482000
 31
0.000000000
  0
LINE
  5
A16
330
A02
100
AcDbEntity
  8
Polyline
100
AcDbLine
 10
1.682320000
 20
0.221482000
 30
0.000000000
 11
1.791640000
 21
0.251799000
 31
0.000000000
  0
LINE
  5
A17
330
A02
100
AcDbEntity
  8
Polyline
100
AcDbLine
 10
1.791640000
 20
0.251799000
 30
0.000000000
 11
1.900420000
 21
0.284019000
 31
0.000000000
  0
LINE
  5
A18
330
A02
100
AcDbEntity
  8
Polyline
100
AcDbLine
 10
1.900420000
 20
0.284019000
 30
0.000000000
 11
2.008610000
 21
0.318133000
 31
0.000000000
  0
LINE
  5
A19
330
A02
100
AcDbEntity
  8
Polyline
100
AcDbLine
 10
2.008610000
 20
0.318133000
 30
0.000000000
 11
2.116190000
 21
0.354129000
 31
0.000000000
  0
LINE
  5
A1A
330
A02
100
AcDbEntity
  8
Polyline
100
AcDbLine
 10
2.116190000
 20
0.354129000
 30
0.000000000
 11
2.223130000
 21
0.391998000
 31
0.000000000
  0
LINE
  5
A1B
330
A02
100
AcDbEntity
  8
Polyline
100
AcDbLine
 10
2.223130000
 20
0.391998000
 30
0.000000000
 11
2.329390000
 21
0.431727000
 31
0.000000000
  0
LINE
  5
A1C
330
A02
100
AcDbEntity
  8
Polyline
100
AcDbLine
 10
2.329390000
 20
0.431727000
 30
0.000000000
 11
2.434940000
 21
0.473305000
 31
0.000000000
  0
LINE
  5
A1D
330
A02
100
AcDbEntity
  8
Polyline
100
AcDbLine
 10
2.434940000
 20
0.473305000
 30
0.000000000
 11
2.539750000
 21
0.516718000
 31
0.000000000
  0
LINE
  5
A1E
330
A02
100
AcDbEntity
  8
Polyline
100
AcDbLine
 10
2.539750000
 20
0.516718000
 30
0.000000000
 11
2.643790000
 21
0.561955000
 31
0.000000000
  0
LINE
  5
A1F
330
A02
100
AcDbEntity
  8
Polyline
100
AcDbLine
 10
2.643790000
 20
0.561955000
 30
0.000000000
 11
2.747020000
 21
0.608999000
 31
0.000000000
  0
LINE
  5
A20
330
A02
100
AcDbEntity
  8
Polyline
100
AcDbLine
 10
2.747020000
 20
0.608999000
 30
0.000000000
 11
2.849410000
 21
0.657839000
 31
0.000000000
  0
LINE
  5
A21
330
A02
100
AcDbEntity
  8
Polyline
100
AcDbLine
 10
2.849410000
 20
0.657839000
 30
0.000000000
 11
2.950940000
 21
0.708458000
 31
0.000000000
  0
LINE
  5
A22
330
A02
100
AcDbEntity
  8
Polyline
100
AcDbLine
 10
2.950940000
 20
0.708458000
 30
0.000000000
 11
3.051570000
 21
0.760841000
 31
0.000000000
  0
LINE
  5
A23
330
A02
100
AcDbEntity
  8
Polyline
100
AcDbLine
 10
3.051570000
 20
0.760841000
 30
0.000000000
 11
3.151260000
 21
0.814972000
 31
0.000000000
  0
LINE
  5
A24
330
A02
100
AcDbEntity
  8
Polyline
100
AcDbLine
 10
3.151260000
 20
0.814972000
 30
0.000000000
 11
3.250000000
 21
0.870835000
 31
0.000000000
  0
LINE
  5
A25
330
A02
100
AcDbEntity
  8
Polyline
100
AcDbLine
 10
3.250000000
 20
0.870835000
 30
0.000000000
 11
3.347750000
 21
0.928413000
 31
0.000000000
  0
LINE
  5
A26
330
A02
100
AcDbEntity
  8
Polyline
100
AcDbLine
 10
3.347750000
 20
0.928413000
 30
0.000000000
 11
3.444480000
 21
0.987687000
 31
0.000000000
  0
LINE
  5
A27
330
A02
100
AcDbEntity
  8
Polyline
100
AcDbLine
 10
3.444480000
 20
0.987687000
 30
0.000000000
 11
3.540150000
 21
1.048640000
 31
0.000000000
  0
LINE
  5
A28
330
A02
100
AcDbEntity
  8
Polyline
100
AcDbLine
 10
3.540150000
 20
1.048640000
 30
0.000000000
 11
3.634750000
 21
1.111260000
 31
0.000000000
  0
LINE
  5
A29
330
A02
100
AcDbEntity
  8
Polyline
100
AcDbLine
 10
3.634750000
 20
1.111260000
 30
0.000000000
 11
3.728250000
 21
1.175510000
 31
0.000000000
  0
LINE
  5
A2A
330
A02
100
AcDbEntity
  8
Polyline
100
AcDbLine
 10
3.728250000
 20
1.175510000
 30
0.000000000
 11
3.820600000
 21
1.241390000
 31
0.000000000
  0
LINE
  5
A2B
330
A02
100
AcDbEntity
  8
Polyline
100
AcDbLine
 10
3.820600000
 20
1.241390000
 30
0.000000000
 11
3.911800000
 21
1.308870000
 31
0.000000000
  0
LINE
  5
A2C
330
A02
100
AcDbEntity
  8
Polyline
100
AcDbLine
 10
3.911800000
 20
1.308870000
 30
0.000000000
 11
4.001800000
 21
1.377930000
 31
0.000000000
  0
LINE
  5
A2D
330
A02
100
AcDbEntity
  8
Polyline
100
AcDbLine
 10
4.001800000
 20
1.377930000
 30
0.000000000
 11
4.090580000
 21
1.448550000
 31
0.000000000
  0
LINE
  5
A2E
330
A02
100
AcDbEntity
  8
Polyline
100
AcDbLine
 10
4.090580000
 20
1.448550000
 30
0.000000000
 11
4.178120000
 21
1.520710000
 31
0.000000000
  0
LINE
  5
A2F
330
A02
100
AcDbEntity
  8
Polyline
100
AcDbLine
 10
4.178120000
 20
1.520710000
 30
0.000000000
 11
4.264380000
 21
1.594390000
 31
0.000000000
  0
LINE
  5
A30
330
A02
100
AcDbEntity
  8
Polyline
100
AcDbLine
 10
4.264380000
 20
1.594390000
 30
0.000000000
 11
4.349350000
 21
1.669560000
 31
0.000000000
  0
LINE
  5
A31
330
A02
100
AcDbEntity
  8
Polyline
100
AcDbLine
 10
4.349350000
 20
1.669560000
 30
0.000000000
 11
4.374600000
 21
1.692700000
 31
0.000000000
  0
LINE
  5
A32
330
A02
100
AcDbEntity
  8
Polyline
100
AcDbLine
 10
4.374600000
 20
1.692700000
 30
0.000000000
 11
4.378190000
 21
1.693690000
 31
0.000000000
  0
LINE
  5
A33
330
A02
100
AcDbEntity
  8
Polyline
100
AcDbLine
 10
4.378190000
 20
1.693690000
 30
0.000000000
 11
4.461860000
 21
1.718480000
 31
0.000000000
  0
LINE
  5
A34
330
A02
100
AcDbEntity
  8
Polyline
100
AcDbLine
 10
4.461860000
 20
1.718480000
 30
0.000000000
 11
4.545080000
 21
1.744720000
 31
0.000000000
  0
LINE
  5
A35
330
A02
100
AcDbEntity
  8
Polyline
100
AcDbLine
 10
4.545080000
 20
1.744720000
 30
0.000000000
 11
4.627840000
 21
1.772410000
 31
0.000000000
  0
LINE
  5
A36
330
A02
100
AcDbEntity
  8
Polyline
100
AcDbLine
 10
4.627840000
 20
1.772410000
 30
0.000000000
 11
4.710100000
 21
1.801540000
 31
0.000000000
  0
LINE
  5
A37
330
A02
100
AcDbEntity
  8
Polyline
100
AcDbLine
 10
4.710100000
 20
1.801540000
 30
0.000000000
 11
4.791840000
 21
1.832100000
 31
0.000000000
  0
LINE
  5
A38
330
A02
100
AcDbEntity
  8
Polyline
100
AcDbLine
 10
4.791840000
 20
1.832100000
 30
0.000000000
 11
4.873030000
 21
1.864080000
 31
0.000000000
  0
LINE
  5
A39
330
A02
100
AcDbEntity
  8
Polyline
100
AcDbLine
 10
4.873030000
 20
1.864080000
 30
0.000000000
 11
4.953660000
 21
1.897480000
 31
0.000000000
  0
LINE
  5
A3A
330
A02
100
AcDbEntity
  8
Polyline
100
AcDbLine
 10
4.953660000
 20
1.897480000
 30
0.000000000
 11
5.033680000
 21
1.932270000
 31
0.000000000
  0
LINE
  5
A3B
330
A02
100
AcDbEntity
  8
Polyline
100
AcDbLine
 10
5.033680000
 20
1.932270000
 30
0.000000000
 11
5.113090000
 21
1.968460000
 31
0.000000000
  0
LINE
  5
A3C
330
A02
100
AcDbEntity
  8
Polyline
100
AcDbLine
 10
5.113090000
 20
1.968460000
 30
0.000000000
 11
5.191860000
 21
2.006030000
 31
0.000000000
  0
LINE
  5
A3D
330
A02
100
AcDbEntity
  8
Polyline
100
AcDbLine
 10
5.191860000
 20
2.006030000
 30
0.000000000
 11
5.269950000
 21
2.044970000
 31
0.000000000
  0
LINE
  5
A3E
330
A02
100
AcDbEntity
  8
Polyline
100
AcDbLine
 10
5.269950000
 20
2.044970000
 30
0.000000000
 11
5.347360000
 21
2.085260000
 31
0.000000000
  0
LINE
  5
A3F
330
A02
100
AcDbEntity
  8
Polyline
100
AcDbLine
 10
5.347360000
 20
2.085260000
 30
0.000000000
 11
5.424050000
 21
2.126900000
 31
0.000000000
  0
LINE
  5
A40
330
A02
100
AcDbEntity
  8
Polyline
100
AcDbLine
 10
5.424050000
 20
2.126900000
 30
0.000000000
 11
5.500000000
 21
2.169870000
 31
0.000000000
  0
LINE
  5
A41
330
A02
100
AcDbEntity
  8
Polyline
100
AcDbLine
 10
5.500000000
 20
2.169870000
 30
0.000000000
 11
5.575190000
 21
2.214160000
 31
0.000000000
  0
LINE
  5
A42
330
A02
100
AcDbEntity
  8
Polyline
100
AcDbLine
 10
5.575190000
 20
2.214160000
 30
0.000000000
 11
5.649600000
 21
2.259760000
 31
0.000000000
  0
LINE
  5
A43
330
A02
100
AcDbEntity
  8
Polyline
100
AcDbLine
 10
5.649600000
 20
2.259760000
 30
0.000000000
 11
5.723200000
 21
2.306650000
 31
0.000000000
  0
LINE
  5
A44
330
A02
100
AcDbEntity
  8
Polyline
100
AcDbLine
 10
5.723200000
 20
2.306650000
 30
0.000000000
 11
5.795960000
 21
2.354810000
 31
0.000000000
  0
LINE
  5
A45
330
A02
100
AcDbEntity
  8
Polyline
100
AcDbLine
 10
5.795960000
 20
2.354810000
 30
0.000000000
 11
5.867880000
 21
2.404240000
 31
0.000000000
  0
LINE
  5
A46
330
A02
100
AcDbEntity
  8
Polyline
100
AcDbLine
 10
5.867880000
 20
2.404240000
 30
0.000000000
 11
5.938930000
 21
2.454920000
 31
0.000000000
  0
LINE
  5
A47
330
A02
100
AcDbEntity
  8
Polyline
100
AcDbLine
 10
5.938930000
 20
2.454920000
 30
0.000000000
 11
6.009080000
 21
2.506820000
 31
0.000000000
  0
LINE
  5
A48
330
A02
100
AcDbEntity
  8
Polyline
100
AcDbLine
 10
6.009080000
 20
2.506820000
 30
0.000000000
 11
6.078310000
 21
2.559950000
 31
0.000000000
  0
LINE
  5
A49
330
A02
100
AcDbEntity
  8
Polyline
100
AcDbLine
 10
6.078310000
 20
2.559950000
 30
0.000000000
 11
6.146600000
 21
2.614270000
 31
0.000000000
  0
LINE
  5
A4A
330
A02
100
AcDbEntity
  8
Polyline
100
AcDbLine
 10
6.146600000
 20
2.614270000
 30
0.000000000
 11
6.213940000
 21
2.669780000
 31
0.000000000
  0
LINE
  5
A4B
330
A02
100
AcDbEntity
  8
Polyline
100
AcDbLine
 10
6.213940000
 20
2.669780000
 30
0.000000000
 11
6.280300000
 21
2.726450000
 31
0.000000000
  0
LINE
  5
A4C
330
A02
100
AcDbEntity
  8
Polyline
100
AcDbLine
 10
6.280300000
 20
2.726450000
 30
0.000000000
 11
6.345650000
 21
2.784280000
 31
0.000000000
  0
LINE
  5
A4D
330
A02
100
AcDbEntity
  8
Polyline
100
AcDbLine
 10
6.345650000
 20
2.784280000
 30
0.000000000
 11
6.409990000
 21
2.843230000
 31
0.000000000
  0
LINE
  5
A4E
330
A02
100
AcDbEntity
  8
Polyline
100
AcDbLine
 10
6.409990000
 20
2.843230000
 30
0.000000000
 11
6.473290000
 21
2.903300000
 31
0.000000000
  0
LINE
  5
A4F
330
A02
100
AcDbEntity
  8
Polyline
100
AcDbLine
 10
6.473290000
 20
2.903300000
 30
0.000000000
 11
6.535530000
 21
2.964470000
 31
0.000000000
  0
LINE
  5
A50
330
A02
100
AcDbEntity
  8
Polyline
100
AcDbLine
 10
6.535530000
 20
2.964470000
 30
0.000000000
 11
6.596700000
 21
3.026710000
 31
0.000000000
  0
LINE
  5
A51
330
A02
100
AcDbEntity
  8
Polyline
100
AcDbLine
 10
6.596700000
 20
3.026710000
 30
0.000000000
 11
6.656770000
 21
3.090010000
 31
0.000000000
  0
LINE
  5
A52
330
A02
100
AcDbEntity
  8
Polyline
100
AcDbLine
 10
6.656770000
 20
3.090010000
 30
0.000000000
 11
6.715720000
 21
3.154350000
 31
0.000000000
  0
LINE
  5
A53
330
A02
100
AcDbEntity
  8
Polyline
100
AcDbLine
 10
6.715720000
 20
3.154350000
 30
0.000000000
 11
6.773550000
 21
3.219700000
 31
0.000000000
  0
LINE
  5
A54
330
A02
100
AcDbEntity
  8
Polyline
100
AcDbLine
 10
6.773550000
 20
3.219700000
 30
0.000000000
 11
6.830220000
 21
3.286060000
 31
0.000000000
  0
LINE
  5
A55
330
A02
100
AcDbEntity
  8
Polyline
100
AcDbLine
 10
6.830220000
 20
3.286060000
 30
0.000000000
 11
6.885730000
 21
3.353400000
 31
0.000000000
  0
LINE
  5
A56
330
A02
100
AcDbEntity
  8
Polyline
100
AcDbLine
 10
6.885730000
 20
3.353400000
 30
0.000000000
 11
6.940050000
 21
3.421690000
 31
0.000000000
  0
LINE
  5
A57
330
A02
100
AcDbEntity
  8
Polyline
100
AcDbLine
 10
6.940050000
 20
3.421690000
 30
0.000000000
 11
6.993180000
 21
3.490920000
 31
0.000000000
  0
LINE
  5
A58
330
A02
100
AcDbEntity
  8
Polyline
100
AcDbLine
 10
6.993180000
 20
3.490920000
 30
0.000000000
 11
7.045080000
 21
3.561070000
 31
0.000000000
  0
LINE
  5
A59
330
A02
100
AcDbEntity
  8
Polyline
100
AcDbLine
 10
7.045080000
 20
3.561070000
 30
0.000000000
 11
7.095760000
 21
3.632120000
 31
0.000000000
  0
LINE
  5
A5A
330
A02
100
AcDbEntity
  8
Polyline
100
AcDbLine
 10
7.095760000
 20
3.632120000
 30
0.000000000
 11
7.145190000
 21
3.704040000
 31
0.000000000
  0
LINE
  5
A5B
330
A02
100
AcDbEntity
  8
Polyline
100
AcDbLine
 10
7.145190000
 20
3.704040000
 30
0.000000000
 11
7.193350000
 21
3.776800000
 31
0.000000000
  0
LINE
  5
A5C
330
A02
100
AcDbEntity
  8
Polyline
100
AcDbLine
 10
7.193350000
 20
3.776800000
 30
0.000000000
 11
7.240240000
 21
3.850400000
 31
0.000000000
  0
LINE
  5
A5D
330
A02
100
AcDbEntity
  8
Polyline
100
AcDbLine
 10
7.240240000
 20
3.850400000
 30
0.000000000
 11
7.285840000
 21
3.924810000
 31
0.000000000
  0
LINE
  5
A5E
330
A02
100
AcDbEntity
  8
Polyline
100
AcDbLine
 10
7.285840000
 20
3.924810000
 30
0.000000000
 11
7.330130000
 21
4.000000000
 31
0.000000000
  0
LINE
  5
A5F
330
A02
100
AcDbEntity
  8
Polyline
100
AcDbLine
 10
7.330130000
 20
4.000000000
 30
0.000000000
 11
7.373100000
 21
4.075950000
 31
0.000000000
  0
LINE
  5
A60
330
A02
100
AcDbEntity
  8
Polyline
100
AcDbLine
 10
7.373100000
 20
4.075950000
 30
0.000000000
 11
7.414740000
 21
4.152640000
 31
0.000000000
  0
LINE
  5
A61
330
A02
100
AcDbEntity
  8
Polyline
100
AcDbLine
 10
7.414740000
 20
4.152640000
 30
0.000000000
 11
7.455030000
 21
4.230050000
 31
0.000000000
  0
LINE
  5
A62
330
A02
100
AcDbEntity
  8
Polyline
100
AcDbLine
 10
7.455030000
 20
4.230050000
 30
0.000000000
 11
7.493970000
 21
4.308140000
 31
0.000000000
  0
LINE
  5
A63
330
A02
100
AcDbEntity
  8
Polyline
100
AcDbLine
 10
7.493970000
 20
4.308140000
 30
0.000000000
 11
7.531540000
 21
4.386910000
 31
0.000000000
  0
LINE
  5
A64
330
A02
100
AcDbEntity
  8
Polyline
100
AcDbLine
 10
7.531540000
 20
4.386910000
 30
0.000000000
 11
7.567730000
 21
4.466320000
 31
0.000000000
  0
LINE
  5
A65
330
A02
100
AcDbEntity
  8
Polyline
100
AcDbLine
 10
7.567730000
 20
4.466320000
 30
0.000000000
 11
7.602520000
 21
4.546340000
 31
0.000000000
  0
LINE
  5
A66
330
A02
100
AcDbEntity
  8
Polyline
100
AcDbLine
 10
7.602520000
 20
4.546340000
 30
0.000000000
 11
7.635920000
 21
4.626970000
 31
0.000000000
  0
LINE
  5
A67
330
A02
100
AcDbEntity
  8
Polyline
100
AcDbLine
 10
7.635920000
 20
4.626970000
 30
0.000000000
 11
7.667900000
 21
4.708160000
 31
0.000000000
  0
LINE
  5
A68
330
A02
100
AcDbEntity
  8
Polyline
100
AcDbLine
 10
7.667900000
 20
4.708160000
 30
0.000000000
 11
7.698460000
 21
4.789900000
 31
0.000000000
  0
LINE
  5
A69
330
A02
100
AcDbEntity
  8
Polyline
100
AcDbLine
 10
7.698460000
 20
4.789900000
 30
0.000000000
 11
7.727590000
 21
4.872160000
 31
0.000000000
  0
LINE
  5
A6A
330
A02
100
AcDbEntity
  8
Polyline
100
AcDbLine
 10
7.727590000
 20
4.872160000
 30
0.000000000
 11
7.755280000
 21
4.954920000
 31
0.000000000
  0
LINE
  5
A6B
330
A02
100
AcDbEntity
  8
Polyline
100
AcDbLine
 10
7.755280000
 20
4.954920000
 30
0.000000000
 11
7.781520000
 21
5.038140000
 31
0.000000000
  0
LINE
  5
A6C
330
A02
100
AcDbEntity
  8
Polyline
100
AcDbLine
 10
7.781520000
 20
5.038140000
 30
0.000000000
 11
7.806310000
 21
5.121810000
 31
0.000000000
  0
LINE
  5
A6D
330
A02
100
AcDbEntity
  8
Polyline
100
AcDbLine
 10
7.806310000
 20
5.121810000
 30
0.000000000
 11
7.829630000
 21
5.205900000
 31
0.000000000
  0
LINE
  5
A6E
330
A02
100
AcDbEntity
  8
Polyline
100
AcDbLine
 10
7.829630000
 20
5.205900000
 30
0.000000000
 11
7.851480000
 21
5.290390000
 31
0.000000000
  0
LINE
  5
A6F
330
A02
100
AcDbEntity
  8
Polyline
100
AcDbLine
 10
7.851480000
 20
5.290390000
 30
0.000000000
 11
7.871850000
 21
5.375240000
 31
0.000000000
  0
LINE
  5
A70
330
A02
100
AcDbEntity
  8
Polyline
100
AcDbLine
 10
7.871850000
 20
5.375240000
 30
0.000000000
 11
7.890740000
 21
5.460440000
 31
0.000000000
  0
LINE
  5
A71
330
A02
100
AcDbEntity
  8
Polyline
100
AcDbLine
 10
7.890740000
 20
5.460440000
 30
0.000000000
 11
7.908140000
 21
5.545960000
 31
0.000000000
  0
LINE
  5
A72
330
A02
100
AcDbEntity
  8
Polyline
100
AcDbLine
 10
7.908140000
 20
5.545960000
 30
0.000000000
 11
7.924040000
 21
5.631760000
 31
0.000000000
  0
LINE
  5
A73
330
A02
100
AcDbEntity
  8
Polyline
100
AcDbLine
 10
7.924040000
 20
5.631760000
 30
0.000000000
 11
7.938440000
 21
5.717830000
 31
0.000000000
  0
LINE
  5
A74
330
A02
100
AcDbEntity
  8
Polyline
100
AcDbLine
 10
7.938440000
 20
5.717830000
 30
0.000000000
 11
7.951340000
 21
5.804130000
 31
0.000000000
  0
LINE
  5
A75
330
A02
100
AcDbEntity
  8
Polyline
100
AcDbLine
 10
7.951340000
 20
5.804130000
 30
0.000000000
 11
7.962730000
 21
5.890650000
 31
0.000000000
  0
LINE
  5
A76
330
A02
100
AcDbEntity
  8
Polyline
100
AcDbLine
 10
7.962730000
 20
5.890650000
 30
0.000000000
 11
7.972610000
 21
5.977360000
 31
0.000000000
  0
LINE
  5
A77
330
A02
100
AcDbEntity
  8
Polyline
100
AcDbLine
 10
7.972610000
 20
5.977360000
 30
0.000000000
 11
7.980970000
 21
6.064220000
 31
0.000000000
  0
LINE
  5
A78
330
A02
100
AcDbEntity
  8
Polyline
100
AcDbLine
 10
7.980970000
 20
6.064220000
 30
0.000000000
 11
7.987820000
 21
6.151220000
 31
0.000000000
  0
LINE
  5
A79
330
A02
100
AcDbEntity
  8
Polyline
100
AcDbLine
 10
7.987820000
 20
6.151220000
 30
0.000000000
 11
7.993150000
 21
6.238320000
 31
0.000000000
  0
LINE
  5
A7A
330
A02
100
AcDbEntity
  8
Polyline
100
AcDbLine
 10
7.993150000
 20
6.238320000
 30
0.000000000
 11
7.996950000
 21
6.325500000
 31
0.000000000
  0
LINE
  5
A7B
330
A02
100
AcDbEntity
  8
Polyline
100
AcDbLine
 10
7.996950000
 20
6.325500000
 30
0.000000000
 11
7.999240000
 21
6.412740000
 31
0.000000000
  0
LINE
  5
A7C
330
A02
100
AcDbEntity
  8
Polyline
100
AcDbLine
 10
7.999240000
 20
6.412740000
 30
0.000000000
 11
8.000000000
 21
6.500000000
 31
0.000000000
  0
LINE
  5
A7D
330
A02
100
AcDbEntity
  8
Polyline
100
AcDbLine
 10
8.000000000
 20
6.500000000
 30
0.000000000
 11
7.999240000
 21
6.587260000
 31
0.000000000
  0
LINE
  5
A7E
330
A02
100
AcDbEntity
  8
Polyline
100
AcDbLine
 10
7.999240000
 20
6.587260000
 30
0.000000000
 11
7.996950000
 21
6.674500000
 31
0.000000000
  0
LINE
  5
A7F
330
A02
100
AcDbEntity
  8
Polyline
100
AcDbLine
 10
7.996950000
 20
6.674500000
 30
0.000000000
 11
7.993150000
 21
6.761680000
 31
0.000000000
  0
LINE
  5
A80
330
A02
100
AcDbEntity
  8
Polyline
100
AcDbLine
 10
7.993150000
 20
6.761680000
 30
0.000000000
 11
7.987820000
 21
6.848780000
 31
0.000000000
  0
LINE
  5
A81
330
A02
100
AcDbEntity
  8
Polyline
100
AcDbLine
 10
7.987820000
 20
6.848780000
 30
0.000000000
 11
7.980970000
 21
6.935780000
 31
0.000000000
  0
LINE
  5
A82
330
A02
100
AcDbEntity
  8
Polyline
100
AcDbLine
 10
7.980970000
 20
6.935780000
 30
0.000000000
 11
7.972610000
 21
7.022640000
 31
0.000000000
  0
LINE
  5
A83
330
A02
100
AcDbEntity
  8
Polyline
100
AcDbLine
 10
7.972610000
 20
7.022640000
 30
0.000000000
 11
7.962730000
 21
7.109350000
 31
0.000000000
  0
LINE
  5
A84
330
A02
100
AcDbEntity
  8
Polyline
100
AcDbLine
 10
7.962730000
 20
7.109350000
 30
0.000000000
 11
7.951340000
 21
7.195870000
 31
0.000000000
  0
LINE
  5
A85
330
A02
100
AcDbEntity
  8
Polyline
100
AcDbLine
 10
7.951340000
 20
7.195870000
 30
0.000000000
 11
7.938440000
 21
7.282170000
 31
0.000000000
  0
LINE
  5
A86
330
A02
100
AcDbEntity
  8
Polyline
100
AcDbLine
 10
7.938440000
 20
7.282170000
 30
0.000000000
 11
7.924040000
 21
7.368240000
 31
0.000000000
  0
LINE
  5
A87
330
A02
100
AcDbEntity
  8
Polyline
100
AcDbLine
 10
7.924040000
 20
7.368240000
 30
0.000000000
 11
7.908140000
 21
7.454040000
 31
0.000000000
  0
LINE
  5
A88
330
A02
100
AcDbEntity
  8
Polyline
100
AcDbLine
 10
7.908140000
 20
7.454040000
 30
0.000000000
 11
7.890740000
 21
7.539560000
 31
0.000000000
  0
LINE
  5
A89
330
A02
100
AcDbEntity
  8
Polyline
100
AcDbLine
 10
7.890740000
 20
7.539560000
 30
0.000000000
 11
7.871850000
 21
7.624760000
 31
0.000000000
  0
LINE
  5
A8A
330
A02
100
AcDbEntity
  8
Polyline
100
AcDbLine
 10
7.871850000
 20
7.624760000
 30
0.000000000
 11
7.851480000
 21
7.709610000
 31
0.000000000
  0
LINE
  5
A8B
330
A02
100
AcDbEntity
  8
Polyline
100
AcDbLine
 10
7.851480000
 20
7.709610000
 30
0.000000000
 11
7.829630000
 21
7.794100000
 31
0.000000000
  0
LINE
  5
A8C
330
A02
100
AcDbEntity
  8
Polyline
100
AcDbLine
 10
7.829630000
 20
7.794100000
 30
0.000000000
 11
7.806310000
 21
7.878190000
 31
0.000000000
  0
LINE
  5
A8D
330
A02
100
AcDbEntity
  8
Polyline
100
AcDbLine
 10
7.806310000
 20
7.878190000
 30
0.000000000
 11
7.781520000
 21
7.961860000
 31
0.000000000
  0
LINE
  5
A8E
330
A02
100
AcDbEntity
  8
Polyline
100
AcDbLine
 10
7.781520000
 20
7.961860000
 30
0.000000000
 11
7.755280000
 21
8.045080000
 31
0.000000000
  0
LINE
  5
A8F
330
A02
100
AcDbEntity
  8
Polyline
100
AcDbLine
 10
7.755280000
 20
8.045080000
 30
0.000000000
 11
7.727590000
 21
8.127840000
 31
0.000000000
  0
LINE
  5
A90
330
A02
100
AcDbEntity
  8
Polyline
100
AcDbLine
 10
7.727590000
 20
8.127840000
 30
0.000000000
 11
7.698460000
 21
8.210100000
 31
0.000000000
  0
LINE
  5
A91
330
A02
100
AcDbEntity
  8
Polyline
100
AcDbLine
 10
7.698460000
 20
8.210100000
 30
0.000000000
 11
7.667900000
 21
8.291840000
 31
0.000000000
  0
LINE
  5
A92
330
A02
100
AcDbEntity
  8
Polyline
100
AcDbLine
 10
7.667900000
 20
8.291840000
 30
0.000000000
 11
7.635920000
 21
8.373030000
 31
0.000000000
  0
LINE
  5
A93
330
A02
100
AcDbEntity
  8
Polyline
100
AcDbLine
 10
7.635920000
 20
8.373030000
 30
0.000000000
 11
7.602520000
 21
8.453660000
 31
0.000000000
  0
LINE
  5
A94
330
A02
100
AcDbEntity
  8
Polyline
100
AcDbLine
 10
7.602520000
 20
8.453660000
 30
0.000000000
 11
7.567730000
 21
8.533680000
 31
0.000000000
  0
LINE
  5
A95
330
A02
100
AcDbEntity
  8
Polyline
100
AcDbLine
 10
7.567730000
 20
8.533680000
 30
0.000000000
 11
7.531540000
 21
8.613090000
 31
0.000000000
  0
LINE
  5
A96
330
A02
100
AcDbEntity
  8
Polyline
100
AcDbLine
 10
7.531540000
 20
8.613090000
 30
0.000000000
 11
7.493970000
 21
8.691860000
 31
0.000000000
  0
LINE
  5
A97
330
A02
100
AcDbEntity
  8
Polyline
100
AcDbLine
 10
7.493970000
 20
8.691860000
 30
0.000000000
 11
7.455030000
 21
8.769950000
 31
0.000000000
  0
LINE
  5
A98
330
A02
100
AcDbEntity
  8
Polyline
100
AcDbLine
 10
7.455030000
 20
8.769950000
 30
0.000000000
 11
7.414740000
 21
8.847360000
 31
0.000000000
  0
LINE
  5
A99
330
A02
100
AcDbEntity
  8
Polyline
100
AcDbLine
 10
7.414740000
 20
8.847360000
 30
0.000000000
 11
7.373100000
 21
8.924050000
 31
0.000000000
  0
LINE
  5
A9A
330
A02
100
AcDbEntity
  8
Polyline
100
AcDbLine
 10
7.373100000
 20
8.924050000
 30
0.000000000
 11
7.330130000
 21
9.000000000
 31
0.000000000
  0
LINE
  5
A9B
330
A02
100
AcDbEntity
  8
Polyline
100
AcDbLine
 10
7.330130000
 20
9.000000000
 30
0.000000000
 11
7.285840000
 21
9.075190000
 31
0.000000000
  0
LINE
  5
A9C
330
A02
100
AcDbEntity
  8
Polyline
100
AcDbLine
 10
7.285840000
 20
9.075190000
 30
0.000000000
 11
7.240240000
 21
9.149600000
 31
0.000000000
  0
LINE
  5
A9D
330
A02
100
AcDbEntity
  8
Polyline
100
AcDbLine
 10
7.240240000
 20
9.149600000
 30
0.000000000
 11
7.193350000
 21
9.223200000
 31
0.000000000
  0
LINE
  5
A9E
330
A02
100
AcDbEntity
  8
Polyline
100
AcDbLine
 10
7.193350000
 20
9.223200000
 30
0.000000000
 11
7.145190000
 21
9.295960000
 31
0.000000000
  0
LINE
  5
A9F
330
A02
100
AcDbEntity
  8
Polyline
100
AcDbLine
 10
7.145190000
 20
9.295960000
 30
0.000000000
 11
7.095760000
 21
9.367880000
 31
0.000000000
  0
LINE
  5
AA0
330
A02
100
AcDbEntity
  8
Polyline
100
AcDbLine
 10
7.095760000
 20
9.367880000
 30
0.000000000
 11
7.045080000
 21
9.438930000
 31
0.000000000
  0
LINE
  5
AA1
330
A02
100
AcDbEntity
  8
Polyline
100
AcDbLine
 10
7.045080000
 20
9.438930000
 30
0.000000000
 11
6.993180000
 21
9.509080000
 31
0.000000000
  0
LINE
  5
AA2
330
A02
100
AcDbEntity
  8
Polyline
100
AcDbLine
 10
6.993180000
 20
9.509080000
 30
0.000000000
 11
6.940050000
 21
9.578310000
 31
0.000000000
  0
LINE
  5
AA3
330
A02
100
AcDbEntity
  8
Polyline
100
AcDbLine
 10
6.940050000
 20
9.578310000
 30
0.000000000
 11
6.885730000
 21
9.646600000
 31
0.000000000
  0
LINE
  5
AA4
330
A02
100
AcDbEntity
  8
Polyline
100
AcDbLine
 10
6.885730000
 20
9.646600000
 30
0.000000000
 11
6.830220000
 21
9.713940000
 31
0.000000000
  0
LINE
  5
AA5
330
A02
100
AcDbEntity
  8
Polyline
100
AcDbLine
 10
6.830220000
 20
9.713940000
 30
0.000000000
 11
6.773550000
 21
9.780300000
 31
0.000000000
  0
LINE
  5
AA6
330
A02
100
AcDbEntity
  8
Polyline
100
AcDbLine
 10
6.773550000
 20
9.780300000
 30
0.000000000
 11
6.715720000
 21
9.845650000
 31
0.000000000
  0
LINE
  5
AA7
330
A02
100
AcDbEntity
  8
Polyline
100
AcDbLine
 10
6.715720000
 20
9.845650000
 30
0.000000000
 11
6.656770000
 21
9.909990000
 31
0.000000000
  0
LINE
  5
AA8
330
A02
100
AcDbEntity
  8
Polyline
100
AcDbLine
 10
6.656770000
 20
9.909990000
 30
0.000000000
 11
6.596700000
 21
9.973290000
 31
0.000000000
  0
LINE
  5
AA9
330
A02
100
AcDbEntity
  8
Polyline
100
AcDbLine
 10
6.596700000
 20
9.973290000
 30
0.000000000
 11
6.535530000
 21
10.035500000
 31
0.000000000
  0
LINE
  5
AAA
330
A02
100
AcDbEntity
  8
Polyline
100
AcDbLine
 10
6.535530000
 20
10.035500000
 30
0.000000000
 11
6.473290000
 21
10.096700000
 31
0.000000000
  0
LINE
  5
AAB
330
A02
100
AcDbEntity
  8
Polyline
100
AcDbLine
 10
6.473290000
 20
10.096700000
 30
0.000000000
 11
6.409990000
 21
10.156800000
 31
0.000000000
  0
LINE
  5
AAC
330
A02
100
AcDbEntity
  8
Polyline
100
AcDbLine
 10
6.409990000
 20
10.156800000
 30
0.000000000
 11
6.345650000
 21
10.215700000
 31
0.000000000
  0
LINE
  5
AAD
330
A02
100
AcDbEntity
  8
Polyline
100
AcDbLine
 10
6.345650000
 20
10.215700000
 30
0.000000000
 11
6.280300000
 21
10.273500000
 31
0.000000000
  0
LINE
  5
AAE
330
A02
100
AcDbEntity
  8
Polyline
100
AcDbLine
 10
6.280300000
 20
10.273500000
 30
0.000000000
 11
6.213940000
 21
10.330200000
 31
0.000000000
  0
LINE
  5
AAF
330
A02
100
AcDbEntity
  8
Polyline
100
AcDbLine
 10
6.213940000
 20
10.330200000
 30
0.000000000
 11
6.146600000
 21
10.385700000
 31
0.000000000
  0
LINE
  5
AB0
330
A02
100
AcDbEntity
  8
Polyline
100
AcDbLine
 10
6.146600000
 20
10.385700000
 30
0.000000000
 11
6.078310000
 21
10.440100000
 31
0.000000000
  0
LINE
  5
AB1
330
A02
100
AcDbEntity
  8
Polyline
100
AcDbLine
 10
6.078310000
 20
10.440100000
 30
0.000000000
 11
6.009080000
 21
10.493200000
 31
0.000000000
  0
LINE
  5
AB2
330
A02
100
AcDbEntity
  8
Polyline
100
AcDbLine
 10
6.009080000
 20
10.493200000
 30
0.000000000
 11
5.938930000
 21
10.545100000
 31
0.000000000
  0
LINE
  5
AB3
330
A02
100
AcDbEntity
  8
Polyline
100
AcDbLine
 10
5.938930000
 20
10.545100000
 30
0.000000000
 11
5.867880000
 21
10.595800000
 31
0.000000000
  0
LINE
  5
AB4
330
A02
100
AcDbEntity
  8
Polyline
100
AcDbLine
 10
5.867880000
 20
10.595800000
 30
0.000000000
 11
5.795960000
 21
10.645200000
 31
0.000000000
  0
LINE
  5
AB5
330
A02
100
AcDbEntity
  8
Polyline
100
AcDbLine
 10
5.795960000
 20
10.645200000
 30
0.000000000
 11
5.723200000
 21
10.693400000
 31
0.000000000
  0
LINE
  5
AB6
330
A02
100
AcDbEntity
  8
Polyline
100
AcDbLine
 10
5.723200000
 20
10.693400000
 30
0.000000000
 11
5.649600000
 21
10.740200000
 31
0.000000000
  0
LINE
  5
AB7
330
A02
100
AcDbEntity
  8
Polyline
100
AcDbLine
 10
5.649600000
 20
10.740200000
 30
0.000000000
 11
5.575190000
 21
10.785800000
 31
0.000000000
  0
LINE
  5
AB8
330
A02
100
AcDbEntity
  8
Polyline
100
AcDbLine
 10
5.575190000
 20
10.785800000
 30
0.000000000
 11
5.500000000
 21
10.830100000
 31
0.000000000
  0
LINE
  5
AB9
330
A02
100
AcDbEntity
  8
Polyline
100
AcDbLine
 10
5.500000000
 20
10.830100000
 30
0.000000000
 11
5.424050000
 21
10.873100000
 31
0.000000000
  0
LINE
  5
ABA
330
A02
100
AcDbEntity
  8
Polyline
100
AcDbLine
 10
5.424050000
 20
10.873100000
 30
0.000000000
 11
5.347360000
 21
10.914700000
 31
0.000000000
  0
LINE
  5
ABB
330
A02
100
AcDbEntity
  8
Polyline
100
AcDbLine
 10
5.347360000
 20
10.914700000
 30
0.000000000
 11
5.269950000
 21
10.955000000
 31
0.000000000
  0
LINE
  5
ABC
330
A02
100
AcDbEntity
  8
Polyline
100
AcDbLine
 10
5.269950000
 20
10.955000000
 30
0.000000000
 11
5.191860000
 21
10.994000000
 31
0.000000000
  0
LINE
  5
ABD
330
A02
100
AcDbEntity
  8
Polyline
100
AcDbLine
 10
5.191860000
 20
10.994000000
 30
0.000000000
 11
5.113090000
 21
11.031500000
 31
0.000000000
  0
LINE
  5
ABE
330
A02
100
AcDbEntity
  8
Polyline
100
AcDbLine
 10
5.113090000
 20
11.031500000
 30
0.000000000
 11
5.033680000
 21
11.067700000
 31
0.000000000
  0
LINE
  5
ABF
330
A02
100
AcDbEntity
  8
Polyline
100
AcDbLine
 10
5.033680000
 20
11.067700000
 30
0.000000000
 11
4.953660000
 21
11.102500000
 31
0.000000000
  0
LINE
  5
AC0
330
A02
100
AcDbEntity
  8
Polyline
100
AcDbLine
 10
4.953660000
 20
11.102500000
 30
0.000000000
 11
4.873030000
 21
11.135900000
 31
0.000000000
  0
LINE
  5
AC1
330
A02
100
AcDbEntity
  8
Polyline
100
AcDbLine
 10
4.873030000
 20
11.135900000
 30
0.000000000
 11
4.791840000
 21
11.167900000
 31
0.000000000
  0
LINE
  5
AC2
330
A02
100
AcDbEntity
  8
Polyline
100
AcDbLine
 10
4.791840000
 20
11.167900000
 30
0.000000000
 11
4.710100000
 21
11.198500000
 31
0.000000000
  0
LINE
  5
AC3
330
A02
100
AcDbEntity
  8
Polyline
100
AcDbLine
 10
4.710100000
 20
11.198500000
 30
0.000000000
 11
4.627840000
 21
11.227600000
 31
0.000000000
  0
LINE
  5
AC4
330
A02
100
AcDbEntity
  8
Polyline
100
AcDbLine
 10
4.627840000
 20
11.227600000
 30
0.000000000
 11
4.545080000
 21
11.255300000
 31
0.000000000
  0
LINE
  5
AC5
330
A02
100
AcDbEntity
  8
Polyline
100
AcDbLine
 10
4.545080000
 20
11.255300000
 30
0.000000000
 11
4.461860000
 21
11.281500000
 31
0.000000000
  0
LINE
  5
AC6
330
A02
100
AcDbEntity
  8
Polyline
100
AcDbLine
 10
4.461860000
 20
11.281500000
 30
0.000000000
 11
4.378190000
 21
11.306300000
 31
0.000000000
  0
LINE
  5
AC7
330
A02
100
AcDbEntity
  8
Polyline
100
AcDbLine
 10
4.378190000
 20
11.306300000
 30
0.000000000
 11
4.374600000
 21
11.307300000
 31
0.000000000
  0
LINE
  5
AC8
330
A02
100
AcDbEntity
  8
Polyline
100
AcDbLine
 10
4.374600000
 20
11.307300000
 30
0.000000000
 11
4.349350000
 21
11.330400000
 31
0.000000000
  0
LINE
  5
AC9
330
A02
100
AcDbEntity
  8
Polyline
100
AcDbLine
 10
4.349350000
 20
11.330400000
 30
0.000000000
 11
4.264380000
 21
11.405600000
 31
0.000000000
  0
LINE
  5
ACA
330
A02
100
AcDbEntity
  8
Polyline
100
AcDbLine
 10
4.264380000
 20
11.405600000
 30
0.000000000
 11
4.178120000
 21
11.479300000
 31
0.000000000
  0
LINE
  5
ACB
330
A02
100
AcDbEntity
  8
Polyline
100
AcDbLine
 10
4.178120000
 20
11.479300000
 30
0.000000000
 11
4.090580000
 21
11.551400000
 31
0.000000000
  0
LINE
  5
ACC
330
A02
100
AcDbEntity
  8
Polyline
100
AcDbLine
 10
4.090580000
 20
11.551400000
 30
0.000000000
 11
4.001800000
 21
11.622100000
 31
0.000000000
  0
LINE
  5
ACD
330
A02
100
AcDbEntity
  8
Polyline
100
AcDbLine
 10
4.001800000
 20
11.622100000
 30
0.000000000
 11
3.911800000
 21
11.691100000
 31
0.000000000
  0
LINE
  5
ACE
330
A02
100
AcDbEntity
  8
Polyline
100
AcDbLine
 10
3.911800000
 20
11.691100000
 30
0.000000000
 11
3.820600000
 21
11.758600000
 31
0.000000000
  0
LINE
  5
ACF
330
A02
100
AcDbEntity
  8
Polyline
100
AcDbLine
 10
3.820600000
 20
11.758600000
 30
0.000000000
 11
3.728250000
 21
11.824500000
 31
0.000000000
  0
LINE
  5
AD0
330
A02
100
AcDbEntity
  8
Polyline
100
AcDbLine
 10
3.728250000
 20
11.824500000
 30
0.000000000
 11
3.634750000
 21
11.888700000
 31
0.000000000
  0
LINE
  5
AD1
330
A02
100
AcDbEntity
  8
Polyline
100
AcDbLine
 10
3.634750000
 20
11.888700000
 30
0.000000000
 11
3.540150000
 21
11.951400000
 31
0.000000000
  0
LINE
  5
AD2
330
A02
100
AcDbEntity
  8
Polyline
100
AcDbLine
 10
3.540150000
 20
11.951400000
 30
0.000000000
 11
3.444480000
 21
12.012300000
 31
0.000000000
  0
LINE
  5
AD3
330
A02
100
AcDbEntity
  8
Polyline
100
AcDbLine
 10
3.444480000
 20
12.012300000
 30
0.000000000
 11
3.347750000
 21
12.071600000
 31
0.000000000
  0
LINE
  5
AD4
330
A02
100
AcDbEntity
  8
Polyline
100
AcDbLine
 10
3.347750000
 20
12.071600000
 30
0.000000000
 11
3.250000000
 21
12.129200000
 31
0.000000000
  0
LINE
  5
AD5
330
A02
100
AcDbEntity
  8
Polyline
100
AcDbLine
 10
3.250000000
 20
12.129200000
 30
0.000000000
 11
3.151260000
 21
12.185000000
 31
0.000000000
  0
LINE
  5
AD6
330
A02
100
AcDbEntity
  8
Polyline
100
AcDbLine
 10
3.151260000
 20
12.185000000
 30
0.000000000
 11
3.051570000
 21
12.239200000
 31
0.000000000
  0
LINE
  5
AD7
330
A02
100
AcDbEntity
  8
Polyline
100
AcDbLine
 10
3.051570000
 20
12.239200000
 30
0.000000000
 11
2.950940000
 21
12.291500000
 31
0.000000000
  0
LINE
  5
AD8
330
A02
100
AcDbEntity
  8
Polyline
100
AcDbLine
 10
2.950940000
 20
12.291500000
 30
0.000000000
 11
2.849410000
 21
12.342200000
 31
0.000000000
  0
LINE
  5
AD9
330
A02
100
AcDbEntity
  8
Polyline
100
AcDbLine
 10
2.849410000
 20
12.342200000
 30
0.000000000
 11
2.747020000
 21
12.391000000
 31
0.000000000
  0
LINE
  5
ADA
330
A02
100
AcDbEntity
  8
Polyline
100
AcDbLine
 10
2.747020000
 20
12.391000000
 30
0.000000000
 11
2.643790000
 21
12.438000000
 31
0.000000000
  0
LINE
  5
ADB
330
A02
100
AcDbEntity
  8
Polyline
100
AcDbLine
 10
2.643790000
 20
12.438000000
 30
0.000000000
 11
2.539750000
 21
12.483300000
 31
0.000000000
  0
LINE
  5
ADC
330
A02
100
AcDbEntity
  8
Polyline
100
AcDbLine
 10
2.539750000
 20
12.483300000
 30
0.000000000
 11
2.434940000
 21
12.526700000
 31
0.000000000
  0
LINE
  5
ADD
330
A02
100
AcDbEntity
  8
Polyline
100
AcDbLine
 10
2.434940000
 20
12.526700000
 30
0.000000000
 11
2.329390000
 21
12.568300000
 31
0.000000000
  0
LINE
  5
ADE
330
A02
100
AcDbEntity
  8
Polyline
100
AcDbLine
 10
2.329390000
 20
12.568300000
 30
0.000000000
 11
2.223130000
 21
12.608000000
 31
0.000000000
  0
LINE
  5
ADF
330
A02
100
AcDbEntity
  8
Polyline
100
AcDbLine
 10
2.223130000
 20
12.608000000
 30
0.000000000
 11
2.116190000
 21
12.645900000
 31
0.000000000
  0
LINE
  5
AE0
330
A02
100
AcDbEntity
  8
Polyline
100
AcDbLine
 10
2.116190000
 20
12.645900000
 30
0.000000000
 11
2.008610000
 21
12.681900000
 31
0.000000000
  0
LINE
  5
AE1
330
A02
100
AcDbEntity
  8
Polyline
100
AcDbLine
 10
2.008610000
 20
12.681900000
 30
0.000000000
 11
1.039310000
 21
13.000000000
 31
0.000000000
  0
LINE
  5
AE2
330
A02
100
AcDbEntity
  8
Polyline
100
AcDbLine
 10
1.039310000
 20
13.000000000
 30
0.000000000
 11
-45.000000000
 21
13.000000000
 31
0.000000000
  0
LINE
  5
AE3
330
A02
100
AcDbEntity
  8
Polyline
100
AcDbLine
 10
-45.000000000
 20
13.000000000
 30
0.000000000
 11
-45.000000000
 21
13.007300000
 31
0.000000000
  0
LINE
  5
AE4
330
A02
100
AcDbEntity
  8
Polyline
100
AcDbLine
 10
-45.000000000
 20
13.007300000
 30
0.000000000
 11
-45.164800000
 21
13.011600000
 31
0.000000000
  0
LINE
  5
AE5
330
A02
100
AcDbEntity
  8
Polyline
100
AcDbLine
 10
-45.164800000
 20
13.011600000
 30
0.000000000
 11
-45.497000000
 21
13.026100000
 31
0.000000000
  0
LINE
  5
AE6
330
A02
100
AcDbEntity
  8
Polyline
100
AcDbLine
 10
-45.497000000
 20
13.026100000
 30
0.000000000
 11
-45.828900000
 21
13.046400000
 31
0.000000000
  0
LINE
  5
AE7
330
A02
100
AcDbEntity
  8
Polyline
100
AcDbLine
 10
-45.828900000
 20
13.046400000
 30
0.000000000
 11
-46.160300000
 21
13.072500000
 31
0.000000000
  0
LINE
  5
AE8
330
A02
100
AcDbEntity
  8
Polyline
100
AcDbLine
 10
-46.160300000
 20
13.072500000
 30
0.000000000
 11
-46.491300000
 21
13.104400000
 31
0.000000000
  0
LINE
  5
AE9
330
A02
100
AcDbEntity
  8
Polyline
100
AcDbLine
 10
-46.491300000
 20
13.104400000
 30
0.000000000
 11
-46.821600000
 21
13.142000000
 31
0.000000000
  0
LINE
  5
AEA
330
A02
100
AcDbEntity
  8
Polyline
100
AcDbLine
 10
-46.821600000
 20
13.142000000
 30
0.000000000
 11
-47.151200000
 21
13.185400000
 31
0.000000000
  0
LINE
  5
AEB
330
A02
100
AcDbEntity
  8
Polyline
100
AcDbLine
 10
-47.151200000
 20
13.185400000
 30
0.000000000
 11
-47.480100000
 21
13.234500000
 31
0.000000000
  0
LINE
  5
AEC
330
A02
100
AcDbEntity
  8
Polyline
100
AcDbLine
 10
-47.480100000
 20
13.234500000
 30
0.000000000
 11
-47.808000000
 21
13.289400000
 31
0.000000000
  0
LINE
  5
AED
330
A02
100
AcDbEntity
  8
Polyline
100
AcDbLine
 10
-47.808000000
 20
13.289400000
 30
0.000000000
 11
-48.134900000
 21
13.350000000
 31
0.000000000
  0
LINE
  5
AEE
330
A02
100
AcDbEntity
  8
Polyline
100
AcDbLine
 10
-48.134900000
 20
13.350000000
 30
0.000000000
 11
-48.460700000
 21
13.416300000
 31
0.000000000
  0
LINE
  5
AEF
330
A02
100
AcDbEntity
  8
Polyline
100
AcDbLine
 10
-48.460700000
 20
13.416300000
 30
0.000000000
 11
-48.785300000
 21
13.488300000
 31
0.000000000
  0
LINE
  5
AF0
330
A02
100
AcDbEntity
  8
Polyline
100
AcDbLine
 10
-48.785300000
 20
13.488300000
 30
0.000000000
 11
-49.108600000
 21
13.565900000
 31
0.000000000
  0
LINE
  5
AF1
330
A02
100
AcDbEntity
  8
Polyline
100
AcDbLine
 10
-49.108600000
 20
13.565900000
 30
0.000000000
 11
-49.430500000
 21
13.649100000
 31
0.000000000
  0
LINE
  5
AF2
330
A02
100
AcDbEntity
  8
Polyline
100
AcDbLine
 10
-49.430500000
 20
13.649100000
 30
0.000000000
 11
-49.750900000
 21
13.738000000
 31
0.000000000
  0
LINE
  5
AF3
330
A02
100
AcDbEntity
  8
Polyline
100
AcDbLine
 10
-49.750900000
 20
13.738000000
 30
0.000000000
 11
-50.069700000
 21
13.832400000
 31
0.000000000
  0
LINE
  5
AF4
330
A02
100
AcDbEntity
  8
Polyline
100
AcDbLine
 10
-50.069700000
 20
13.832400000
 30
0.000000000
 11
-50.386800000
 21
13.932400000
 31
0.000000000
  0
LINE
  5
AF5
330
A02
100
AcDbEntity
  8
Polyline
100
AcDbLine
 10
-50.386800000
 20
13.932400000
 30
0.000000000
 11
-50.702100000
 21
14.037900000
 31
0.000000000
  0
LINE
  5
AF6
330
A02
100
AcDbEntity
  8
Polyline
100
AcDbLine
 10
-50.702100000
 20
14.037900000
 30
0.000000000
 11
-51.015500000
 21
14.148900000
 31
0.000000000
  0
LINE
  5
AF7
330
A02
100
AcDbEntity
  8
Polyline
100
AcDbLine
 10
-51.015500000
 20
14.148900000
 30
0.000000000
 11
-51.326900000
 21
14.265300000
 31
0.000000000
  0
LINE
  5
AF8
330
A02
100
AcDbEntity
  8
Polyline
100
AcDbLine
 10
-51.326900000
 20
14.265300000
 30
0.000000000
 11
-51.636300000
 21
14.387100000
 31
0.000000000
  0
LINE
  5
AF9
330
A02
100
AcDbEntity
  8
Polyline
100
AcDbLine
 10
-51.636300000
 20
14.387100000
 30
0.000000000
 11
-51.943400000
 21
14.514400000
 31
0.000000000
  0
LINE
  5
AFA
330
A02
100
AcDbEntity
  8
Polyline
100
AcDbLine
 10
-51.943400000
 20
14.514400000
 30
0.000000000
 11
-52.248300000
 21
14.647000000
 31
0.000000000
  0
LINE
  5
AFB
330
A02
100
AcDbEntity
  8
Polyline
100
AcDbLine
 10
-52.248300000
 20
14.647000000
 30
0.000000000
 11
-52.550900000
 21
14.784800000
 31
0.000000000
  0
LINE
  5
AFC
330
A02
100
AcDbEntity
  8
Polyline
100
AcDbLine
 10
-52.550900000
 20
14.784800000
 30
0.000000000
 11
-52.851000000
 21
14.928000000
 31
0.000000000
  0
LINE
  5
AFD
330
A02
100
AcDbEntity
  8
Polyline
100
AcDbLine
 10
-52.851000000
 20
14.928000000
 30
0.000000000
 11
-53.148500000
 21
15.076300000
 31
0.000000000
  0
LINE
  5
AFE
330
A02
100
AcDbEntity
  8
Polyline
100
AcDbLine
 10
-53.148500000
 20
15.076300000
 30
0.000000000
 11
-53.443400000
 21
15.229800000
 31
0.000000000
  0
LINE
  5
AFF
330
A02
100
AcDbEntity
  8
Polyline
100
AcDbLine
 10
-53.443400000
 20
15.229800000
 30
0.000000000
 11
-53.735600000
 21
15.388500000
 31
0.000000000
  0
LINE
  5
B00
330
A02
100
AcDbEntity
  8
Polyline
100
AcDbLine
 10
-53.735600000
 20
15.388500000
 30
0.000000000
 11
-54.025000000
 21
15.552200000
 31
0.000000000
  0
LINE
  5
B01
330
A02
100
AcDbEntity
  8
Polyline
100
AcDbLine
 10
-54.025000000
 20
15.552200000
 30
0.000000000
 11
-54.311500000
 21
15.721000000
 31
0.000000000
  0
LINE
  5
B02
330
A02
100
AcDbEntity
  8
Polyline
100
AcDbLine
 10
-54.311500000
 20
15.721000000
 30
0.000000000
 11
-54.595000000
 21
15.894700000
 31
0.000000000
  0
LINE
  5
B03
330
A02
100
AcDbEntity
  8
Polyline
100
AcDbLine
 10
-54.595000000
 20
15.894700000
 30
0.000000000
 11
-54.875400000
 21
16.073300000
 31
0.000000000
  0
LINE
  5
B04
330
A02
100
AcDbEntity
  8
Polyline
100
AcDbLine
 10
-54.875400000
 20
16.073300000
 30
0.000000000
 11
-55.152600000
 21
16.256800000
 31
0.000000000
  0
LINE
  5
B05
330
A02
100
AcDbEntity
  8
Polyline
100
AcDbLine
 10
-55.152600000
 20
16.256800000
 30
0.000000000
 11
-55.426600000
 21
16.445200000
 31
0.000000000
  0
LINE
  5
B06
330
A02
100
AcDbEntity
  8
Polyline
100
AcDbLine
 10
-55.426600000
 20
16.445200000
 30
0.000000000
 11
-55.697300000
 21
16.638200000
 31
0.000000000
  0
LINE
  5
B07
330
A02
100
AcDbEntity
  8
Polyline
100
AcDbLine
 10
-55.697300000
 20
16.638200000
 30
0.000000000
 11
-55.964600000
 21
16.836000000
 31
0.000000000
  0
LINE
  5
B08
330
A02
100
AcDbEntity
  8
Polyline
100
AcDbLine
 10
-55.964600000
 20
16.836000000
 30
0.000000000
 11
-56.228400000
 21
17.038400000
 31
0.000000000
  0
LINE
  5
B09
330
A02
100
AcDbEntity
  8
Polyline
100
AcDbLine
 10
-56.228400000
 20
17.038400000
 30
0.000000000
 11
-56.488600000
 21
17.245400000
 31
0.000000000
  0
LINE
  5
B0A
330
A02
100
AcDbEntity
  8
Polyline
100
AcDbLine
 10
-56.488600000
 20
17.245400000
 30
0.000000000
 11
-56.745100000
 21
17.456900000
 31
0.000000000
  0
LINE
  5
B0B
330
A02
100
AcDbEntity
  8
Polyline
100
AcDbLine
 10
-56.745100000
 20
17.456900000
 30
0.000000000
 11
-56.997900000
 21
17.672800000
 31
0.000000000
  0
LINE
  5
B0C
330
A02
100
AcDbEntity
  8
Polyline
100
AcDbLine
 10
-56.997900000
 20
17.672800000
 30
0.000000000
 11
-57.246900000
 21
17.893100000
 31
0.000000000
  0
LINE
  5
B0D
330
A02
100
AcDbEntity
  8
Polyline
100
AcDbLine
 10
-57.246900000
 20
17.893100000
 30
0.000000000
 11
-57.492100000
 21
18.117700000
 31
0.000000000
  0
LINE
  5
B0E
330
A02
100
AcDbEntity
  8
Polyline
100
AcDbLine
 10
-57.492100000
 20
18.117700000
 30
0.000000000
 11
-57.733200000
 21
18.346600000
 31
0.000000000
  0
LINE
  5
B0F
330
A02
100
AcDbEntity
  8
Polyline
100
AcDbLine
 10
-57.733200000
 20
18.346600000
 30
0.000000000
 11
-57.970400000
 21
18.579600000
 31
0.000000000
  0
LINE
  5
B10
330
A02
100
AcDbEntity
  8
Polyline
100
AcDbLine
 10
-57.970400000
 20
18.579600000
 30
0.000000000
 11
-58.203400000
 21
18.816800000
 31
0.000000000
  0
LINE
  5
B11
330
A02
100
AcDbEntity
  8
Polyline
100
AcDbLine
 10
-58.203400000
 20
18.816800000
 30
0.000000000
 11
-58.432300000
 21
19.057900000
 31
0.000000000
  0
LINE
  5
B12
330
A02
100
AcDbEntity
  8
Polyline
100
AcDbLine
 10
-58.432300000
 20
19.057900000
 30
0.000000000
 11
-58.656900000
 21
19.303100000
 31
0.000000000
  0
LINE
  5
B13
330
A02
100
AcDbEntity
  8
Polyline
100
AcDbLine
 10
-58.656900000
 20
19.303100000
 30
0.000000000
 11
-58.877200000
 21
19.552100000
 31
0.000000000
  0
LINE
  5
B14
330
A02
100
AcDbEntity
  8
Polyline
100
AcDbLine
 10
-58.877200000
 20
19.552100000
 30
0.000000000
 11
-59.093100000
 21
19.804900000
 31
0.000000000
  0
LINE
  5
B15
330
A02
100
AcDbEntity
  8
Polyline
100
AcDbLine
 10
-59.093100000
 20
19.804900000
 30
0.000000000
 11
-59.304600000
 21
20.061400000
 31
0.000000000
  0
LINE
  5
B16
330
A02
100
AcDbEntity
  8
Polyline
100
AcDbLine
 10
-59.304600000
 20
20.061400000
 30
0.000000000
 11
-59.511600000
 21
20.321600000
 31
0.000000000
  0
LINE
  5
B17
330
A02
100
AcDbEntity
  8
Polyline
100
AcDbLine
 10
-59.511600000
 20
20.321600000
 30
0.000000000
 11
-59.714000000
 21
20.585400000
 31
0.000000000
  0
LINE
  5
B18
330
A02
100
AcDbEntity
  8
Polyline
100
AcDbLine
 10
-59.714000000
 20
20.585400000
 30
0.000000000
 11
-59.911800000
 21
20.852700000
 31
0.000000000
  0
LINE
  5
B19
330
A02
100
AcDbEntity
  8
Polyline
100
AcDbLine
 10
-59.911800000
 20
20.852700000
 30
0.000000000
 11
-60.104800000
 21
21.123400000
 31
0.000000000
  0
LINE
  5
B1A
330
A02
100
AcDbEntity
  8
Polyline
100
AcDbLine
 10
-60.104800000
 20
21.123400000
 30
0.000000000
 11
-60.293200000
 21
21.397400000
 31
0.000000000
  0
LINE
  5
B1B
330
A02
100
AcDbEntity
  8
Polyline
100
AcDbLine
 10
-60.293200000
 20
21.397400000
 30
0.000000000
 11
-60.476700000
 21
21.674600000
 31
0.000000000
  0
LINE
  5
B1C
330
A02
100
AcDbEntity
  8
Polyline
100
AcDbLine
 10
-60.476700000
 20
21.674600000
 30
0.000000000
 11
-60.655300000
 21
21.955000000
 31
0.000000000
  0
LINE
  5
B1D
330
A02
100
AcDbEntity
  8
Polyline
100
AcDbLine
 10
-60.655300000
 20
21.955000000
 30
0.000000000
 11
-60.829000000
 21
22.238500000
 31
0.000000000
  0
LINE
  5
B1E
330
A02
100
AcDbEntity
  8
Polyline
100
AcDbLine
 10
-60.829000000
 20
22.238500000
 30
0.000000000
 11
-60.997800000
 21
22.525000000
 31
0.000000000
  0
LINE
  5
B1F
330
A02
100
AcDbEntity
  8
Polyline
100
AcDbLine
 10
-60.997800000
 20
22.525000000
 30
0.000000000
 11
-61.161500000
 21
22.814400000
 31
0.000000000
  0
LINE
  5
B20
330
A02
100
AcDbEntity
  8
Polyline
100
AcDbLine
 10
-61.161500000
 20
22.814400000
 30
0.000000000
 11
-61.320200000
 21
23.106600000
 31
0.000000000
  0
LINE
  5
B21
330
A02
100
AcDbEntity
  8
Polyline
100
AcDbLine
 10
-61.320200000
 20
23.106600000
 30
0.000000000
 11
-61.473700000
 21
23.401500000
 31
0.000000000
  0
LINE
  5
B22
330
A02
100
AcDbEntity
  8
Polyline
100
AcDbLine
 10
-61.473700000
 20
23.401500000
 30
0.000000000
 11
-61.622000000
 21
23.699000000
 31
0.000000000
  0
LINE
  5
B23
330
A02
100
AcDbEntity
  8
Polyline
100
AcDbLine
 10
-61.622000000
 20
23.699000000
 30
0.000000000
 11
-61.765200000
 21
23.999100000
 31
0.000000000
  0
LINE
  5
B24
330
A02
100
AcDbEntity
  8
Polyline
100
AcDbLine
 10
-61.765200000
 20
23.999100000
 30
0.000000000
 11
-61.903000000
 21
24.301700000
 31
0.000000000
  0
LINE
  5
B25
330
A02
100
AcDbEntity
  8
Polyline
100
AcDbLine
 10
-61.903000000
 20
24.301700000
 30
0.000000000
 11
-62.035600000
 21
24.606600000
 31
0.000000000
  0
LINE
  5
B26
330
A02
100
AcDbEntity
  8
Polyline
100
AcDbLine
 10
-62.035600000
 20
24.606600000
 30
0.000000000
 11
-62.162900000
 21
24.913700000
 31
0.000000000
  0
LINE
  5
B27
330
A02
100
AcDbEntity
  8
Polyline
100
AcDbLine
 10
-62.162900000
 20
24.913700000
 30
0.000000000
 11
-62.284700000
 21
25.223100000
 31
0.000000000
  0
LINE
  5
B28
330
A02
100
AcDbEntity
  8
Polyline
100
AcDbLine
 10
-62.284700000
 20
25.223100000
 30
0.000000000
 11
-62.401100000
 21
25.534500000
 31
0.000000000
  0
LINE
  5
B29
330
A02
100
AcDbEntity
  8
Polyline
100
AcDbLine
 10
-62.401100000
 20
25.534500000
 30
0.000000000
 11
-62.512100000
 21
25.847900000
 31
0.000000000
  0
LINE
  5
B2A
330
A02
100
AcDbEntity
  8
Polyline
100
AcDbLine
 10
-62.512100000
 20
25.847900000
 30
0.000000000
 11
-62.617600000
 21
26.163200000
 31
0.000000000
  0
LINE
  5
B2B
330
A02
100
AcDbEntity
  8
Polyline
100
AcDbLine
 10
-62.617600000
 20
26.163200000
 30
0.000000000
 11
-62.717600000
 21
26.480300000
 31
0.000000000
  0
LINE
  5
B2C
330
A02
100
AcDbEntity
  8
Polyline
100
AcDbLine
 10
-62.717600000
 20
26.480300000
 30
0.000000000
 11
-62.793100000
 21
26.735300000
 31
0.000000000
  0
LINE
  5
B2D
330
A02
100
AcDbEntity
  8
Polyline
100
AcDbLine
 10
-62.793100000
 20
26.735300000
 30
0.000000000
 11
-62.802200000
 21
26.744400000
 31
0.000000000
  0
LINE
  5
B2E
330
A02
100
AcDbEntity
  8
Polyline
100
AcDbLine
 10
-62.802200000
 20
26.744400000
 30
0.000000000
 11
-62.804400000
 21
26.752900000
 31
0.000000000
  0
LINE
  5
B2F
330
A02
100
AcDbEntity
  8
Polyline
100
AcDbLine
 10
-62.804400000
 20
26.752900000
 30
0.000000000
 11
-62.832400000
 21
26.853800000
 31
0.000000000
  0
LINE
  5
B30
330
A02
100
AcDbEntity
  8
Polyline
100
AcDbLine
 10
-62.832400000
 20
26.853800000
 30
0.000000000
 11
-62.862200000
 21
26.954200000
 31
0.000000000
  0
LINE
  5
B31
330
A02
100
AcDbEntity
  8
Polyline
100
AcDbLine
 10
-62.862200000
 20
26.954200000
 30
0.000000000
 11
-62.893700000
 21
27.054100000
 31
0.000000000
  0
LINE
  5
B32
330
A02
100
AcDbEntity
  8
Polyline
100
AcDbLine
 10
-62.893700000
 20
27.054100000
 30
0.000000000
 11
-62.926900000
 21
27.153400000
 31
0.000000000
  0
LINE
  5
B33
330
A02
100
AcDbEntity
  8
Polyline
100
AcDbLine
 10
-62.926900000
 20
27.153400000
 30
0.000000000
 11
-62.961800000
 21
27.252100000
 31
0.000000000
  0
LINE
  5
B34
330
A02
100
AcDbEntity
  8
Polyline
100
AcDbLine
 10
-62.961800000
 20
27.252100000
 30
0.000000000
 11
-62.998500000
 21
27.350200000
 31
0.000000000
  0
LINE
  5
B35
330
A02
100
AcDbEntity
  8
Polyline
100
AcDbLine
 10
-62.998500000
 20
27.350200000
 30
0.000000000
 11
-63.036900000
 21
27.447600000
 31
0.000000000
  0
LINE
  5
B36
330
A02
100
AcDbEntity
  8
Polyline
100
AcDbLine
 10
-63.036900000
 20
27.447600000
 30
0.000000000
 11
-63.077000000
 21
27.544400000
 31
0.000000000
  0
LINE
  5
B37
330
A02
100
AcDbEntity
  8
Polyline
100
AcDbLine
 10
-63.077000000
 20
27.544400000
 30
0.000000000
 11
-63.118700000
 21
27.640400000
 31
0.000000000
  0
LINE
  5
B38
330
A02
100
AcDbEntity
  8
Polyline
100
AcDbLine
 10
-63.118700000
 20
27.640400000
 30
0.000000000
 11
-63.162200000
 21
27.735700000
 31
0.000000000
  0
LINE
  5
B39
330
A02
100
AcDbEntity
  8
Polyline
100
AcDbLine
 10
-63.162200000
 20
27.735700000
 30
0.000000000
 11
-63.207200000
 21
27.830200000
 31
0.000000000
  0
LINE
  5
B3A
330
A02
100
AcDbEntity
  8
Polyline
100
AcDbLine
 10
-63.207200000
 20
27.830200000
 30
0.000000000
 11
-63.254000000
 21
27.923900000
 31
0.000000000
  0
LINE
  5
B3B
330
A02
100
AcDbEntity
  8
Polyline
100
AcDbLine
 10
-63.254000000
 20
27.923900000
 30
0.000000000
 11
-63.302300000
 21
28.016800000
 31
0.000000000
  0
LINE
  5
B3C
330
A02
100
AcDbEntity
  8
Polyline
100
AcDbLine
 10
-63.302300000
 20
28.016800000
 30
0.000000000
 11
-63.352300000
 21
28.108900000
 31
0.000000000
  0
LINE
  5
B3D
330
A02
100
AcDbEntity
  8
Polyline
100
AcDbLine
 10
-63.352300000
 20
28.108900000
 30
0.000000000
 11
-63.403800000
 21
28.200000000
 31
0.000000000
  0
LINE
  5
B3E
330
A02
100
AcDbEntity
  8
Polyline
100
AcDbLine
 10
-63.403800000
 20
28.200000000
 30
0.000000000
 11
-63.457000000
 21
28.290200000
 31
0.000000000
  0
LINE
  5
B3F
330
A02
100
AcDbEntity
  8
Polyline
100
AcDbLine
 10
-63.457000000
 20
28.290200000
 30
0.000000000
 11
-63.511700000
 21
28.379500000
 31
0.000000000
  0
LINE
  5
B40
330
A02
100
AcDbEntity
  8
Polyline
100
AcDbLine
 10
-63.511700000
 20
28.379500000
 30
0.000000000
 11
-63.568000000
 21
28.467800000
 31
0.000000000
  0
LINE
  5
B41
330
A02
100
AcDbEntity
  8
Polyline
100
AcDbLine
 10
-63.568000000
 20
28.467800000
 30
0.000000000
 11
-63.625800000
 21
28.555200000
 31
0.000000000
  0
LINE
  5
B42
330
A02
100
AcDbEntity
  8
Polyline
100
AcDbLine
 10
-63.625800000
 20
28.555200000
 30
0.000000000
 11
-63.685100000
 21
28.641500000
 31
0.000000000
  0
LINE
  5
B43
330
A02
100
AcDbEntity
  8
Polyline
100
AcDbLine
 10
-63.685100000
 20
28.641500000
 30
0.000000000
 11
-63.745900000
 21
28.726700000
 31
0.000000000
  0
LINE
  5
B44
330
A02
100
AcDbEntity
  8
Polyline
100
AcDbLine
 10
-63.745900000
 20
28.726700000
 30
0.000000000
 11
-63.808200000
 21
28.810900000
 31
0.000000000
  0
LINE
  5
B45
330
A02
100
AcDbEntity
  8
Polyline
100
AcDbLine
 10
-63.808200000
 20
28.810900000
 30
0.000000000
 11
-63.871900000
 21
28.894000000
 31
0.000000000
  0
LINE
  5
B46
330
A02
100
AcDbEntity
  8
Polyline
100
AcDbLine
 10
-63.871900000
 20
28.894000000
 30
0.000000000
 11
-63.937100000
 21
28.975900000
 31
0.000000000
  0
LINE
  5
B47
330
A02
100
AcDbEntity
  8
Polyline
100
AcDbLine
 10
-63.937100000
 20
28.975900000
 30
0.000000000
 11
-64.003700000
 21
29.056700000
 31
0.000000000
  0
LINE
  5
B48
330
A02
100
AcDbEntity
  8
Polyline
100
AcDbLine
 10
-64.003700000
 20
29.056700000
 30
0.000000000
 11
-64.071700000
 21
29.136400000
 31
0.000000000
  0
LINE
  5
B49
330
A02
100
AcDbEntity
  8
Polyline
100
AcDbLine
 10
-64.071700000
 20
29.136400000
 30
0.000000000
 11
-64.141100000
 21
29.214800000
 31
0.000000000
  0
LINE
  5
B4A
330
A02
100
AcDbEntity
  8
Polyline
100
AcDbLine
 10
-64.141100000
 20
29.214800000
 30
0.000000000
 11
-64.211900000
 21
29.292000000
 31
0.000000000
  0
LINE
  5
B4B
330
A02
100
AcDbEntity
  8
Polyline
100
AcDbLine
 10
-64.211900000
 20
29.292000000
 30
0.000000000
 11
-64.284000000
 21
29.368000000
 31
0.000000000
  0
LINE
  5
B4C
330
A02
100
AcDbEntity
  8
Polyline
100
AcDbLine
 10
-64.284000000
 20
29.368000000
 30
0.000000000
 11
-64.357400000
 21
29.442600000
 31
0.000000000
  0
LINE
  5
B4D
330
A02
100
AcDbEntity
  8
Polyline
100
AcDbLine
 10
-64.357400000
 20
29.442600000
 30
0.000000000
 11
-64.432000000
 21
29.516000000
 31
0.000000000
  0
LINE
  5
B4E
330
A02
100
AcDbEntity
  8
Polyline
100
AcDbLine
 10
-64.432000000
 20
29.516000000
 30
0.000000000
 11
-64.508000000
 21
29.588100000
 31
0.000000000
  0
LINE
  5
B4F
330
A02
100
AcDbEntity
  8
Polyline
100
AcDbLine
 10
-64.508000000
 20
29.588100000
 30
0.000000000
 11
-64.585200000
 21
29.658900000
 31
0.000000000
  0
LINE
  5
B50
330
A02
100
AcDbEntity
  8
Polyline
100
AcDbLine
 10
-64.585200000
 20
29.658900000
 30
0.000000000
 11
-64.663600000
 21
29.728300000
 31
0.000000000
  0
LINE
  5
B51
330
A02
100
AcDbEntity
  8
Polyline
100
AcDbLine
 10
-64.663600000
 20
29.728300000
 30
0.000000000
 11
-64.743300000
 21
29.796300000
 31
0.000000000
  0
LINE
  5
B52
330
A02
100
AcDbEntity
  8
Polyline
100
AcDbLine
 10
-64.743300000
 20
29.796300000
 30
0.000000000
 11
-64.824100000
 21
29.862900000
 31
0.000000000
  0
LINE
  5
B53
330
A02
100
AcDbEntity
  8
Polyline
100
AcDbLine
 10
-64.824100000
 20
29.862900000
 30
0.000000000
 11
-64.906000000
 21
29.928100000
 31
0.000000000
  0
LINE
  5
B54
330
A02
100
AcDbEntity
  8
Polyline
100
AcDbLine
 10
-64.906000000
 20
29.928100000
 30
0.000000000
 11
-64.989100000
 21
29.991800000
 31
0.000000000
  0
LINE
  5
B55
330
A02
100
AcDbEntity
  8
Polyline
100
AcDbLine
 10
-64.989100000
 20
29.991800000
 30
0.000000000
 11
-65.073300000
 21
30.054100000
 31
0.000000000
  0
LINE
  5
B56
330
A02
100
AcDbEntity
  8
Polyline
100
AcDbLine
 10
-65.073300000
 20
30.054100000
 30
0.000000000
 11
-65.158500000
 21
30.114900000
 31
0.000000000
  0
LINE
  5
B57
330
A02
100
AcDbEntity
  8
Polyline
100
AcDbLine
 10
-65.158500000
 20
30.114900000
 30
0.000000000
 11
-65.244800000
 21
30.174200000
 31
0.000000000
  0
LINE
  5
B58
330
A02
100
AcDbEntity
  8
Polyline
100
AcDbLine
 10
-65.244800000
 20
30.174200000
 30
0.000000000
 11
-65.332200000
 21
30.232000000
 31
0.000000000
  0
LINE
  5
B59
330
A02
100
AcDbEntity
  8
Polyline
100
AcDbLine
 10
-65.332200000
 20
30.232000000
 30
0.000000000
 11
-65.420500000
 21
30.288300000
 31
0.000000000
  0
LINE
  5
B5A
330
A02
100
AcDbEntity
  8
Polyline
100
AcDbLine
 10
-65.420500000
 20
30.288300000
 30
0.000000000
 11
-65.509800000
 21
30.343000000
 31
0.000000000
  0
LINE
  5
B5B
330
A02
100
AcDbEntity
  8
Polyline
100
AcDbLine
 10
-65.509800000
 20
30.343000000
 30
0.000000000
 11
-65.600000000
 21
30.396200000
 31
0.000000000
  0
LINE
  5
B5C
330
A02
100
AcDbEntity
  8
Polyline
100
AcDbLine
 10
-65.600000000
 20
30.396200000
 30
0.000000000
 11
-65.691100000
 21
30.447700000
 31
0.000000000
  0
LINE
  5
B5D
330
A02
100
AcDbEntity
  8
Polyline
100
AcDbLine
 10
-65.691100000
 20
30.447700000
 30
0.000000000
 11
-65.783200000
 21
30.497700000
 31
0.000000000
  0
LINE
  5
B5E
330
A02
100
AcDbEntity
  8
Polyline
100
AcDbLine
 10
-65.783200000
 20
30.497700000
 30
0.000000000
 11
-65.876100000
 21
30.546000000
 31
0.000000000
  0
LINE
  5
B5F
330
A02
100
AcDbEntity
  8
Polyline
100
AcDbLine
 10
-65.876100000
 20
30.546000000
 30
0.000000000
 11
-65.969800000
 21
30.592800000
 31
0.000000000
  0
LINE
  5
B60
330
A02
100
AcDbEntity
  8
Polyline
100
AcDbLine
 10
-65.969800000
 20
30.592800000
 30
0.000000000
 11
-66.064300000
 21
30.637800000
 31
0.000000000
  0
LINE
  5
B61
330
A02
100
AcDbEntity
  8
Polyline
100
AcDbLine
 10
-66.064300000
 20
30.637800000
 30
0.000000000
 11
-66.159600000
 21
30.681300000
 31
0.000000000
  0
LINE
  5
B62
330
A02
100
AcDbEntity
  8
Polyline
100
AcDbLine
 10
-66.159600000
 20
30.681300000
 30
0.000000000
 11
-66.255600000
 21
30.723000000
 31
0.000000000
  0
LINE
  5
B63
330
A02
100
AcDbEntity
  8
Polyline
100
AcDbLine
 10
-66.255600000
 20
30.723000000
 30
0.000000000
 11
-66.352400000
 21
30.763100000
 31
0.000000000
  0
LINE
  5
B64
330
A02
100
AcDbEntity
  8
Polyline
100
AcDbLine
 10
-66.352400000
 20
30.763100000
 30
0.000000000
 11
-66.449800000
 21
30.801500000
 31
0.000000000
  0
LINE
  5
B65
330
A02
100
AcDbEntity
  8
Polyline
100
AcDbLine
 10
-66.449800000
 20
30.801500000
 30
0.000000000
 11
-66.547900000
 21
30.838200000
 31
0.000000000
  0
LINE
  5
B66
330
A02
100
AcDbEntity
  8
Polyline
100
AcDbLine
 10
-66.547900000
 20
30.838200000
 30
0.000000000
 11
-66.646600000
 21
30.873100000
 31
0.000000000
  0
LINE
  5
B67
330
A02
100
AcDbEntity
  8
Polyline
100
AcDbLine
 10
-66.646600000
 20
30.873100000
 30
0.000000000
 11
-66.745900000
 21
30.906300000
 31
0.000000000
  0
LINE
  5
B68
330
A02
100
AcDbEntity
  8
Polyline
100
AcDbLine
 10
-66.745900000
 20
30.906300000
 30
0.000000000
 11
-66.845800000
 21
30.937800000
 31
0.000000000
  0
LINE
  5
B69
330
A02
100
AcDbEntity
  8
Polyline
100
AcDbLine
 10
-66.845800000
 20
30.937800000
 30
0.000000000
 11
-66.946200000
 21
30.967600000
 31
0.000000000
  0
LINE
  5
B6A
330
A02
100
AcDbEntity
  8
Polyline
100
AcDbLine
 10
-66.946200000
 20
30.967600000
 30
0.000000000
 11
-67.047100000
 21
30.995600000
 31
0.000000000
  0
LINE
  5
B6B
330
A02
100
AcDbEntity
  8
Polyline
100
AcDbLine
 10
-67.047100000
 20
30.995600000
 30
0.000000000
 11
-67.148500000
 21
31.021800000
 31
0.000000000
  0
LINE
  5
B6C
330
A02
100
AcDbEntity
  8
Polyline
100
AcDbLine
 10
-67.148500000
 20
31.021800000
 30
0.000000000
 11
-67.250300000
 21
31.046200000
 31
0.000000000
  0
LINE
  5
B6D
330
A02
100
AcDbEntity
  8
Polyline
100
AcDbLine
 10
-67.250300000
 20
31.046200000
 30
0.000000000
 11
-67.352500000
 21
31.068900000
 31
0.000000000
  0
LINE
  5
B6E
330
A02
100
AcDbEntity
  8
Polyline
100
AcDbLine
 10
-67.352500000
 20
31.068900000
 30
0.000000000
 11
-67.455100000
 21
31.089800000
 31
0.000000000
  0
LINE
  5
B6F
330
A02
100
AcDbEntity
  8
Polyline
100
AcDbLine
 10
-67.455100000
 20
31.089800000
 30
0.000000000
 11
-67.558100000
 21
31.108800000
 31
0.000000000
  0
LINE
  5
B70
330
A02
100
AcDbEntity
  8
Polyline
100
AcDbLine
 10
-67.558100000
 20
31.108800000
 30
0.000000000
 11
-67.661400000
 21
31.126100000
 31
0.000000000
  0
LINE
  5
B71
330
A02
100
AcDbEntity
  8
Polyline
100
AcDbLine
 10
-67.661400000
 20
31.126100000
 30
0.000000000
 11
-67.765000000
 21
31.141600000
 31
0.000000000
  0
LINE
  5
B72
330
A02
100
AcDbEntity
  8
Polyline
100
AcDbLine
 10
-67.765000000
 20
31.141600000
 30
0.000000000
 11
-67.868800000
 21
31.155300000
 31
0.000000000
  0
LINE
  5
B73
330
A02
100
AcDbEntity
  8
Polyline
100
AcDbLine
 10
-67.868800000
 20
31.155300000
 30
0.000000000
 11
-67.972800000
 21
31.167100000
 31
0.000000000
  0
LINE
  5
B74
330
A02
100
AcDbEntity
  8
Polyline
100
AcDbLine
 10
-67.972800000
 20
31.167100000
 30
0.000000000
 11
-67.985900000
 21
31.168400000
 31
0.000000000
  0
LINE
  5
B75
330
A02
100
AcDbEntity
  8
Polyline
100
AcDbLine
 10
-67.985900000
 20
31.168400000
 30
0.000000000
 11
-68.025100000
 21
31.167800000
 31
0.000000000
  0
LINE
  5
B76
330
A02
100
AcDbEntity
  8
Polyline
100
AcDbLine
 10
-68.025100000
 20
31.167800000
 30
0.000000000
 11
-68.706800000
 21
31.152900000
 31
0.000000000
  0
LINE
  5
B77
330
A02
100
AcDbEntity
  8
Polyline
100
AcDbLine
 10
-68.706800000
 20
31.152900000
 30
0.000000000
 11
-69.392900000
 21
31.134000000
 31
0.000000000
  0
LINE
  5
B78
330
A02
100
AcDbEntity
  8
Polyline
100
AcDbLine
 10
-69.392900000
 20
31.134000000
 30
0.000000000
 11
-70.083100000
 21
31.111000000
 31
0.000000000
  0
LINE
  5
B79
330
A02
100
AcDbEntity
  8
Polyline
100
AcDbLine
 10
-70.083100000
 20
31.111000000
 30
0.000000000
 11
-70.777000000
 21
31.084100000
 31
0.000000000
  0
LINE
  5
B7A
330
A02
100
AcDbEntity
  8
Polyline
100
AcDbLine
 10
-70.777000000
 20
31.084100000
 30
0.000000000
 11
-71.474700000
 21
31.053200000
 31
0.000000000
  0
LINE
  5
B7B
330
A02
100
AcDbEntity
  8
Polyline
100
AcDbLine
 10
-71.474700000
 20
31.053200000
 30
0.000000000
 11
-72.175700000
 21
31.018200000
 31
0.000000000
  0
LINE
  5
B7C
330
A02
100
AcDbEntity
  8
Polyline
100
AcDbLine
 10
-72.175700000
 20
31.018200000
 30
0.000000000
 11
-72.880000000
 21
30.979300000
 31
0.000000000
  0
LINE
  5
B7D
330
A02
100
AcDbEntity
  8
Polyline
100
AcDbLine
 10
-72.880000000
 20
30.979300000
 30
0.000000000
 11
-73.587300000
 21
30.936400000
 31
0.000000000
  0
LINE
  5
B7E
330
A02
100
AcDbEntity
  8
Polyline
100
AcDbLine
 10
-73.587300000
 20
30.936400000
 30
0.000000000
 11
-74.297400000
 21
30.889600000
 31
0.000000000
  0
LINE
  5
B7F
330
A02
100
AcDbEntity
  8
Polyline
100
AcDbLine
 10
-74.297400000
 20
30.889600000
 30
0.000000000
 11
-75.010000000
 21
30.838800000
 31
0.000000000
  0
LINE
  5
B80
330
A02
100
AcDbEntity
  8
Polyline
100
AcDbLine
 10
-75.010000000
 20
30.838800000
 30
0.000000000
 11
-75.725000000
 21
30.784100000
 31
0.000000000
  0
LINE
  5
B81
330
A02
100
AcDbEntity
  8
Polyline
100
AcDbLine
 10
-75.725000000
 20
30.784100000
 30
0.000000000
 11
-76.442100000
 21
30.725500000
 31
0.000000000
  0
LINE
  5
B82
330
A02
100
AcDbEntity
  8
Polyline
100
AcDbLine
 10
-76.442100000
 20
30.725500000
 30
0.000000000
 11
-77.161200000
 21
30.663000000
 31
0.000000000
  0
LINE
  5
B83
330
A02
100
AcDbEntity
  8
Polyline
100
AcDbLine
 10
-77.161200000
 20
30.663000000
 30
0.000000000
 11
-77.882000000
 21
30.596600000
 31
0.000000000
  0
LINE
  5
B84
330
A02
100
AcDbEntity
  8
Polyline
100
AcDbLine
 10
-77.882000000
 20
30.596600000
 30
0.000000000
 11
-78.604200000
 21
30.526300000
 31
0.000000000
  0
LINE
  5
B85
330
A02
100
AcDbEntity
  8
Polyline
100
AcDbLine
 10
-78.604200000
 20
30.526300000
 30
0.000000000
 11
-79.327700000
 21
30.452300000
 31
0.000000000
  0
LINE
  5
B86
330
A02
100
AcDbEntity
  8
Polyline
100
AcDbLine
 10
-79.327700000
 20
30.452300000
 30
0.000000000
 11
-80.052200000
 21
30.374400000
 31
0.000000000
  0
LINE
  5
B87
330
A02
100
AcDbEntity
  8
Polyline
100
AcDbLine
 10
-80.052200000
 20
30.374400000
 30
0.000000000
 11
-80.777500000
 21
30.292700000
 31
0.000000000
  0
LINE
  5
B88
330
A02
100
AcDbEntity
  8
Polyline
100
AcDbLine
 10
-80.777500000
 20
30.292700000
 30
0.000000000
 11
-81.503500000
 21
30.207300000
 31
0.000000000
  0
LINE
  5
B89
330
A02
100
AcDbEntity
  8
Polyline
100
AcDbLine
 10
-81.503500000
 20
30.207300000
 30
0.000000000
 11
-82.229800000
 21
30.118100000
 31
0.000000000
  0
LINE
  5
B8A
330
A02
100
AcDbEntity
  8
Polyline
100
AcDbLine
 10
-82.229800000
 20
30.118100000
 30
0.000000000
 11
-82.956300000
 21
30.025200000
 31
0.000000000
  0
LINE
  5
B8B
330
A02
100
AcDbEntity
  8
Polyline
100
AcDbLine
 10
-82.956300000
 20
30.025200000
 30
0.000000000
 11
-83.682700000
 21
29.928700000
 31
0.000000000
  0
LINE
  5
B8C
330
A02
100
AcDbEntity
  8
Polyline
100
AcDbLine
 10
-83.682700000
 20
29.928700000
 30
0.000000000
 11
-84.408800000
 21
29.828500000
 31
0.000000000
  0
LINE
  5
B8D
330
A02
100
AcDbEntity
  8
Polyline
100
AcDbLine
 10
-84.408800000
 20
29.828500000
 30
0.000000000
 11
-85.134400000
 21
29.724700000
 31
0.000000000
  0
LINE
  5
B8E
330
A02
100
AcDbEntity
  8
Polyline
100
AcDbLine
 10
-85.134400000
 20
29.724700000
 30
0.000000000
 11
-85.859300000
 21
29.617300000
 31
0.000000000
  0
LINE
  5
B8F
330
A02
100
AcDbEntity
  8
Polyline
100
AcDbLine
 10
-85.859300000
 20
29.617300000
 30
0.000000000
 11
-86.583200000
 21
29.506300000
 31
0.000000000
  0
LINE
  5
B90
330
A02
100
AcDbEntity
  8
Polyline
100
AcDbLine
 10
-86.583200000
 20
29.506300000
 30
0.000000000
 11
-87.306000000
 21
29.391800000
 31
0.000000000
  0
LINE
  5
B91
330
A02
100
AcDbEntity
  8
Polyline
100
AcDbLine
 10
-87.306000000
 20
29.391800000
 30
0.000000000
 11
-88.027400000
 21
29.273800000
 31
0.000000000
  0
LINE
  5
B92
330
A02
100
AcDbEntity
  8
Polyline
100
AcDbLine
 10
-88.027400000
 20
29.273800000
 30
0.000000000
 11
-88.747100000
 21
29.152400000
 31
0.000000000
  0
LINE
  5
B93
330
A02
100
AcDbEntity
  8
Polyline
100
AcDbLine
 10
-88.747100000
 20
29.152400000
 30
0.000000000
 11
-89.465100000
 21
29.027600000
 31
0.000000000
  0
LINE
  5
B94
330
A02
100
AcDbEntity
  8
Polyline
100
AcDbLine
 10
-89.465100000
 20
29.027600000
 30
0.000000000
 11
-90.180900000
 21
28.899300000
 31
0.000000000
  0
LINE
  5
B95
330
A02
100
AcDbEntity
  8
Polyline
100
AcDbLine
 10
-90.180900000
 20
28.899300000
 30
0.000000000
 11
-90.894600000
 21
28.767800000
 31
0.000000000
  0
LINE
  5
B96
330
A02
100
AcDbEntity
  8
Polyline
100
AcDbLine
 10
-90.894600000
 20
28.767800000
 30
0.000000000
 11
-91.605700000
 21
28.632900000
 31
0.000000000
  0
LINE
  5
B97
330
A02
100
AcDbEntity
  8
Polyline
100
AcDbLine
 10
-91.605700000
 20
28.632900000
 30
0.000000000
 11
-92.314100000
 21
28.494800000
 31
0.000000000
  0
LINE
  5
B98
330
A02
100
AcDbEntity
  8
Polyline
100
AcDbLine
 10
-92.314100000
 20
28.494800000
 30
0.000000000
 11
-93.019600000
 21
28.353500000
 31
0.000000000
  0
LINE
  5
B99
330
A02
100
AcDbEntity
  8
Polyline
100
AcDbLine
 10
-93.019600000
 20
28.353500000
 30
0.000000000
 11
-93.722000000
 21
28.209000000
 31
0.000000000
  0
LINE
  5
B9A
330
A02
100
AcDbEntity
  8
Polyline
100
AcDbLine
 10
-93.722000000
 20
28.209000000
 30
0.000000000
 11
-94.421000000
 21
28.061400000
 31
0.000000000
  0
LINE
  5
B9B
330
A02
100
AcDbEntity
  8
Polyline
100
AcDbLine
 10
-94.421000000
 20
28.061400000
 30
0.000000000
 11
-95.116500000
 21
27.910700000
 31
0.000000000
  0
LINE
  5
B9C
330
A02
100
AcDbEntity
  8
Polyline
100
AcDbLine
 10
-95.116500000
 20
27.910700000
 30
0.000000000
 11
-95.808200000
 21
27.757000000
 31
0.000000000
  0
LINE
  5
B9D
330
A02
100
AcDbEntity
  8
Polyline
100
AcDbLine
 10
-95.808200000
 20
27.757000000
 30
0.000000000
 11
-96.496000000
 21
27.600300000
 31
0.000000000
  0
LINE
  5
B9E
330
A02
100
AcDbEntity
  8
Polyline
100
AcDbLine
 10
-96.496000000
 20
27.600300000
 30
0.000000000
 11
-97.179500000
 21
27.440600000
 31
0.000000000
  0
LINE
  5
B9F
330
A02
100
AcDbEntity
  8
Polyline
100
AcDbLine
 10
-97.179500000
 20
27.440600000
 30
0.000000000
 11
-97.858600000
 21
27.278000000
 31
0.000000000
  0
LINE
  5
BA0
330
A02
100
AcDbEntity
  8
Polyline
100
AcDbLine
 10
-97.858600000
 20
27.278000000
 30
0.000000000
 11
-98.533100000
 21
27.112600000
 31
0.000000000
  0
LINE
  5
BA1
330
A02
100
AcDbEntity
  8
Polyline
100
AcDbLine
 10
-98.533100000
 20
27.112600000
 30
0.000000000
 11
-99.202900000
 21
26.944500000
 31
0.000000000
  0
LINE
  5
BA2
330
A02
100
AcDbEntity
  8
Polyline
100
AcDbLine
 10
-99.202900000
 20
26.944500000
 30
0.000000000
 11
-99.867600000
 21
26.773500000
 31
0.000000000
  0
LINE
  5
BA3
330
A02
100
AcDbEntity
  8
Polyline
100
AcDbLine
 10
-99.867600000
 20
26.773500000
 30
0.000000000
 11
-100.527000000
 21
26.599900000
 31
0.000000000
  0
LINE
  5
BA4
330
A02
100
AcDbEntity
  8
Polyline
100
AcDbLine
 10
-100.527000000
 20
26.599900000
 30
0.000000000
 11
-101.181000000
 21
26.423600000
 31
0.000000000
  0
LINE
  5
BA5
330
A02
100
AcDbEntity
  8
Polyline
100
AcDbLine
 10
-101.181000000
 20
26.423600000
 30
0.000000000
 11
-101.830000000
 21
26.244800000
 31
0.000000000
  0
LINE
  5
BA6
330
A02
100
AcDbEntity
  8
Polyline
100
AcDbLine
 10
-101.830000000
 20
26.244800000
 30
0.000000000
 11
-102.472000000
 21
26.063400000
 31
0.000000000
  0
LINE
  5
BA7
330
A02
100
AcDbEntity
  8
Polyline
100
AcDbLine
 10
-102.472000000
 20
26.063400000
 30
0.000000000
 11
-103.109000000
 21
25.879600000
 31
0.000000000
  0
LINE
  5
BA8
330
A02
100
AcDbEntity
  8
Polyline
100
AcDbLine
 10
-103.109000000
 20
25.879600000
 30
0.000000000
 11
-103.739000000
 21
25.693300000
 31
0.000000000
  0
LINE
  5
BA9
330
A02
100
AcDbEntity
  8
Polyline
100
AcDbLine
 10
-103.739000000
 20
25.693300000
 30
0.000000000
 11
-104.363000000
 21
25.504700000
 31
0.000000000
  0
LINE
  5
BAA
330
A02
100
AcDbEntity
  8
Polyline
100
AcDbLine
 10
-104.363000000
 20
25.504700000
 30
0.000000000
 11
-104.981000000
 21
25.313800000
 31
0.000000000
  0
LINE
  5
BAB
330
A02
100
AcDbEntity
  8
Polyline
100
AcDbLine
 10
-104.981000000
 20
25.313800000
 30
0.000000000
 11
-105.591000000
 21
25.120600000
 31
0.000000000
  0
LINE
  5
BAC
330
A02
100
AcDbEntity
  8
Polyline
100
AcDbLine
 10
-105.591000000
 20
25.120600000
 30
0.000000000
 11
-106.195000000
 21
24.925300000
 31
0.000000000
  0
LINE
  5
BAD
330
A02
100
AcDbEntity
  8
Polyline
100
AcDbLine
 10
-106.195000000
 20
24.925300000
 30
0.000000000
 11
-106.792000000
 21
24.727800000
 31
0.000000000
  0
LINE
  5
BAE
330
A02
100
AcDbEntity
  8
Polyline
100
AcDbLine
 10
-106.792000000
 20
24.727800000
 30
0.000000000
 11
-107.381000000
 21
24.528300000
 31
0.000000000
  0
LINE
  5
BAF
330
A02
100
AcDbEntity
  8
Polyline
100
AcDbLine
 10
-107.381000000
 20
24.528300000
 30
0.000000000
 11
-107.963000000
 21
24.326700000
 31
0.000000000
  0
LINE
  5
BB0
330
A02
100
AcDbEntity
  8
Polyline
100
AcDbLine
 10
-107.963000000
 20
24.326700000
 30
0.000000000
 11
-108.537000000
 21
24.123200000
 31
0.000000000
  0
LINE
  5
BB1
330
A02
100
AcDbEntity
  8
Polyline
100
AcDbLine
 10
-108.537000000
 20
24.123200000
 30
0.000000000
 11
-109.103000000
 21
23.917900000
 31
0.000000000
  0
LINE
  5
BB2
330
A02
100
AcDbEntity
  8
Polyline
100
AcDbLine
 10
-109.103000000
 20
23.917900000
 30
0.000000000
 11
-109.661000000
 21
23.710700000
 31
0.000000000
  0
LINE
  5
BB3
330
A02
100
AcDbEntity
  8
Polyline
100
AcDbLine
 10
-109.661000000
 20
23.710700000
 30
0.000000000
 11
-110.211000000
 21
23.501700000
 31
0.000000000
  0
LINE
  5
BB4
330
A02
100
AcDbEntity
  8
Polyline
100
AcDbLine
 10
-110.211000000
 20
23.501700000
 30
0.000000000
 11
-110.752000000
 21
23.291100000
 31
0.000000000
  0
LINE
  5
BB5
330
A02
100
AcDbEntity
  8
Polyline
100
AcDbLine
 10
-110.752000000
 20
23.291100000
 30
0.000000000
 11
-111.285000000
 21
23.078800000
 31
0.000000000
  0
LINE
  5
BB6
330
A02
100
AcDbEntity
  8
Polyline
100
AcDbLine
 10
-111.285000000
 20
23.078800000
 30
0.000000000
 11
-111.810000000
 21
22.865000000
 31
0.000000000
  0
LINE
  5
BB7
330
A02
100
AcDbEntity
  8
Polyline
100
AcDbLine
 10
-111.810000000
 20
22.865000000
 30
0.000000000
 11
-112.325000000
 21
22.649600000
 31
0.000000000
  0
LINE
  5
BB8
330
A02
100
AcDbEntity
  8
Polyline
100
AcDbLine
 10
-112.325000000
 20
22.649600000
 30
0.000000000
 11
-112.832000000
 21
22.432900000
 31
0.000000000
  0
LINE
  5
BB9
330
A02
100
AcDbEntity
  8
Polyline
100
AcDbLine
 10
-112.832000000
 20
22.432900000
 30
0.000000000
 11
-113.329000000
 21
22.214700000
 31
0.000000000
  0
LINE
  5
BBA
330
A02
100
AcDbEntity
  8
Polyline
100
AcDbLine
 10
-113.329000000
 20
22.214700000
 30
0.000000000
 11
-113.817000000
 21
21.995300000
 31
0.000000000
  0
LINE
  5
BBB
330
A02
100
AcDbEntity
  8
Polyline
100
AcDbLine
 10
-113.817000000
 20
21.995300000
 30
0.000000000
 11
-114.296000000
 21
21.774600000
 31
0.000000000
  0
LINE
  5
BBC
330
A02
100
AcDbEntity
  8
Polyline
100
AcDbLine
 10
-114.296000000
 20
21.774600000
 30
0.000000000
 11
-114.765000000
 21
21.552800000
 31
0.000000000
  0
LINE
  5
BBD
330
A02
100
AcDbEntity
  8
Polyline
100
AcDbLine
 10
-114.765000000
 20
21.552800000
 30
0.000000000
 11
-115.224000000
 21
21.329900000
 31
0.000000000
  0
LINE
  5
BBE
330
A02
100
AcDbEntity
  8
Polyline
100
AcDbLine
 10
-115.224000000
 20
21.329900000
 30
0.000000000
 11
-115.673000000
 21
21.105900000
 31
0.000000000
  0
LINE
  5
BBF
330
A02
100
AcDbEntity
  8
Polyline
100
AcDbLine
 10
-115.673000000
 20
21.105900000
 30
0.000000000
 11
-116.112000000
 21
20.881000000
 31
0.000000000
  0
LINE
  5
BC0
330
A02
100
AcDbEntity
  8
Polyline
100
AcDbLine
 10
-116.112000000
 20
20.881000000
 30
0.000000000
 11
-116.541000000
 21
20.655200000
 31
0.000000000
  0
LINE
  5
BC1
330
A02
100
AcDbEntity
  8
Polyline
100
AcDbLine
 10
-116.541000000
 20
20.655200000
 30
0.000000000
 11
-116.960000000
 21
20.428500000
 31
0.000000000
  0
LINE
  5
BC2
330
A02
100
AcDbEntity
  8
Polyline
100
AcDbLine
 10
-116.960000000
 20
20.428500000
 30
0.000000000
 11
-117.368000000
 21
20.201100000
 31
0.000000000
  0
LINE
  5
BC3
330
A02
100
AcDbEntity
  8
Polyline
100
AcDbLine
 10
-117.368000000
 20
20.201100000
 30
0.000000000
 11
-117.766000000
 21
19.973000000
 31
0.000000000
  0
LINE
  5
BC4
330
A02
100
AcDbEntity
  8
Polyline
100
AcDbLine
 10
-117.766000000
 20
19.973000000
 30
0.000000000
 11
-118.153000000
 21
19.744300000
 31
0.000000000
  0
LINE
  5
BC5
330
A02
100
AcDbEntity
  8
Polyline
100
AcDbLine
 10
-118.153000000
 20
19.744300000
 30
0.000000000
 11
-118.530000000
 21
19.515100000
 31
0.000000000
  0
LINE
  5
BC6
330
A02
100
AcDbEntity
  8
Polyline
100
AcDbLine
 10
-118.530000000
 20
19.515100000
 30
0.000000000
 11
-118.895000000
 21
19.285300000
 31
0.000000000
  0
LINE
  5
BC7
330
A02
100
AcDbEntity
  8
Polyline
100
AcDbLine
 10
-118.895000000
 20
19.285300000
 30
0.000000000
 11
-119.250000000
 21
19.055200000
 31
0.000000000
  0
LINE
  5
BC8
330
A02
100
AcDbEntity
  8
Polyline
100
AcDbLine
 10
-119.250000000
 20
19.055200000
 30
0.000000000
 11
-119.593000000
 21
18.824700000
 31
0.000000000
  0
LINE
  5
BC9
330
A02
100
AcDbEntity
  8
Polyline
100
AcDbLine
 10
-119.593000000
 20
18.824700000
 30
0.000000000
 11
-119.925000000
 21
18.594000000
 31
0.000000000
  0
LINE
  5
BCA
330
A02
100
AcDbEntity
  8
Polyline
100
AcDbLine
 10
-119.925000000
 20
18.594000000
 30
0.000000000
 11
-120.246000000
 21
18.363000000
 31
0.000000000
  0
LINE
  5
BCB
330
A02
100
AcDbEntity
  8
Polyline
100
AcDbLine
 10
-120.246000000
 20
18.363000000
 30
0.000000000
 11
-120.555000000
 21
18.132000000
 31
0.000000000
  0
LINE
  5
BCC
330
A02
100
AcDbEntity
  8
Polyline
100
AcDbLine
 10
-120.555000000
 20
18.132000000
 30
0.000000000
 11
-120.853000000
 21
17.900800000
 31
0.000000000
  0
LINE
  5
BCD
330
A02
100
AcDbEntity
  8
Polyline
100
AcDbLine
 10
-120.853000000
 20
17.900800000
 30
0.000000000
 11
-121.139000000
 21
17.669700000
 31
0.000000000
  0
LINE
  5
BCE
330
A02
100
AcDbEntity
  8
Polyline
100
AcDbLine
 10
-121.139000000
 20
17.669700000
 30
0.000000000
 11
-121.414000000
 21
17.438700000
 31
0.000000000
  0
LINE
  5
BCF
330
A02
100
AcDbEntity
  8
Polyline
100
AcDbLine
 10
-121.414000000
 20
17.438700000
 30
0.000000000
 11
-121.676000000
 21
17.207800000
 31
0.000000000
  0
LINE
  5
BD0
330
A02
100
AcDbEntity
  8
Polyline
100
AcDbLine
 10
-121.676000000
 20
17.207800000
 30
0.000000000
 11
-121.927000000
 21
16.977200000
 31
0.000000000
  0
LINE
  5
BD1
330
A02
100
AcDbEntity
  8
Polyline
100
AcDbLine
 10
-121.927000000
 20
16.977200000
 30
0.000000000
 11
-122.166000000
 21
16.746800000
 31
0.000000000
  0
LINE
  5
BD2
330
A02
100
AcDbEntity
  8
Polyline
100
AcDbLine
 10
-122.166000000
 20
16.746800000
 30
0.000000000
 11
-122.393000000
 21
16.516800000
 31
0.000000000
  0
LINE
  5
BD3
330
A02
100
AcDbEntity
  8
Polyline
100
AcDbLine
 10
-122.393000000
 20
16.516800000
 30
0.000000000
 11
-122.608000000
 21
16.287300000
 31
0.000000000
  0
LINE
  5
BD4
330
A02
100
AcDbEntity
  8
Polyline
100
AcDbLine
 10
-122.608000000
 20
16.287300000
 30
0.000000000
 11
-122.810000000
 21
16.058200000
 31
0.000000000
  0
LINE
  5
BD5
330
A02
100
AcDbEntity
  8
Polyline
100
AcDbLine
 10
-122.810000000
 20
16.058200000
 30
0.000000000
 11
-123.001000000
 21
15.829700000
 31
0.000000000
  0
LINE
  5
BD6
330
A02
100
AcDbEntity
  8
Polyline
100
AcDbLine
 10
-123.001000000
 20
15.829700000
 30
0.000000000
 11
-123.179000000
 21
15.601900000
 31
0.000000000
  0
LINE
  5
BD7
330
A02
100
AcDbEntity
  8
Polyline
100
AcDbLine
 10
-123.179000000
 20
15.601900000
 30
0.000000000
 11
-123.345000000
 21
15.374800000
 31
0.000000000
  0
LINE
  5
BD8
330
A02
100
AcDbEntity
  8
Polyline
100
AcDbLine
 10
-123.345000000
 20
15.374800000
 30
0.000000000
 11
-123.499000000
 21
15.148400000
 31
0.000000000
  0
LINE
  5
BD9
330
A02
100
AcDbEntity
  8
Polyline
100
AcDbLine
 10
-123.499000000
 20
15.148400000
 30
0.000000000
 11
-123.640000000
 21
14.923000000
 31
0.000000000
  0
LINE
  5
BDA
330
A02
100
AcDbEntity
  8
Polyline
100
AcDbLine
 10
-123.640000000
 20
14.923000000
 30
0.000000000
 11
-123.768000000
 21
14.698400000
 31
0.000000000
  0
LINE
  5
BDB
330
A02
100
AcDbEntity
  8
Polyline
100
AcDbLine
 10
-123.768000000
 20
14.698400000
 30
0.000000000
 11
-123.885000000
 21
14.474800000
 31
0.000000000
  0
LINE
  5
BDC
330
A02
100
AcDbEntity
  8
Polyline
100
AcDbLine
 10
-123.885000000
 20
14.474800000
 30
0.000000000
 11
-123.988000000
 21
14.252300000
 31
0.000000000
  0
LINE
  5
BDD
330
A02
100
AcDbEntity
  8
Polyline
100
AcDbLine
 10
-123.988000000
 20
14.252300000
 30
0.000000000
 11
-124.079000000
 21
14.030900000
 31
0.000000000
  0
LINE
  5
BDE
330
A02
100
AcDbEntity
  8
Polyline
100
AcDbLine
 10
-124.079000000
 20
14.030900000
 30
0.000000000
 11
-124.158000000
 21
13.810700000
 31
0.000000000
  0
LINE
  5
BDF
330
A02
100
AcDbEntity
  8
Polyline
100
AcDbLine
 10
-124.158000000
 20
13.810700000
 30
0.000000000
 11
-124.224000000
 21
13.591800000
 31
0.000000000
  0
LINE
  5
BE0
330
A02
100
AcDbEntity
  8
Polyline
100
AcDbLine
 10
-124.224000000
 20
13.591800000
 30
0.000000000
 11
-124.572000000
 21
12.193500000
 31
0.000000000
  0
LINE
  5
BE1
330
A02
100
AcDbEntity
  8
Polyline
100
AcDbLine
 10
-124.572000000
 20
12.193500000
 30
0.000000000
 11
-124.601000000
 21
12.074700000
 31
0.000000000
  0
LINE
  5
BE2
330
A02
100
AcDbEntity
  8
Polyline
100
AcDbLine
 10
-124.601000000
 20
12.074700000
 30
0.000000000
 11
-124.627000000
 21
11.955400000
 31
0.000000000
  0
LINE
  5
BE3
330
A02
100
AcDbEntity
  8
Polyline
100
AcDbLine
 10
-124.627000000
 20
11.955400000
 30
0.000000000
 11
-124.651000000
 21
11.835700000
 31
0.000000000
  0
LINE
  5
BE4
330
A02
100
AcDbEntity
  8
Polyline
100
AcDbLine
 10
-124.651000000
 20
11.835700000
 30
0.000000000
 11
-124.674000000
 21
11.715500000
 31
0.000000000
  0
LINE
  5
BE5
330
A02
100
AcDbEntity
  8
Polyline
100
AcDbLine
 10
-124.674000000
 20
11.715500000
 30
0.000000000
 11
-124.694000000
 21
11.595000000
 31
0.000000000
  0
LINE
  5
BE6
330
A02
100
AcDbEntity
  8
Polyline
100
AcDbLine
 10
-124.694000000
 20
11.595000000
 30
0.000000000
 11
-124.712000000
 21
11.474200000
 31
0.000000000
  0
LINE
  5
BE7
330
A02
100
AcDbEntity
  8
Polyline
100
AcDbLine
 10
-124.712000000
 20
11.474200000
 30
0.000000000
 11
-124.728000000
 21
11.353100000
 31
0.000000000
  0
LINE
  5
BE8
330
A02
100
AcDbEntity
  8
Polyline
100
AcDbLine
 10
-124.728000000
 20
11.353100000
 30
0.000000000
 11
-124.742000000
 21
11.231700000
 31
0.000000000
  0
LINE
  5
BE9
330
A02
100
AcDbEntity
  8
Polyline
100
AcDbLine
 10
-124.742000000
 20
11.231700000
 30
0.000000000
 11
-124.753000000
 21
11.110100000
 31
0.000000000
  0
LINE
  5
BEA
330
A02
100
AcDbEntity
  8
Polyline
100
AcDbLine
 10
-124.753000000
 20
11.110100000
 30
0.000000000
 11
-124.763000000
 21
10.988300000
 31
0.000000000
  0
LINE
  5
BEB
330
A02
100
AcDbEntity
  8
Polyline
100
AcDbLine
 10
-124.763000000
 20
10.988300000
 30
0.000000000
 11
-124.770000000
 21
10.866400000
 31
0.000000000
  0
LINE
  5
BEC
330
A02
100
AcDbEntity
  8
Polyline
100
AcDbLine
 10
-124.770000000
 20
10.866400000
 30
0.000000000
 11
-124.776000000
 21
10.744300000
 31
0.000000000
  0
LINE
  5
BED
330
A02
100
AcDbEntity
  8
Polyline
100
AcDbLine
 10
-124.776000000
 20
10.744300000
 30
0.000000000
 11
-124.779000000
 21
10.622200000
 31
0.000000000
  0
LINE
  5
BEE
330
A02
100
AcDbEntity
  8
Polyline
100
AcDbLine
 10
-124.779000000
 20
10.622200000
 30
0.000000000
 11
-124.780000000
 21
10.500000000
 31
0.000000000
  0
LINE
  5
BEF
330
A02
100
AcDbEntity
  8
Polyline
100
AcDbLine
 10
-124.780000000
 20
10.500000000
 30
0.000000000
 11
-124.779000000
 21
10.377800000
 31
0.000000000
  0
LINE
  5
BF0
330
A02
100
AcDbEntity
  8
Polyline
100
AcDbLine
 10
-124.779000000
 20
10.377800000
 30
0.000000000
 11
-124.776000000
 21
10.255700000
 31
0.000000000
  0
LINE
  5
BF1
330
A02
100
AcDbEntity
  8
Polyline
100
AcDbLine
 10
-124.776000000
 20
10.255700000
 30
0.000000000
 11
-124.770000000
 21
10.133600000
 31
0.000000000
  0
LINE
  5
BF2
330
A02
100
AcDbEntity
  8
Polyline
100
AcDbLine
 10
-124.770000000
 20
10.133600000
 30
0.000000000
 11
-124.763000000
 21
10.011700000
 31
0.000000000
  0
LINE
  5
BF3
330
A02
100
AcDbEntity
  8
Polyline
100
AcDbLine
 10
-124.763000000
 20
10.011700000
 30
0.000000000
 11
-124.753000000
 21
9.889910000
 31
0.000000000
  0
LINE
  5
BF4
330
A02
100
AcDbEntity
  8
Polyline
100
AcDbLine
 10
-124.753000000
 20
9.889910000
 30
0.000000000
 11
-124.742000000
 21
9.768300000
 31
0.000000000
  0
LINE
  5
BF5
330
A02
100
AcDbEntity
  8
Polyline
100
AcDbLine
 10
-124.742000000
 20
9.768300000
 30
0.000000000
 11
-124.728000000
 21
9.646910000
 31
0.000000000
  0
LINE
  5
BF6
330
A02
100
AcDbEntity
  8
Polyline
100
AcDbLine
 10
-124.728000000
 20
9.646910000
 30
0.000000000
 11
-124.712000000
 21
9.525790000
 31
0.000000000
  0
LINE
  5
BF7
330
A02
100
AcDbEntity
  8
Polyline
100
AcDbLine
 10
-124.712000000
 20
9.525790000
 30
0.000000000
 11
-124.694000000
 21
9.404960000
 31
0.000000000
  0
LINE
  5
BF8
330
A02
100
AcDbEntity
  8
Polyline
100
AcDbLine
 10
-124.694000000
 20
9.404960000
 30
0.000000000
 11
-124.674000000
 21
9.284460000
 31
0.000000000
  0
LINE
  5
BF9
330
A02
100
AcDbEntity
  8
Polyline
100
AcDbLine
 10
-124.674000000
 20
9.284460000
 30
0.000000000
 11
-124.651000000
 21
9.164340000
 31
0.000000000
  0
LINE
  5
BFA
330
A02
100
AcDbEntity
  8
Polyline
100
AcDbLine
 10
-124.651000000
 20
9.164340000
 30
0.000000000
 11
-124.627000000
 21
9.044620000
 31
0.000000000
  0
LINE
  5
BFB
330
A02
100
AcDbEntity
  8
Polyline
100
AcDbLine
 10
-124.627000000
 20
9.044620000
 30
0.000000000
 11
-124.601000000
 21
8.925340000
 31
0.000000000
  0
LINE
  5
BFC
330
A02
100
AcDbEntity
  8
Polyline
100
AcDbLine
 10
-124.601000000
 20
8.925340000
 30
0.000000000
 11
-124.572000000
 21
8.806550000
 31
0.000000000
  0
LINE
  5
BFD
330
A02
100
AcDbEntity
  8
Polyline
100
AcDbLine
 10
-124.572000000
 20
8.806550000
 30
0.000000000
 11
-124.541000000
 21
8.688270000
 31
0.000000000
  0
LINE
  5
BFE
330
A02
100
AcDbEntity
  8
Polyline
100
AcDbLine
 10
-124.541000000
 20
8.688270000
 30
0.000000000
 11
-124.509000000
 21
8.570540000
 31
0.000000000
  0
LINE
  5
BFF
330
A02
100
AcDbEntity
  8
Polyline
100
AcDbLine
 10
-124.509000000
 20
8.570540000
 30
0.000000000
 11
-124.474000000
 21
8.453400000
 31
0.000000000
  0
LINE
  5
C00
330
A02
100
AcDbEntity
  8
Polyline
100
AcDbLine
 10
-124.474000000
 20
8.453400000
 30
0.000000000
 11
-124.437000000
 21
8.336880000
 31
0.000000000
  0
LINE
  5
C01
330
A02
100
AcDbEntity
  8
Polyline
100
AcDbLine
 10
-124.437000000
 20
8.336880000
 30
0.000000000
 11
-124.399000000
 21
8.221020000
 31
0.000000000
  0
LINE
  5
C02
330
A02
100
AcDbEntity
  8
Polyline
100
AcDbLine
 10
-124.399000000
 20
8.221020000
 30
0.000000000
 11
-124.358000000
 21
8.105860000
 31
0.000000000
  0
LINE
  5
C03
330
A02
100
AcDbEntity
  8
Polyline
100
AcDbLine
 10
-124.358000000
 20
8.105860000
 30
0.000000000
 11
-124.315000000
 21
7.991420000
 31
0.000000000
  0
LINE
  5
C04
330
A02
100
AcDbEntity
  8
Polyline
100
AcDbLine
 10
-124.315000000
 20
7.991420000
 30
0.000000000
 11
-124.270000000
 21
7.877750000
 31
0.000000000
  0
LINE
  5
C05
330
A02
100
AcDbEntity
  8
Polyline
100
AcDbLine
 10
-124.270000000
 20
7.877750000
 30
0.000000000
 11
-124.224000000
 21
7.764880000
 31
0.000000000
  0
LINE
  5
C06
330
A02
100
AcDbEntity
  8
Polyline
100
AcDbLine
 10
-124.224000000
 20
7.764880000
 30
0.000000000
 11
-124.175000000
 21
7.652840000
 31
0.000000000
  0
LINE
  5
C07
330
A02
100
AcDbEntity
  8
Polyline
100
AcDbLine
 10
-124.175000000
 20
7.652840000
 30
0.000000000
 11
-124.124000000
 21
7.541670000
 31
0.000000000
  0
LINE
  5
C08
330
A02
100
AcDbEntity
  8
Polyline
100
AcDbLine
 10
-124.124000000
 20
7.541670000
 30
0.000000000
 11
-124.072000000
 21
7.431400000
 31
0.000000000
  0
LINE
  5
C09
330
A02
100
AcDbEntity
  8
Polyline
100
AcDbLine
 10
-124.072000000
 20
7.431400000
 30
0.000000000
 11
-124.017000000
 21
7.322070000
 31
0.000000000
  0
LINE
  5
C0A
330
A02
100
AcDbEntity
  8
Polyline
100
AcDbLine
 10
-124.017000000
 20
7.322070000
 30
0.000000000
 11
-123.961000000
 21
7.213700000
 31
0.000000000
  0
LINE
  5
C0B
330
A02
100
AcDbEntity
  8
Polyline
100
AcDbLine
 10
-123.961000000
 20
7.213700000
 30
0.000000000
 11
-123.902000000
 21
7.106330000
 31
0.000000000
  0
LINE
  5
C0C
330
A02
100
AcDbEntity
  8
Polyline
100
AcDbLine
 10
-123.902000000
 20
7.106330000
 30
0.000000000
 11
-123.842000000
 21
7.000000000
 31
0.000000000
  0
LINE
  5
C0D
330
A02
100
AcDbEntity
  8
Polyline
100
AcDbLine
 10
-123.842000000
 20
7.000000000
 30
0.000000000
 11
-123.780000000
 21
6.894730000
 31
0.000000000
  0
LINE
  5
C0E
330
A02
100
AcDbEntity
  8
Polyline
100
AcDbLine
 10
-123.780000000
 20
6.894730000
 30
0.000000000
 11
-123.716000000
 21
6.790570000
 31
0.000000000
  0
LINE
  5
C0F
330
A02
100
AcDbEntity
  8
Polyline
100
AcDbLine
 10
-123.716000000
 20
6.790570000
 30
0.000000000
 11
-123.651000000
 21
6.687530000
 31
0.000000000
  0
LINE
  5
C10
330
A02
100
AcDbEntity
  8
Polyline
100
AcDbLine
 10
-123.651000000
 20
6.687530000
 30
0.000000000
 11
-123.583000000
 21
6.585650000
 31
0.000000000
  0
LINE
  5
C11
330
A02
100
AcDbEntity
  8
Polyline
100
AcDbLine
 10
-123.583000000
 20
6.585650000
 30
0.000000000
 11
-123.514000000
 21
6.484960000
 31
0.000000000
  0
LINE
  5
C12
330
A02
100
AcDbEntity
  8
Polyline
100
AcDbLine
 10
-123.514000000
 20
6.484960000
 30
0.000000000
 11
-123.443000000
 21
6.385500000
 31
0.000000000
  0
LINE
  5
C13
330
A02
100
AcDbEntity
  8
Polyline
100
AcDbLine
 10
-123.443000000
 20
6.385500000
 30
0.000000000
 11
-123.370000000
 21
6.287290000
 31
0.000000000
  0
LINE
  5
C14
330
A02
100
AcDbEntity
  8
Polyline
100
AcDbLine
 10
-123.370000000
 20
6.287290000
 30
0.000000000
 11
-123.296000000
 21
6.190370000
 31
0.000000000
  0
LINE
  5
C15
330
A02
100
AcDbEntity
  8
Polyline
100
AcDbLine
 10
-123.296000000
 20
6.190370000
 30
0.000000000
 11
-123.220000000
 21
6.094760000
 31
0.000000000
  0
LINE
  5
C16
330
A02
100
AcDbEntity
  8
Polyline
100
AcDbLine
 10
-123.220000000
 20
6.094760000
 30
0.000000000
 11
-123.142000000
 21
6.000490000
 31
0.000000000
  0
LINE
  5
C17
330
A02
100
AcDbEntity
  8
Polyline
100
AcDbLine
 10
-123.142000000
 20
6.000490000
 30
0.000000000
 11
-123.063000000
 21
5.907590000
 31
0.000000000
  0
LINE
  5
C18
330
A02
100
AcDbEntity
  8
Polyline
100
AcDbLine
 10
-123.063000000
 20
5.907590000
 30
0.000000000
 11
-122.982000000
 21
5.816090000
 31
0.000000000
  0
LINE
  5
C19
330
A02
100
AcDbEntity
  8
Polyline
100
AcDbLine
 10
-122.982000000
 20
5.816090000
 30
0.000000000
 11
-122.899000000
 21
5.726010000
 31
0.000000000
  0
LINE
  5
C1A
330
A02
100
AcDbEntity
  8
Polyline
100
AcDbLine
 10
-122.899000000
 20
5.726010000
 30
0.000000000
 11
-122.815000000
 21
5.637390000
 31
0.000000000
  0
LINE
  5
C1B
330
A02
100
AcDbEntity
  8
Polyline
100
AcDbLine
 10
-122.815000000
 20
5.637390000
 30
0.000000000
 11
-122.730000000
 21
5.550250000
 31
0.000000000
  0
LINE
  5
C1C
330
A02
100
AcDbEntity
  8
Polyline
100
AcDbLine
 10
-122.730000000
 20
5.550250000
 30
0.000000000
 11
-122.643000000
 21
5.464620000
 31
0.000000000
  0
LINE
  5
C1D
330
A02
100
AcDbEntity
  8
Polyline
100
AcDbLine
 10
-122.643000000
 20
5.464620000
 30
0.000000000
 11
-122.554000000
 21
5.380520000
 31
0.000000000
  0
LINE
  5
C1E
330
A02
100
AcDbEntity
  8
Polyline
100
AcDbLine
 10
-122.554000000
 20
5.380520000
 30
0.000000000
 11
-122.464000000
 21
5.297990000
 31
0.000000000
  0
LINE
  5
C1F
330
A02
100
AcDbEntity
  8
Polyline
100
AcDbLine
 10
-122.464000000
 20
5.297990000
 30
0.000000000
 11
-122.372000000
 21
5.217030000
 31
0.000000000
  0
LINE
  5
C20
330
A02
100
AcDbEntity
  8
Polyline
100
AcDbLine
 10
-122.372000000
 20
5.217030000
 30
0.000000000
 11
-122.280000000
 21
5.137690000
 31
0.000000000
  0
LINE
  5
C21
330
A02
100
AcDbEntity
  8
Polyline
100
AcDbLine
 10
-122.280000000
 20
5.137690000
 30
0.000000000
 11
-122.185000000
 21
5.059980000
 31
0.000000000
  0
LINE
  5
C22
330
A02
100
AcDbEntity
  8
Polyline
100
AcDbLine
 10
-122.185000000
 20
5.059980000
 30
0.000000000
 11
-122.090000000
 21
4.983920000
 31
0.000000000
  0
LINE
  5
C23
330
A02
100
AcDbEntity
  8
Polyline
100
AcDbLine
 10
-122.090000000
 20
4.983920000
 30
0.000000000
 11
-121.993000000
 21
4.909550000
 31
0.000000000
  0
LINE
  5
C24
330
A02
100
AcDbEntity
  8
Polyline
100
AcDbLine
 10
-121.993000000
 20
4.909550000
 30
0.000000000
 11
-121.894000000
 21
4.836880000
 31
0.000000000
  0
LINE
  5
C25
330
A02
100
AcDbEntity
  8
Polyline
100
AcDbLine
 10
-121.894000000
 20
4.836880000
 30
0.000000000
 11
-121.795000000
 21
4.765940000
 31
0.000000000
  0
LINE
  5
C26
330
A02
100
AcDbEntity
  8
Polyline
100
AcDbLine
 10
-121.795000000
 20
4.765940000
 30
0.000000000
 11
-121.694000000
 21
4.696740000
 31
0.000000000
  0
LINE
  5
C27
330
A02
100
AcDbEntity
  8
Polyline
100
AcDbLine
 10
-121.694000000
 20
4.696740000
 30
0.000000000
 11
-121.592000000
 21
4.629310000
 31
0.000000000
  0
LINE
  5
C28
330
A02
100
AcDbEntity
  8
Polyline
100
AcDbLine
 10
-121.592000000
 20
4.629310000
 30
0.000000000
 11
-121.489000000
 21
4.563660000
 31
0.000000000
  0
LINE
  5
C29
330
A02
100
AcDbEntity
  8
Polyline
100
AcDbLine
 10
-121.489000000
 20
4.563660000
 30
0.000000000
 11
-121.385000000
 21
4.499830000
 31
0.000000000
  0
LINE
  5
C2A
330
A02
100
AcDbEntity
  8
Polyline
100
AcDbLine
 10
-121.385000000
 20
4.499830000
 30
0.000000000
 11
-121.280000000
 21
4.437820000
 31
0.000000000
  0
LINE
  5
C2B
330
A02
100
AcDbEntity
  8
Polyline
100
AcDbLine
 10
-121.280000000
 20
4.437820000
 30
0.000000000
 11
-121.174000000
 21
4.377660000
 31
0.000000000
  0
LINE
  5
C2C
330
A02
100
AcDbEntity
  8
Polyline
100
AcDbLine
 10
-121.174000000
 20
4.377660000
 30
0.000000000
 11
-121.066000000
 21
4.319370000
 31
0.000000000
  0
LINE
  5
C2D
330
A02
100
AcDbEntity
  8
Polyline
100
AcDbLine
 10
-121.066000000
 20
4.319370000
 30
0.000000000
 11
-120.958000000
 21
4.262950000
 31
0.000000000
  0
LINE
  5
C2E
330
A02
100
AcDbEntity
  8
Polyline
100
AcDbLine
 10
-120.958000000
 20
4.262950000
 30
0.000000000
 11
-120.849000000
 21
4.208440000
 31
0.000000000
  0
LINE
  5
C2F
330
A02
100
AcDbEntity
  8
Polyline
100
AcDbLine
 10
-120.849000000
 20
4.208440000
 30
0.000000000
 11
-120.738000000
 21
4.155850000
 31
0.000000000
  0
LINE
  5
C30
330
A02
100
AcDbEntity
  8
Polyline
100
AcDbLine
 10
-120.738000000
 20
4.155850000
 30
0.000000000
 11
-120.627000000
 21
4.105180000
 31
0.000000000
  0
LINE
  5
C31
330
A02
100
AcDbEntity
  8
Polyline
100
AcDbLine
 10
-120.627000000
 20
4.105180000
 30
0.000000000
 11
-119.969000000
 21
3.806330000
 31
0.000000000
  0
LINE
  5
C32
330
A02
100
AcDbEntity
  8
Polyline
100
AcDbLine
 10
-119.969000000
 20
3.806330000
 30
0.000000000
 11
-119.729000000
 21
3.700000000
 31
0.000000000
  0
LINE
  5
C33
330
A02
100
AcDbEntity
  8
Polyline
100
AcDbLine
 10
-119.729000000
 20
3.700000000
 30
0.000000000
 11
-119.481000000
 21
3.594730000
 31
0.000000000
  0
LINE
  5
C34
330
A02
100
AcDbEntity
  8
Polyline
100
AcDbLine
 10
-119.481000000
 20
3.594730000
 30
0.000000000
 11
-119.225000000
 21
3.490570000
 31
0.000000000
  0
LINE
  5
C35
330
A02
100
AcDbEntity
  8
Polyline
100
AcDbLine
 10
-119.225000000
 20
3.490570000
 30
0.000000000
 11
-118.963000000
 21
3.387530000
 31
0.000000000
  0
LINE
  5
C36
330
A02
100
AcDbEntity
  8
Polyline
100
AcDbLine
 10
-118.963000000
 20
3.387530000
 30
0.000000000
 11
-118.693000000
 21
3.285650000
 31
0.000000000
  0
LINE
  5
C37
330
A02
100
AcDbEntity
  8
Polyline
100
AcDbLine
 10
-118.693000000
 20
3.285650000
 30
0.000000000
 11
-118.416000000
 21
3.184960000
 31
0.000000000
  0
LINE
  5
C38
330
A02
100
AcDbEntity
  8
Polyline
100
AcDbLine
 10
-118.416000000
 20
3.184960000
 30
0.000000000
 11
-118.132000000
 21
3.085500000
 31
0.000000000
  0
LINE
  5
C39
330
A02
100
AcDbEntity
  8
Polyline
100
AcDbLine
 10
-118.132000000
 20
3.085500000
 30
0.000000000
 11
-117.842000000
 21
2.987290000
 31
0.000000000
  0
LINE
  5
C3A
330
A02
100
AcDbEntity
  8
Polyline
100
AcDbLine
 10
-117.842000000
 20
2.987290000
 30
0.000000000
 11
-117.544000000
 21
2.890370000
 31
0.000000000
  0
LINE
  5
C3B
330
A02
100
AcDbEntity
  8
Polyline
100
AcDbLine
 10
-117.544000000
 20
2.890370000
 30
0.000000000
 11
-117.240000000
 21
2.794760000
 31
0.000000000
  0
LINE
  5
C3C
330
A02
100
AcDbEntity
  8
Polyline
100
AcDbLine
 10
-117.240000000
 20
2.794760000
 30
0.000000000
 11
-116.929000000
 21
2.700490000
 31
0.000000000
  0
LINE
  5
C3D
330
A02
100
AcDbEntity
  8
Polyline
100
AcDbLine
 10
-116.929000000
 20
2.700490000
 30
0.000000000
 11
-116.612000000
 21
2.607590000
 31
0.000000000
  0
LINE
  5
C3E
330
A02
100
AcDbEntity
  8
Polyline
100
AcDbLine
 10
-116.612000000
 20
2.607590000
 30
0.000000000
 11
-116.288000000
 21
2.516090000
 31
0.000000000
  0
LINE
  5
C3F
330
A02
100
AcDbEntity
  8
Polyline
100
AcDbLine
 10
-116.288000000
 20
2.516090000
 30
0.000000000
 11
-115.958000000
 21
2.426010000
 31
0.000000000
  0
LINE
  5
C40
330
A02
100
AcDbEntity
  8
Polyline
100
AcDbLine
 10
-115.958000000
 20
2.426010000
 30
0.000000000
 11
-115.622000000
 21
2.337390000
 31
0.000000000
  0
LINE
  5
C41
330
A02
100
AcDbEntity
  8
Polyline
100
AcDbLine
 10
-115.622000000
 20
2.337390000
 30
0.000000000
 11
-115.279000000
 21
2.250250000
 31
0.000000000
  0
LINE
  5
C42
330
A02
100
AcDbEntity
  8
Polyline
100
AcDbLine
 10
-115.279000000
 20
2.250250000
 30
0.000000000
 11
-114.930000000
 21
2.164620000
 31
0.000000000
  0
LINE
  5
C43
330
A02
100
AcDbEntity
  8
Polyline
100
AcDbLine
 10
-114.930000000
 20
2.164620000
 30
0.000000000
 11
-114.576000000
 21
2.080520000
 31
0.000000000
  0
LINE
  5
C44
330
A02
100
AcDbEntity
  8
Polyline
100
AcDbLine
 10
-114.576000000
 20
2.080520000
 30
0.000000000
 11
-114.216000000
 21
1.997990000
 31
0.000000000
  0
LINE
  5
C45
330
A02
100
AcDbEntity
  8
Polyline
100
AcDbLine
 10
-114.216000000
 20
1.997990000
 30
0.000000000
 11
-113.850000000
 21
1.917030000
 31
0.000000000
  0
LINE
  5
C46
330
A02
100
AcDbEntity
  8
Polyline
100
AcDbLine
 10
-113.850000000
 20
1.917030000
 30
0.000000000
 11
-113.478000000
 21
1.837690000
 31
0.000000000
  0
LINE
  5
C47
330
A02
100
AcDbEntity
  8
Polyline
100
AcDbLine
 10
-113.478000000
 20
1.837690000
 30
0.000000000
 11
-113.101000000
 21
1.759980000
 31
0.000000000
  0
LINE
  5
C48
330
A02
100
AcDbEntity
  8
Polyline
100
AcDbLine
 10
-113.101000000
 20
1.759980000
 30
0.000000000
 11
-112.719000000
 21
1.683920000
 31
0.000000000
  0
LINE
  5
C49
330
A02
100
AcDbEntity
  8
Polyline
100
AcDbLine
 10
-112.719000000
 20
1.683920000
 30
0.000000000
 11
-112.331000000
 21
1.609550000
 31
0.000000000
  0
LINE
  5
C4A
330
A02
100
AcDbEntity
  8
Polyline
100
AcDbLine
 10
-112.331000000
 20
1.609550000
 30
0.000000000
 11
-111.938000000
 21
1.536880000
 31
0.000000000
  0
LINE
  5
C4B
330
A02
100
AcDbEntity
  8
Polyline
100
AcDbLine
 10
-111.938000000
 20
1.536880000
 30
0.000000000
 11
-111.540000000
 21
1.465940000
 31
0.000000000
  0
LINE
  5
C4C
330
A02
100
AcDbEntity
  8
Polyline
100
AcDbLine
 10
-111.540000000
 20
1.465940000
 30
0.000000000
 11
-111.137000000
 21
1.396740000
 31
0.000000000
  0
LINE
  5
C4D
330
A02
100
AcDbEntity
  8
Polyline
100
AcDbLine
 10
-111.137000000
 20
1.396740000
 30
0.000000000
 11
-110.730000000
 21
1.329310000
 31
0.000000000
  0
LINE
  5
C4E
330
A02
100
AcDbEntity
  8
Polyline
100
AcDbLine
 10
-110.730000000
 20
1.329310000
 30
0.000000000
 11
-110.318000000
 21
1.263660000
 31
0.000000000
  0
LINE
  5
C4F
330
A02
100
AcDbEntity
  8
Polyline
100
AcDbLine
 10
-110.318000000
 20
1.263660000
 30
0.000000000
 11
-109.901000000
 21
1.199830000
 31
0.000000000
  0
LINE
  5
C50
330
A02
100
AcDbEntity
  8
Polyline
100
AcDbLine
 10
-109.901000000
 20
1.199830000
 30
0.000000000
 11
-109.480000000
 21
1.137820000
 31
0.000000000
  0
LINE
  5
C51
330
A02
100
AcDbEntity
  8
Polyline
100
AcDbLine
 10
-109.480000000
 20
1.137820000
 30
0.000000000
 11
-109.055000000
 21
1.077660000
 31
0.000000000
  0
LINE
  5
C52
330
A02
100
AcDbEntity
  8
Polyline
100
AcDbLine
 10
-109.055000000
 20
1.077660000
 30
0.000000000
 11
-108.625000000
 21
1.019370000
 31
0.000000000
  0
LINE
  5
C53
330
A02
100
AcDbEntity
  8
Polyline
100
AcDbLine
 10
-108.625000000
 20
1.019370000
 30
0.000000000
 11
-108.192000000
 21
0.962954000
 31
0.000000000
  0
LINE
  5
C54
330
A02
100
AcDbEntity
  8
Polyline
100
AcDbLine
 10
-108.192000000
 20
0.962954000
 30
0.000000000
 11
-107.754000000
 21
0.908442000
 31
0.000000000
  0
LINE
  5
C55
330
A02
100
AcDbEntity
  8
Polyline
100
AcDbLine
 10
-107.754000000
 20
0.908442000
 30
0.000000000
 11
-107.313000000
 21
0.855845000
 31
0.000000000
  0
LINE
  5
C56
330
A02
100
AcDbEntity
  8
Polyline
100
AcDbLine
 10
-107.313000000
 20
0.855845000
 30
0.000000000
 11
-106.869000000
 21
0.805182000
 31
0.000000000
  0
LINE
  5
C57
330
A02
100
AcDbEntity
  8
Polyline
100
AcDbLine
 10
-106.869000000
 20
0.805182000
 30
0.000000000
 11
-106.420000000
 21
0.756466000
 31
0.000000000
  0
LINE
  5
C58
330
A02
100
AcDbEntity
  8
Polyline
100
AcDbLine
 10
-106.420000000
 20
0.756466000
 30
0.000000000
 11
-105.969000000
 21
0.709713000
 31
0.000000000
  0
LINE
  5
C59
330
A02
100
AcDbEntity
  8
Polyline
100
AcDbLine
 10
-105.969000000
 20
0.709713000
 30
0.000000000
 11
-105.514000000
 21
0.664937000
 31
0.000000000
  0
LINE
  5
C5A
330
A02
100
AcDbEntity
  8
Polyline
100
AcDbLine
 10
-105.514000000
 20
0.664937000
 30
0.000000000
 11
-105.057000000
 21
0.622152000
 31
0.000000000
  0
LINE
  5
C5B
330
A02
100
AcDbEntity
  8
Polyline
100
AcDbLine
 10
-105.057000000
 20
0.622152000
 30
0.000000000
 11
-104.596000000
 21
0.581370000
 31
0.000000000
  0
LINE
  5
C5C
330
A02
100
AcDbEntity
  8
Polyline
100
AcDbLine
 10
-104.596000000
 20
0.581370000
 30
0.000000000
 11
-104.132000000
 21
0.542604000
 31
0.000000000
  0
LINE
  5
C5D
330
A02
100
AcDbEntity
  8
Polyline
100
AcDbLine
 10
-104.132000000
 20
0.542604000
 30
0.000000000
 11
-103.666000000
 21
0.505867000
 31
0.000000000
  0
LINE
  5
C5E
330
A02
100
AcDbEntity
  8
Polyline
100
AcDbLine
 10
-103.666000000
 20
0.505867000
 30
0.000000000
 11
-103.198000000
 21
0.471168000
 31
0.000000000
  0
LINE
  5
C5F
330
A02
100
AcDbEntity
  8
Polyline
100
AcDbLine
 10
-103.198000000
 20
0.471168000
 30
0.000000000
 11
-102.727000000
 21
0.438519000
 31
0.000000000
  0
LINE
  5
C60
330
A02
100
AcDbEntity
  8
Polyline
100
AcDbLine
 10
-102.727000000
 20
0.438519000
 30
0.000000000
 11
-102.254000000
 21
0.407930000
 31
0.000000000
  0
LINE
  5
C61
330
A02
100
AcDbEntity
  8
Polyline
100
AcDbLine
 10
-102.254000000
 20
0.407930000
 30
0.000000000
 11
-101.779000000
 21
0.379410000
 31
0.000000000
  0
LINE
  5
C62
330
A02
100
AcDbEntity
  8
Polyline
100
AcDbLine
 10
-101.779000000
 20
0.379410000
 30
0.000000000
 11
-101.302000000
 21
0.352967000
 31
0.000000000
  0
LINE
  5
C63
330
A02
100
AcDbEntity
  8
Polyline
100
AcDbLine
 10
-101.302000000
 20
0.352967000
 30
0.000000000
 11
-100.823000000
 21
0.328610000
 31
0.000000000
  0
LINE
  5
C64
330
A02
100
AcDbEntity
  8
Polyline
100
AcDbLine
 10
-100.823000000
 20
0.328610000
 30
0.000000000
 11
-100.342000000
 21
0.306346000
 31
0.000000000
  0
LINE
  5
C65
330
A02
100
AcDbEntity
  8
Polyline
100
AcDbLine
 10
-100.342000000
 20
0.306346000
 30
0.000000000
 11
-99.860200000
 21
0.286182000
 31
0.000000000
  0
LINE
  5
C66
330
A02
100
AcDbEntity
  8
Polyline
100
AcDbLine
 10
-99.860200000
 20
0.286182000
 30
0.000000000
 11
-99.376800000
 21
0.268124000
 31
0.000000000
  0
LINE
  5
C67
330
A02
100
AcDbEntity
  8
Polyline
100
AcDbLine
 10
-99.376800000
 20
0.268124000
 30
0.000000000
 11
-98.892300000
 21
0.252177000
 31
0.000000000
  0
LINE
  5
C68
330
A02
100
AcDbEntity
  8
Polyline
100
AcDbLine
 10
-98.892300000
 20
0.252177000
 30
0.000000000
 11
-98.406800000
 21
0.238347000
 31
0.000000000
  0
LINE
  5
C69
330
A02
100
AcDbEntity
  8
Polyline
100
AcDbLine
 10
-98.406800000
 20
0.238347000
 30
0.000000000
 11
-97.920400000
 21
0.226637000
 31
0.000000000
  0
LINE
  5
C6A
330
A02
100
AcDbEntity
  8
Polyline
100
AcDbLine
 10
-97.920400000
 20
0.226637000
 30
0.000000000
 11
-97.433200000
 21
0.217052000
 31
0.000000000
  0
LINE
  5
C6B
330
A02
100
AcDbEntity
  8
Polyline
100
AcDbLine
 10
-97.433200000
 20
0.217052000
 30
0.000000000
 11
-96.945400000
 21
0.209593000
 31
0.000000000
  0
LINE
  5
C6C
330
A02
100
AcDbEntity
  8
Polyline
100
AcDbLine
 10
-96.945400000
 20
0.209593000
 30
0.000000000
 11
-96.457200000
 21
0.204264000
 31
0.000000000
  0
LINE
  5
C6D
330
A02
100
AcDbEntity
  8
Polyline
100
AcDbLine
 10
-96.457200000
 20
0.204264000
 30
0.000000000
 11
-95.968700000
 21
0.201066000
 31
0.000000000
  0
LINE
  5
C6E
330
A02
100
AcDbEntity
  8
Polyline
100
AcDbLine
 10
-95.968700000
 20
0.201066000
 30
0.000000000
 11
-95.480000000
 21
0.200000000
 31
0.000000000
  0
LINE
  5
C6F
330
A02
100
AcDbEntity
  8
Polyline
100
AcDbLine
 10
-95.480000000
 20
0.200000000
 30
0.000000000
 11
0.000000000
 21
0.000000000
 31
0.000000000
  0
LINE
  5
C70
330
A02
100
AcDbEntity
  8
Polyline
100
AcDbLine
 10
0.000000000
 20
0.000000000
 30
0.000000000
 11
0.113441000
 21
0.000989981
 31
0.000000000
  0
ENDSEC
  0
SECTION
  2
OBJECTS
  0
DICTIONARY
  5
F000
330
0
100
AcDbDictionary
  3
ACAD_GROUP
350
F001
  0
DICTIONARY
  5
F001
330
F000
100
AcDbDictionary
  0
ENDSEC
  0
EOF