999
"DXF R12 Output" (www.mydxf.blogspot.com)
 0 
SECTION
 2 
HEADER
 9 
$ACADVER
 1 
AC1009
 9 
$EXTMIN
 10 
 0 
 20 
 0 
 9 
$EXTMAX
 10 
 8.5 
 20 
 11 
 0 
ENDSEC
 0 
SECTION
 2 
ENTITIES
0
POLYLINE
8
0
62
7
70
0
10
0.000000
20
0.000000
66
1
0
VERTEX
8
0
10
89.588129
20
122.710370
70
0
0
VERTEX
8
0
10
86.927123
20
123.049562
70
0
0
VERTEX
8
0
10
84.332374
20
123.655245
70
0
0
VERTEX
8
0
10
81.822375
20
124.522085
70
0
0
VERTEX
8
0
10
79.415619
20
125.644749
70
0
0
VERTEX
8
0
10
76.812321
20
127.224227
70
0
0
VERTEX
8
0
10
76.342135
20
127.444489
70
0
0
VERTEX
8
0
10
75.828219
20
127.506898
70
0
0
VERTEX
8
0
10
75.336459
20
127.413484
70
0
0
VERTEX
8
0
10
74.932739
20
127.166278
70
0
0
VERTEX
8
0
10
74.809512
20
127.048274
70
0
0
VERTEX
8
0
10
74.472132
20
127.311828
70
0
0
VERTEX
8
0
10
71.594496
20
130.038938
70
0
0
VERTEX
8
0
10
69.747962
20
132.299590
70
0
0
VERTEX
8
0
10
68.156173
20
134.745810
70
0
0
VERTEX
8
0
10
66.836992
20
137.346629
70
0
0
VERTEX
8
0
10
65.808280
20
140.071076
70
0
0
VERTEX
8
0
10
65.386513
20
141.498959
70
0
0
VERTEX
8
0
10
65.292343
20
141.916691
70
0
0
VERTEX
8
0
10
65.463406
20
142.097115
70
0
0
VERTEX
8
0
10
65.888290
20
142.417333
70
0
0
VERTEX
8
0
10
66.183167
20
142.875031
70
0
0
VERTEX
8
0
10
66.283849
20
143.453321
70
0
0
VERTEX
8
0
10
66.217783
20
144.163651
70
0
0
VERTEX
8
0
10
66.042708
20
145.430321
70
0
0
VERTEX
8
0
10
65.939558
20
148.131706
70
0
0
VERTEX
8
0
10
66.042422
20
150.830391
70
0
0
VERTEX
8
0
10
66.570820
20
153.897430
70
0
0
VERTEX
8
0
10
67.441597
20
156.829680
70
0
0
VERTEX
8
0
10
68.655256
20
159.628534
70
0
0
VERTEX
8
0
10
70.212303
20
162.295381
70
0
0
VERTEX
8
0
10
71.509984
20
164.060500
70
0
0
VERTEX
8
0
10
72.993042
20
165.747477
70
0
0
VERTEX
8
0
10
74.603713
20
167.295906
70
0
0
VERTEX
8
0
10
76.284235
20
168.645376
70
0
0
VERTEX
8
0
10
77.150290
20
169.407170
70
0
0
VERTEX
8
0
10
77.372374
20
170.172509
70
0
0
VERTEX
8
0
10
77.319574
20
170.738762
70
0
0
VERTEX
8
0
10
77.246875
20
170.912757
70
0
0
VERTEX
8
0
10
77.625363
20
171.156636
70
0
0
VERTEX
8
0
10
81.228105
20
172.949401
70
0
0
VERTEX
8
0
10
84.454563
20
174.036316
70
0
0
VERTEX
8
0
10
87.807700
20
174.708240
70
0
0
VERTEX
8
0
10
89.615585
20
174.899052
70
0
0
VERTEX
8
0
10
90.232979
20
174.930037
70
0
0
VERTEX
8
0
10
90.232979
20
174.059390
70
0
0
VERTEX
8
0
10
90.232979
20
173.188745
70
0
0
VERTEX
8
0
10
91.384497
20
173.188745
70
0
0
VERTEX
8
0
10
92.536015
20
173.188745
70
0
0
VERTEX
8
0
10
92.536015
20
174.059390
70
0
0
VERTEX
8
0
10
92.536015
20
174.930037
70
0
0
VERTEX
8
0
10
93.163117
20
174.898565
70
0
0
VERTEX
8
0
10
94.971002
20
174.707793
70
0
0
VERTEX
8
0
10
98.376308
20
174.019101
70
0
0
VERTEX
8
0
10
101.656043
20
172.901450
70
0
0
VERTEX
8
0
10
105.143633
20
171.157504
70
0
0
VERTEX
8
0
10
105.522127
20
170.912770
70
0
0
VERTEX
8
0
10
105.449425
20
170.738770
70
0
0
VERTEX
8
0
10
105.396622
20
170.172509
70
0
0
VERTEX
8
0
10
105.615268
20
169.411738
70
0
0
VERTEX
8
0
10
106.459018
20
168.668355
70
0
0
VERTEX
8
0
10
108.137579
20
167.323852
70
0
0
VERTEX
8
0
10
109.755312
20
165.769628
70
0
0
VERTEX
8
0
10
111.249225
20
164.071524
70
0
0
VERTEX
8
0
10
112.556323
20
162.295381
70
0
0
VERTEX
8
0
10
114.320150
20
159.210093
70
0
0
VERTEX
8
0
10
115.630094
20
155.951695
70
0
0
VERTEX
8
0
10
116.475522
20
152.553023
70
0
0
VERTEX
8
0
10
116.845803
20
149.046911
70
0
0
VERTEX
8
0
10
116.800812
20
146.405235
70
0
0
VERTEX
8
0
10
116.509743
20
143.893761
70
0
0
VERTEX
8
0
10
116.453757
20
143.088055
70
0
0
VERTEX
8
0
10
116.596085
20
142.851412
70
0
0
VERTEX
8
0
10
116.882953
20
142.414971
70
0
0
VERTEX
8
0
10
117.307056
20
142.096467
70
0
0
VERTEX
8
0
10
117.479231
20
141.939074
70
0
0
VERTEX
8
0
10
117.319031
20
141.291685
70
0
0
VERTEX
8
0
10
115.962837
20
137.403394
70
0
0
VERTEX
8
0
10
114.654766
20
134.813675
70
0
0
VERTEX
8
0
10
113.072472
20
132.371743
70
0
0
VERTEX
8
0
10
111.247152
20
130.120564
70
0
0
VERTEX
8
0
10
109.210001
20
128.103103
70
0
0
VERTEX
8
0
10
108.137260
20
127.176936
70
0
0
VERTEX
8
0
10
107.962702
20
127.045192
70
0
0
VERTEX
8
0
10
107.837863
20
127.164739
70
0
0
VERTEX
8
0
10
107.433455
20
127.412891
70
0
0
VERTEX
8
0
10
106.941548
20
127.506944
70
0
0
VERTEX
8
0
10
106.427501
20
127.444822
70
0
0
VERTEX
8
0
10
105.956676
20
127.224452
70
0
0
VERTEX
8
0
10
103.407879
20
125.672583
70
0
0
VERTEX
8
0
10
100.116235
20
124.205770
70
0
0
VERTEX
8
0
10
96.656980
20
123.210539
70
0
0
VERTEX
8
0
10
93.118237
20
122.705776
70
0
0
VERTEX
8
0
10
89.588129
20
122.710370
70
0
0
VERTEX
8
0
10
89.588129
20
122.710370
70
0
0
SEQEND
8
0
0
POLYLINE
8
0
62
7
70
0
10
0.000000
20
0.000000
66
1
0
VERTEX
8
0
10
92.766319
20
123.789435
70
0
0
VERTEX
8
0
10
95.430730
20
124.094073
70
0
0
VERTEX
8
0
10
98.015708
20
124.674260
70
0
0
VERTEX
8
0
10
100.502393
20
125.519967
70
0
0
VERTEX
8
0
10
102.871928
20
126.621165
70
0
0
VERTEX
8
0
10
105.105452
20
127.967824
70
0
0
VERTEX
8
0
10
107.184105
20
129.549915
70
0
0
VERTEX
8
0
10
109.089029
20
131.357409
70
0
0
VERTEX
8
0
10
110.801365
20
133.380277
70
0
0
VERTEX
8
0
10
112.658967
20
136.211538
70
0
0
VERTEX
8
0
10
114.088121
20
139.231050
70
0
0
VERTEX
8
0
10
115.090474
20
142.443030
70
0
0
VERTEX
8
0
10
115.667671
20
145.851699
70
0
0
VERTEX
8
0
10
115.667671
20
150.411713
70
0
0
VERTEX
8
0
10
115.302615
20
152.830226
70
0
0
VERTEX
8
0
10
114.722465
20
155.164848
70
0
0
VERTEX
8
0
10
113.932512
20
157.405519
70
0
0
VERTEX
8
0
10
112.938047
20
159.542180
70
0
0
VERTEX
8
0
10
111.744364
20
161.564771
70
0
0
VERTEX
8
0
10
110.356753
20
163.463234
70
0
0
VERTEX
8
0
10
108.780507
20
165.227510
70
0
0
VERTEX
8
0
10
107.020918
20
166.847540
70
0
0
VERTEX
8
0
10
104.699490
20
168.562684
70
0
0
VERTEX
8
0
10
102.215544
20
169.978258
70
0
0
VERTEX
8
0
10
99.598290
20
171.087525
70
0
0
VERTEX
8
0
10
96.876940
20
171.883747
70
0
0
VERTEX
8
0
10
94.080704
20
172.360186
70
0
0
VERTEX
8
0
10
91.238792
20
172.510105
70
0
0
VERTEX
8
0
10
88.380415
20
172.326767
70
0
0
VERTEX
8
0
10
85.534784
20
171.803433
70
0
0
VERTEX
8
0
10
83.348959
20
171.155464
70
0
0
VERTEX
8
0
10
81.245859
20
170.310313
70
0
0
VERTEX
8
0
10
79.237704
20
169.276602
70
0
0
VERTEX
8
0
10
77.336712
20
168.062954
70
0
0
VERTEX
8
0
10
75.555103
20
166.677991
70
0
0
VERTEX
8
0
10
73.905096
20
165.130336
70
0
0
VERTEX
8
0
10
72.398910
20
163.428611
70
0
0
VERTEX
8
0
10
71.048764
20
161.581439
70
0
0
VERTEX
8
0
10
69.560806
20
159.007913
70
0
0
VERTEX
8
0
10
68.407999
20
156.291520
70
0
0
VERTEX
8
0
10
67.588715
20
153.427655
70
0
0
VERTEX
8
0
10
67.101326
20
150.411713
70
0
0
VERTEX
8
0
10
67.101326
20
145.851699
70
0
0
VERTEX
8
0
10
67.535393
20
143.061848
70
0
0
VERTEX
8
0
10
68.260136
20
140.416532
70
0
0
VERTEX
8
0
10
69.311480
20
137.776597
70
0
0
VERTEX
8
0
10
70.642892
20
135.307549
70
0
0
VERTEX
8
0
10
72.251182
20
133.014555
70
0
0
VERTEX
8
0
10
74.133159
20
130.902780
70
0
0
VERTEX
8
0
10
75.643267
20
129.506094
70
0
0
VERTEX
8
0
10
77.266883
20
128.247441
70
0
0
VERTEX
8
0
10
78.986728
20
127.130856
70
0
0
VERTEX
8
0
10
80.799824
20
126.165141
70
0
0
VERTEX
8
0
10
82.690629
20
125.354765
70
0
0
VERTEX
8
0
10
84.643601
20
124.704198
70
0
0
VERTEX
8
0
10
86.643198
20
124.217911
70
0
0
VERTEX
8
0
10
88.673878
20
123.900375
70
0
0
VERTEX
8
0
10
90.720099
20
123.756059
70
0
0
VERTEX
8
0
10
92.766319
20
123.789435
70
0
0
VERTEX
8
0
10
92.766319
20
123.789435
70
0
0
SEQEND
8
0
 0 
ENDSEC
 0 
EOF