999
"DXF R12 Output" (www.mydxf.blogspot.com)
 0 
SECTION
 2 
HEADER
 9 
$ACADVER
 1 
AC1009
 9 
$EXTMIN
 10 
 0 
 20 
 0 
 9 
$EXTMAX
 10 
 8.5 
 20 
 11 
 0 
ENDSEC
 0 
SECTION
 2 
ENTITIES
0
POLYLINE
8
0
62
7
70
0
10
0.000000
20
0.000000
66
1
0
VERTEX
8
0
10
0.935900
20
-25.631194
70
0
0
VERTEX
8
0
10
0.938643
20
-25.630994
70
0
0
VERTEX
8
0
10
0.980684
20
-25.628094
70
0
0
VERTEX
8
0
10
1.404178
20
-25.598394
70
0
0
VERTEX
8
0
10
1.774198
20
-25.572594
70
0
0
VERTEX
8
0
10
2.633687
20
-25.512494
70
0
0
VERTEX
8
0
10
2.635877
20
-25.512294
70
0
0
VERTEX
8
0
10
2.681147
20
-25.509094
70
0
0
VERTEX
8
0
10
3.068726
20
-25.454694
70
0
0
VERTEX
8
0
10
3.074126
20
-25.453894
70
0
0
VERTEX
8
0
10
3.092846
20
-25.451294
70
0
0
VERTEX
8
0
10
4.293045
20
-25.282594
70
0
0
VERTEX
8
0
10
4.422714
20
-25.264394
70
0
0
VERTEX
8
0
10
4.445704
20
-25.261094
70
0
0
VERTEX
8
0
10
4.454064
20
-25.259894
70
0
0
VERTEX
8
0
10
5.087084
20
-25.125394
70
0
0
VERTEX
8
0
10
5.094784
20
-25.123794
70
0
0
VERTEX
8
0
10
5.117084
20
-25.118994
70
0
0
VERTEX
8
0
10
6.205292
20
-24.887695
70
0
0
VERTEX
8
0
10
6.571902
20
-24.782595
70
0
0
VERTEX
8
0
10
6.591932
20
-24.776895
70
0
0
VERTEX
8
0
10
6.598582
20
-24.774995
70
0
0
VERTEX
8
0
10
7.727670
20
-24.451195
70
0
0
VERTEX
8
0
10
7.762590
20
-24.441195
70
0
0
VERTEX
8
0
10
7.826500
20
-24.422895
70
0
0
VERTEX
8
0
10
7.926280
20
-24.394195
70
0
0
VERTEX
8
0
10
7.974170
20
-24.376795
70
0
0
VERTEX
8
0
10
8.022880
20
-24.359095
70
0
0
VERTEX
8
0
10
9.133849
20
-23.954696
70
0
0
VERTEX
8
0
10
9.190108
20
-23.934296
70
0
0
VERTEX
8
0
10
9.379508
20
-23.865296
70
0
0
VERTEX
8
0
10
9.387148
20
-23.862596
70
0
0
VERTEX
8
0
10
9.608648
20
-23.781896
70
0
0
VERTEX
8
0
10
10.921186
20
-23.197597
70
0
0
VERTEX
8
0
10
9.608658
20
-23.781896
70
0
0
VERTEX
8
0
10
10.664187
20
-23.311996
70
0
0
VERTEX
8
0
10
10.701686
20
-23.295296
70
0
0
VERTEX
8
0
10
11.244186
20
-23.053697
70
0
0
VERTEX
8
0
10
12.824984
20
-22.213198
70
0
0
VERTEX
8
0
10
13.101084
20
-22.040698
70
0
0
VERTEX
8
0
10
14.343282
20
-21.264399
70
0
0
VERTEX
8
0
10
14.670982
20
-21.026299
70
0
0
VERTEX
8
0
10
14.705482
20
-21.001199
70
0
0
VERTEX
8
0
10
14.712581
20
-21.011399
70
0
0
VERTEX
8
0
10
14.731681
20
-20.997499
70
0
0
VERTEX
8
0
10
14.811581
20
-20.947599
70
0
0
VERTEX
8
0
10
14.894781
20
-20.903299
70
0
0
VERTEX
8
0
10
14.980781
20
-20.864999
70
0
0
VERTEX
8
0
10
15.069381
20
-20.832800
70
0
0
VERTEX
8
0
10
15.159981
20
-20.806800
70
0
0
VERTEX
8
0
10
15.252081
20
-20.787200
70
0
0
VERTEX
8
0
10
15.345381
20
-20.774100
70
0
0
VERTEX
8
0
10
15.439381
20
-20.767500
70
0
0
VERTEX
8
0
10
15.533680
20
-20.767500
70
0
0
VERTEX
8
0
10
15.627680
20
-20.774100
70
0
0
VERTEX
8
0
10
15.720980
20
-20.787200
70
0
0
VERTEX
8
0
10
15.813180
20
-20.806800
70
0
0
VERTEX
8
0
10
15.903680
20
-20.832800
70
0
0
VERTEX
8
0
10
15.992280
20
-20.864999
70
0
0
VERTEX
8
0
10
16.078380
20
-20.903299
70
0
0
VERTEX
8
0
10
16.161580
20
-20.947599
70
0
0
VERTEX
8
0
10
16.241480
20
-20.997499
70
0
0
VERTEX
8
0
10
16.317679
20
-21.052899
70
0
0
VERTEX
8
0
10
16.389879
20
-21.113499
70
0
0
VERTEX
8
0
10
16.457679
20
-21.178899
70
0
0
VERTEX
8
0
10
16.520679
20
-21.248899
70
0
0
VERTEX
8
0
10
16.561379
20
-21.300999
70
0
0
VERTEX
8
0
10
16.990879
20
-20.983200
70
0
0
VERTEX
8
0
10
18.755076
20
-19.422501
70
0
0
VERTEX
8
0
10
18.755776
20
-19.421801
70
0
0
VERTEX
8
0
10
20.376474
20
-17.713903
70
0
0
VERTEX
8
0
10
20.377174
20
-17.713203
70
0
0
VERTEX
8
0
10
21.842873
20
-15.870606
70
0
0
VERTEX
8
0
10
21.843472
20
-15.869806
70
0
0
VERTEX
8
0
10
23.142971
20
-13.906508
70
0
0
VERTEX
8
0
10
23.143471
20
-13.905608
70
0
0
VERTEX
8
0
10
24.266969
20
-11.836511
70
0
0
VERTEX
8
0
10
24.267369
20
-11.835611
70
0
0
VERTEX
8
0
10
25.206268
20
-9.676534
70
0
0
VERTEX
8
0
10
25.206668
20
-9.675584
70
0
0
VERTEX
8
0
10
25.953767
20
-7.442836
70
0
0
VERTEX
8
0
10
25.954067
20
-7.441866
70
0
0
VERTEX
8
0
10
26.298867
20
-6.005648
70
0
0
VERTEX
8
0
10
26.263167
20
-5.998068
70
0
0
VERTEX
8
0
10
26.172567
20
-5.972088
70
0
0
VERTEX
8
0
10
26.084067
20
-5.939868
70
0
0
VERTEX
8
0
10
25.997967
20
-5.901529
70
0
0
VERTEX
8
0
10
25.914767
20
-5.857298
70
0
0
VERTEX
8
0
10
25.834868
20
-5.807368
70
0
0
VERTEX
8
0
10
25.758668
20
-5.751979
70
0
0
VERTEX
8
0
10
25.686468
20
-5.691419
70
0
0
VERTEX
8
0
10
25.618668
20
-5.625959
70
0
0
VERTEX
8
0
10
25.555568
20
-5.555919
70
0
0
VERTEX
8
0
10
25.497568
20
-5.481679
70
0
0
VERTEX
8
0
10
25.444868
20
-5.403559
70
0
0
VERTEX
8
0
10
25.397768
20
-5.321949
70
0
0
VERTEX
8
0
10
25.356468
20
-5.237249
70
0
0
VERTEX
8
0
10
25.321168
20
-5.149889
70
0
0
VERTEX
8
0
10
25.292068
20
-5.060279
70
0
0
VERTEX
8
0
10
25.269268
20
-4.968840
70
0
0
VERTEX
8
0
10
25.258968
20
-4.910550
70
0
0
VERTEX
8
0
10
25.258768
20
-4.909480
70
0
0
VERTEX
8
0
10
25.167268
20
-4.891690
70
0
0
VERTEX
8
0
10
25.172168
20
-4.863550
70
0
0
VERTEX
8
0
10
25.172268
20
-4.862710
70
0
0
VERTEX
8
0
10
25.346868
20
-3.872701
70
0
0
VERTEX
8
0
10
25.400368
20
-3.569461
70
0
0
VERTEX
8
0
10
25.587468
20
-1.788924
70
0
0
VERTEX
8
0
10
25.595368
20
-1.562324
70
0
0
VERTEX
8
0
10
25.641068
20
-0.253411
70
0
0
VERTEX
8
0
10
25.649968
20
0.000328
70
0
0
VERTEX
8
0
10
25.642068
20
0.227311
70
0
0
VERTEX
8
0
10
25.596368
20
1.536212
70
0
0
VERTEX
8
0
10
25.587468
20
1.789582
70
0
0
VERTEX
8
0
10
25.400368
20
3.570110
70
0
0
VERTEX
8
0
10
25.179368
20
4.823378
70
0
0
VERTEX
8
0
10
25.143868
20
5.024788
70
0
0
VERTEX
8
0
10
25.089468
20
5.333247
70
0
0
VERTEX
8
0
10
25.057368
20
5.461947
70
0
0
VERTEX
8
0
10
24.656369
20
7.070425
70
0
0
VERTEX
8
0
10
24.622969
20
7.173295
70
0
0
VERTEX
8
0
10
24.218169
20
8.418904
70
0
0
VERTEX
8
0
10
24.140170
20
8.658983
70
0
0
VERTEX
8
0
10
24.103070
20
8.773143
70
0
0
VERTEX
8
0
10
24.076370
20
8.839333
70
0
0
VERTEX
8
0
10
23.585670
20
10.053661
70
0
0
VERTEX
8
0
10
23.432371
20
10.433161
70
0
0
VERTEX
8
0
10
23.410771
20
10.477461
70
0
0
VERTEX
8
0
10
22.836571
20
11.654659
70
0
0
VERTEX
8
0
10
22.678071
20
11.979659
70
0
0
VERTEX
8
0
10
22.647571
20
12.042259
70
0
0
VERTEX
8
0
10
22.642772
20
12.050559
70
0
0
VERTEX
8
0
10
21.752373
20
13.592757
70
0
0
VERTEX
8
0
10
20.751274
20
15.077055
70
0
0
VERTEX
8
0
10
20.499374
20
15.399455
70
0
0
VERTEX
8
0
10
19.692975
20
16.431553
70
0
0
VERTEX
8
0
10
19.649375
20
16.487253
70
0
0
VERTEX
8
0
10
19.648975
20
16.487854
70
0
0
VERTEX
8
0
10
19.399776
20
16.764653
70
0
0
VERTEX
8
0
10
18.523477
20
17.737952
70
0
0
VERTEX
8
0
10
18.451077
20
17.818352
70
0
0
VERTEX
8
0
10
18.200777
20
18.060051
70
0
0
VERTEX
8
0
10
17.258578
20
18.969850
70
0
0
VERTEX
8
0
10
17.163178
20
19.062050
70
0
0
VERTEX
8
0
10
15.791680
20
20.212849
70
0
0
VERTEX
8
0
10
15.559280
20
20.381648
70
0
0
VERTEX
8
0
10
14.746581
20
20.972048
70
0
0
VERTEX
8
0
10
14.705482
20
21.001948
70
0
0
VERTEX
8
0
10
14.712581
20
21.012148
70
0
0
VERTEX
8
0
10
14.655381
20
21.053648
70
0
0
VERTEX
8
0
10
14.583182
20
21.114248
70
0
0
VERTEX
8
0
10
14.515482
20
21.179647
70
0
0
VERTEX
8
0
10
14.452382
20
21.249647
70
0
0
VERTEX
8
0
10
14.394382
20
21.323947
70
0
0
VERTEX
8
0
10
14.341682
20
21.402047
70
0
0
VERTEX
8
0
10
14.294582
20
21.483647
70
0
0
VERTEX
8
0
10
14.253282
20
21.568347
70
0
0
VERTEX
8
0
10
14.217982
20
21.655747
70
0
0
VERTEX
8
0
10
14.188882
20
21.745347
70
0
0
VERTEX
8
0
10
14.166082
20
21.836747
70
0
0
VERTEX
8
0
10
14.149682
20
21.929547
70
0
0
VERTEX
8
0
10
14.139882
20
22.023246
70
0
0
VERTEX
8
0
10
14.136582
20
22.117446
70
0
0
VERTEX
8
0
10
14.139882
20
22.211646
70
0
0
VERTEX
8
0
10
14.149682
20
22.305246
70
0
0
VERTEX
8
0
10
14.166082
20
22.398146
70
0
0
VERTEX
8
0
10
14.188882
20
22.489546
70
0
0
VERTEX
8
0
10
14.217982
20
22.579146
70
0
0
VERTEX
8
0
10
14.253282
20
22.666546
70
0
0
VERTEX
8
0
10
14.294582
20
22.751246
70
0
0
VERTEX
8
0
10
14.341682
20
22.832845
70
0
0
VERTEX
8
0
10
14.348282
20
22.842645
70
0
0
VERTEX
8
0
10
13.500883
20
23.382545
70
0
0
VERTEX
8
0
10
13.499983
20
23.383045
70
0
0
VERTEX
8
0
10
11.411586
20
24.470243
70
0
0
VERTEX
8
0
10
11.410686
20
24.470643
70
0
0
VERTEX
8
0
10
9.235468
20
25.371742
70
0
0
VERTEX
8
0
10
9.234528
20
25.372042
70
0
0
VERTEX
8
0
10
6.989071
20
26.080041
70
0
0
VERTEX
8
0
10
6.988101
20
26.080241
70
0
0
VERTEX
8
0
10
4.689484
20
26.589941
70
0
0
VERTEX
8
0
10
4.688494
20
26.590141
70
0
0
VERTEX
8
0
10
2.354197
20
26.897540
70
0
0
VERTEX
8
0
10
2.353197
20
26.897640
70
0
0
VERTEX
8
0
10
0.999999
20
26.956740
70
0
0
VERTEX
8
0
10
0.999999
20
25.209742
70
0
0
VERTEX
8
0
10
0.880513
20
25.214943
70
0
0
VERTEX
8
0
10
0.440324
20
25.226542
70
0
0
VERTEX
8
0
10
0.000000
20
25.230342
70
0
0
VERTEX
8
0
10
-0.440324
20
25.226542
70
0
0
VERTEX
8
0
10
-0.880513
20
25.214943
70
0
0
VERTEX
8
0
10
-0.999999
20
25.209742
70
0
0
VERTEX
8
0
10
-0.999999
20
26.956740
70
0
0
VERTEX
8
0
10
-2.352207
20
26.897640
70
0
0
VERTEX
8
0
10
-2.353197
20
26.897640
70
0
0
VERTEX
8
0
10
-4.687514
20
26.590341
70
0
0
VERTEX
8
0
10
-4.688494
20
26.590141
70
0
0
VERTEX
8
0
10
-6.987141
20
26.080641
70
0
0
VERTEX
8
0
10
-9.233588
20
25.372342
70
0
0
VERTEX
8
0
10
-9.234528
20
25.372042
70
0
0
VERTEX
8
0
10
-11.409786
20
24.471043
70
0
0
VERTEX
8
0
10
-11.410686
20
24.470643
70
0
0
VERTEX
8
0
10
-13.499083
20
23.383545
70
0
0
VERTEX
8
0
10
-13.499983
20
23.383045
70
0
0
VERTEX
8
0
10
-14.348282
20
22.842645
70
0
0
VERTEX
8
0
10
-14.341682
20
22.832845
70
0
0
VERTEX
8
0
10
-14.294582
20
22.751246
70
0
0
VERTEX
8
0
10
-14.253282
20
22.666546
70
0
0
VERTEX
8
0
10
-14.217982
20
22.579146
70
0
0
VERTEX
8
0
10
-14.188882
20
22.489546
70
0
0
VERTEX
8
0
10
-14.166082
20
22.398146
70
0
0
VERTEX
8
0
10
-14.149682
20
22.305246
70
0
0
VERTEX
8
0
10
-14.139882
20
22.211646
70
0
0
VERTEX
8
0
10
-14.136582
20
22.117446
70
0
0
VERTEX
8
0
10
-14.139882
20
22.023246
70
0
0
VERTEX
8
0
10
-14.149682
20
21.929547
70
0
0
VERTEX
8
0
10
-14.166082
20
21.836747
70
0
0
VERTEX
8
0
10
-14.188882
20
21.745347
70
0
0
VERTEX
8
0
10
-14.217982
20
21.655747
70
0
0
VERTEX
8
0
10
-14.253282
20
21.568347
70
0
0
VERTEX
8
0
10
-14.294582
20
21.483647
70
0
0
VERTEX
8
0
10
-14.341682
20
21.402047
70
0
0
VERTEX
8
0
10
-14.394382
20
21.323947
70
0
0
VERTEX
8
0
10
-14.452382
20
21.249647
70
0
0
VERTEX
8
0
10
-14.515482
20
21.179647
70
0
0
VERTEX
8
0
10
-14.583182
20
21.114248
70
0
0
VERTEX
8
0
10
-14.655381
20
21.053648
70
0
0
VERTEX
8
0
10
-14.712581
20
21.012148
70
0
0
VERTEX
8
0
10
-14.705482
20
21.001948
70
0
0
VERTEX
8
0
10
-14.731481
20
20.983048
70
0
0
VERTEX
8
0
10
-14.732181
20
20.982548
70
0
0
VERTEX
8
0
10
-15.559280
20
20.381648
70
0
0
VERTEX
8
0
10
-15.791680
20
20.212849
70
0
0
VERTEX
8
0
10
-17.163178
20
19.062050
70
0
0
VERTEX
8
0
10
-17.953377
20
18.298951
70
0
0
VERTEX
8
0
10
-18.200777
20
18.060051
70
0
0
VERTEX
8
0
10
-18.451077
20
17.818352
70
0
0
VERTEX
8
0
10
-18.523477
20
17.737952
70
0
0
VERTEX
8
0
10
-19.399776
20
16.764653
70
0
0
VERTEX
8
0
10
-19.648975
20
16.487854
70
0
0
VERTEX
8
0
10
-19.692975
20
16.431553
70
0
0
VERTEX
8
0
10
-20.499374
20
15.399455
70
0
0
VERTEX
8
0
10
-20.751274
20
15.077055
70
0
0
VERTEX
8
0
10
-21.643273
20
13.754557
70
0
0
VERTEX
8
0
10
-21.739773
20
13.611457
70
0
0
VERTEX
8
0
10
-21.752373
20
13.592757
70
0
0
VERTEX
8
0
10
-21.757173
20
13.584357
70
0
0
VERTEX
8
0
10
-22.446272
20
12.390859
70
0
0
VERTEX
8
0
10
-22.642972
20
12.050259
70
0
0
VERTEX
8
0
10
-22.647571
20
12.042259
70
0
0
VERTEX
8
0
10
-22.827771
20
11.672859
70
0
0
VERTEX
8
0
10
-23.401871
20
10.495761
70
0
0
VERTEX
8
0
10
-23.432371
20
10.433161
70
0
0
VERTEX
8
0
10
-23.581070
20
10.065061
70
0
0
VERTEX
8
0
10
-24.077170
20
8.837363
70
0
0
VERTEX
8
0
10
-24.103070
20
8.773143
70
0
0
VERTEX
8
0
10
-24.621969
20
7.176275
70
0
0
VERTEX
8
0
10
-24.623569
20
7.171355
70
0
0
VERTEX
8
0
10
-24.656369
20
7.070425
70
0
0
VERTEX
8
0
10
-24.738269
20
6.741936
70
0
0
VERTEX
8
0
10
-25.058268
20
5.458447
70
0
0
VERTEX
8
0
10
-25.089468
20
5.333247
70
0
0
VERTEX
8
0
10
-25.142968
20
5.030028
70
0
0
VERTEX
8
0
10
-25.370368
20
3.740209
70
0
0
VERTEX
8
0
10
-25.400368
20
3.570110
70
0
0
VERTEX
8
0
10
-25.587468
20
1.789582
70
0
0
VERTEX
8
0
10
-25.596368
20
1.536212
70
0
0
VERTEX
8
0
10
-25.642068
20
0.227302
70
0
0
VERTEX
8
0
10
-25.649968
20
0.000328
70
0
0
VERTEX
8
0
10
-25.587468
20
-1.788924
70
0
0
VERTEX
8
0
10
-25.400368
20
-3.569461
70
0
0
VERTEX
8
0
10
-25.371268
20
-3.734311
70
0
0
VERTEX
8
0
10
-25.253668
20
-4.401130
70
0
0
VERTEX
8
0
10
-25.253068
20
-4.404760
70
0
0
VERTEX
8
0
10
-25.244868
20
-4.451030
70
0
0
VERTEX
8
0
10
-25.261068
20
-4.453880
70
0
0
VERTEX
8
0
10
-25.252868
20
-4.500280
70
0
0
VERTEX
8
0
10
-25.243068
20
-4.593990
70
0
0
VERTEX
8
0
10
-25.239768
20
-4.688160
70
0
0
VERTEX
8
0
10
-25.243068
20
-4.782340
70
0
0
VERTEX
8
0
10
-25.252868
20
-4.876050
70
0
0
VERTEX
8
0
10
-25.269268
20
-4.968840
70
0
0
VERTEX
8
0
10
-25.292068
20
-5.060279
70
0
0
VERTEX
8
0
10
-25.321168
20
-5.149889
70
0
0
VERTEX
8
0
10
-25.356468
20
-5.237249
70
0
0
VERTEX
8
0
10
-25.397768
20
-5.321949
70
0
0
VERTEX
8
0
10
-25.444868
20
-5.403559
70
0
0
VERTEX
8
0
10
-25.497568
20
-5.481679
70
0
0
VERTEX
8
0
10
-25.498968
20
-5.483429
70
0
0
VERTEX
8
0
10
-25.555568
20
-5.555919
70
0
0
VERTEX
8
0
10
-25.618668
20
-5.625959
70
0
0
VERTEX
8
0
10
-25.686468
20
-5.691419
70
0
0
VERTEX
8
0
10
-25.758668
20
-5.751979
70
0
0
VERTEX
8
0
10
-25.834868
20
-5.807368
70
0
0
VERTEX
8
0
10
-25.914767
20
-5.857298
70
0
0
VERTEX
8
0
10
-25.997967
20
-5.901529
70
0
0
VERTEX
8
0
10
-26.084067
20
-5.939868
70
0
0
VERTEX
8
0
10
-26.172567
20
-5.972088
70
0
0
VERTEX
8
0
10
-26.263167
20
-5.998068
70
0
0
VERTEX
8
0
10
-26.297767
20
-6.005408
70
0
0
VERTEX
8
0
10
-26.080267
20
-6.986807
70
0
0
VERTEX
8
0
10
-26.079967
20
-6.987767
70
0
0
VERTEX
8
0
10
-25.371968
20
-9.233264
70
0
0
VERTEX
8
0
10
-25.371668
20
-9.234204
70
0
0
VERTEX
8
0
10
-24.470669
20
-11.409412
70
0
0
VERTEX
8
0
10
-24.470269
20
-11.410311
70
0
0
VERTEX
8
0
10
-23.383171
20
-13.498709
70
0
0
VERTEX
8
0
10
-23.382671
20
-13.499609
70
0
0
VERTEX
8
0
10
-22.117672
20
-15.485306
70
0
0
VERTEX
8
0
10
-22.117072
20
-15.486206
70
0
0
VERTEX
8
0
10
-20.683774
20
-17.354104
70
0
0
VERTEX
8
0
10
-20.683174
20
-17.354904
70
0
0
VERTEX
8
0
10
-19.092576
20
-19.090802
70
0
0
VERTEX
8
0
10
-19.091876
20
-19.091502
70
0
0
VERTEX
8
0
10
-17.355978
20
-20.682200
70
0
0
VERTEX
8
0
10
-17.355278
20
-20.682800
70
0
0
VERTEX
8
0
10
-16.556979
20
-21.295399
70
0
0
VERTEX
8
0
10
-16.520679
20
-21.248899
70
0
0
VERTEX
8
0
10
-16.457679
20
-21.178899
70
0
0
VERTEX
8
0
10
-16.389879
20
-21.113499
70
0
0
VERTEX
8
0
10
-16.317679
20
-21.052899
70
0
0
VERTEX
8
0
10
-16.241480
20
-20.997499
70
0
0
VERTEX
8
0
10
-16.161580
20
-20.947599
70
0
0
VERTEX
8
0
10
-16.078380
20
-20.903299
70
0
0
VERTEX
8
0
10
-15.992280
20
-20.864999
70
0
0
VERTEX
8
0
10
-15.903680
20
-20.832800
70
0
0
VERTEX
8
0
10
-15.813180
20
-20.806800
70
0
0
VERTEX
8
0
10
-15.720980
20
-20.787200
70
0
0
VERTEX
8
0
10
-15.627680
20
-20.774100
70
0
0
VERTEX
8
0
10
-15.533680
20
-20.767500
70
0
0
VERTEX
8
0
10
-15.439381
20
-20.767500
70
0
0
VERTEX
8
0
10
-15.345381
20
-20.774100
70
0
0
VERTEX
8
0
10
-15.252081
20
-20.787200
70
0
0
VERTEX
8
0
10
-15.159981
20
-20.806800
70
0
0
VERTEX
8
0
10
-15.069381
20
-20.832800
70
0
0
VERTEX
8
0
10
-14.980781
20
-20.864999
70
0
0
VERTEX
8
0
10
-14.894781
20
-20.903299
70
0
0
VERTEX
8
0
10
-14.811581
20
-20.947599
70
0
0
VERTEX
8
0
10
-14.731681
20
-20.997499
70
0
0
VERTEX
8
0
10
-14.712581
20
-21.011399
70
0
0
VERTEX
8
0
10
-14.705482
20
-21.001299
70
0
0
VERTEX
8
0
10
-14.672381
20
-21.025399
70
0
0
VERTEX
8
0
10
-14.671582
20
-21.025899
70
0
0
VERTEX
8
0
10
-14.343282
20
-21.264399
70
0
0
VERTEX
8
0
10
-14.067182
20
-21.436999
70
0
0
VERTEX
8
0
10
-12.824984
20
-22.213198
70
0
0
VERTEX
8
0
10
-11.244186
20
-23.053697
70
0
0
VERTEX
8
0
10
-10.856786
20
-23.226197
70
0
0
VERTEX
8
0
10
-10.855386
20
-23.226897
70
0
0
VERTEX
8
0
10
-10.748186
20
-23.274597
70
0
0
VERTEX
8
0
10
-9.608648
20
-23.781896
70
0
0
VERTEX
8
0
10
-9.408518
20
-23.854796
70
0
0
VERTEX
8
0
10
-9.405358
20
-23.855896
70
0
0
VERTEX
8
0
10
-9.354378
20
-23.874496
70
0
0
VERTEX
8
0
10
-9.347778
20
-23.876896
70
0
0
VERTEX
8
0
10
-8.134880
20
-24.318295
70
0
0
VERTEX
8
0
10
-8.130290
20
-24.319995
70
0
0
VERTEX
8
0
10
-8.029890
20
-24.356495
70
0
0
VERTEX
8
0
10
-8.018950
20
-24.360495
70
0
0
VERTEX
8
0
10
-7.986110
20
-24.372495
70
0
0
VERTEX
8
0
10
-7.947380
20
-24.386595
70
0
0
VERTEX
8
0
10
-7.927440
20
-24.393795
70
0
0
VERTEX
8
0
10
-7.926280
20
-24.394195
70
0
0
VERTEX
8
0
10
-6.453602
20
-24.816495
70
0
0
VERTEX
8
0
10
-6.450662
20
-24.817395
70
0
0
VERTEX
8
0
10
-6.439412
20
-24.820595
70
0
0
VERTEX
8
0
10
-6.410672
20
-24.828895
70
0
0
VERTEX
8
0
10
-6.407252
20
-24.829794
70
0
0
VERTEX
8
0
10
-6.377962
20
-24.838194
70
0
0
VERTEX
8
0
10
-6.377622
20
-24.838294
70
0
0
VERTEX
8
0
10
-6.297052
20
-24.861394
70
0
0
VERTEX
8
0
10
-6.295662
20
-24.861794
70
0
0
VERTEX
8
0
10
-6.205292
20
-24.887695
70
0
0
VERTEX
8
0
10
-6.168402
20
-24.895594
70
0
0
VERTEX
8
0
10
-6.165302
20
-24.896194
70
0
0
VERTEX
8
0
10
-6.164312
20
-24.896495
70
0
0
VERTEX
8
0
10
-6.106582
20
-24.908694
70
0
0
VERTEX
8
0
10
-6.103152
20
-24.909495
70
0
0
VERTEX
8
0
10
-5.962782
20
-24.939295
70
0
0
VERTEX
8
0
10
-5.956213
20
-24.940694
70
0
0
VERTEX
8
0
10
-5.698543
20
-24.995494
70
0
0
VERTEX
8
0
10
-4.509604
20
-25.248194
70
0
0
VERTEX
8
0
10
-4.468674
20
-25.256894
70
0
0
VERTEX
8
0
10
-4.454064
20
-25.259894
70
0
0
VERTEX
8
0
10
-4.426094
20
-25.263894
70
0
0
VERTEX
8
0
10
-4.415315
20
-25.265394
70
0
0
VERTEX
8
0
10
-4.333765
20
-25.276894
70
0
0
VERTEX
8
0
10
-4.308315
20
-25.280394
70
0
0
VERTEX
8
0
10
-3.057806
20
-25.456194
70
0
0
VERTEX
8
0
10
-3.039926
20
-25.458694
70
0
0
VERTEX
8
0
10
-2.995396
20
-25.464994
70
0
0
VERTEX
8
0
10
-2.924666
20
-25.474894
70
0
0
VERTEX
8
0
10
-2.911716
20
-25.476794
70
0
0
VERTEX
8
0
10
-2.844286
20
-25.486194
70
0
0
VERTEX
8
0
10
-2.836056
20
-25.487394
70
0
0
VERTEX
8
0
10
-2.681147
20
-25.509094
70
0
0
VERTEX
8
0
10
-2.173467
20
-25.544694
70
0
0
VERTEX
8
0
10
-2.146567
20
-25.546494
70
0
0
VERTEX
8
0
10
-2.141677
20
-25.546894
70
0
0
VERTEX
8
0
10
-0.895171
20
-25.633993
70
0
0
VERTEX
8
0
10
0.895171
20
-25.633993
70
0
0
VERTEX
8
0
10
0.935900
20
-25.631194
70
0
0
VERTEX
8
0
10
0.935900
20
-25.631194
70
0
0
SEQEND
8
0
0
POLYLINE
8
0
62
7
70
0
10
0.000000
20
0.000000
66
1
0
VERTEX
8
0
10
-0.422871
20
-24.225895
70
0
0
VERTEX
8
0
10
-0.845614
20
-24.214795
70
0
0
VERTEX
8
0
10
-1.268098
20
-24.196395
70
0
0
VERTEX
8
0
10
-1.690198
20
-24.170595
70
0
0
VERTEX
8
0
10
-2.111777
20
-24.137395
70
0
0
VERTEX
8
0
10
-2.532717
20
-24.096895
70
0
0
VERTEX
8
0
10
-2.952886
20
-24.048995
70
0
0
VERTEX
8
0
10
-3.372156
20
-23.993796
70
0
0
VERTEX
8
0
10
-3.790405
20
-23.931296
70
0
0
VERTEX
8
0
10
-4.207495
20
-23.861496
70
0
0
VERTEX
8
0
10
-4.623294
20
-23.784396
70
0
0
VERTEX
8
0
10
-5.037694
20
-23.700096
70
0
0
VERTEX
8
0
10
-5.450553
20
-23.608596
70
0
0
VERTEX
8
0
10
-5.861763
20
-23.509896
70
0
0
VERTEX
8
0
10
-6.271182
20
-23.403996
70
0
0
VERTEX
8
0
10
-6.678682
20
-23.290996
70
0
0
VERTEX
8
0
10
-7.084161
20
-23.170897
70
0
0
VERTEX
8
0
10
-7.487471
20
-23.043697
70
0
0
VERTEX
8
0
10
-7.888510
20
-22.909497
70
0
0
VERTEX
8
0
10
-8.287140
20
-22.768397
70
0
0
VERTEX
8
0
10
-8.683249
20
-22.620297
70
0
0
VERTEX
8
0
10
-9.076708
20
-22.465297
70
0
0
VERTEX
8
0
10
-9.467408
20
-22.303398
70
0
0
VERTEX
8
0
10
-9.855217
20
-22.134798
70
0
0
VERTEX
8
0
10
-10.239987
20
-21.959398
70
0
0
VERTEX
8
0
10
-10.621687
20
-21.777398
70
0
0
VERTEX
8
0
10
-11.000186
20
-21.588699
70
0
0
VERTEX
8
0
10
-11.375286
20
-21.393399
70
0
0
VERTEX
8
0
10
-11.746885
20
-21.191599
70
0
0
VERTEX
8
0
10
-12.114985
20
-20.983399
70
0
0
VERTEX
8
0
10
-12.479384
20
-20.768800
70
0
0
VERTEX
8
0
10
-12.839884
20
-20.547800
70
0
0
VERTEX
8
0
10
-13.196583
20
-20.320600
70
0
0
VERTEX
8
0
10
-13.549183
20
-20.087201
70
0
0
VERTEX
8
0
10
-13.897782
20
-19.847701
70
0
0
VERTEX
8
0
10
-14.241982
20
-19.602101
70
0
0
VERTEX
8
0
10
-14.581982
20
-19.350501
70
0
0
VERTEX
8
0
10
-14.917481
20
-19.093102
70
0
0
VERTEX
8
0
10
-15.248381
20
-18.829802
70
0
0
VERTEX
8
0
10
-15.574680
20
-18.560902
70
0
0
VERTEX
8
0
10
-15.896280
20
-18.286203
70
0
0
VERTEX
8
0
10
-16.212979
20
-18.006003
70
0
0
VERTEX
8
0
10
-16.524779
20
-17.720303
70
0
0
VERTEX
8
0
10
-16.831579
20
-17.429204
70
0
0
VERTEX
8
0
10
-17.133179
20
-17.132804
70
0
0
VERTEX
8
0
10
-17.429578
20
-16.831205
70
0
0
VERTEX
8
0
10
-17.720678
20
-16.524405
70
0
0
VERTEX
8
0
10
-18.006377
20
-16.212605
70
0
0
VERTEX
8
0
10
-18.286577
20
-15.895906
70
0
0
VERTEX
8
0
10
-18.561277
20
-15.574306
70
0
0
VERTEX
8
0
10
-18.830176
20
-15.248007
70
0
0
VERTEX
8
0
10
-19.093476
20
-14.917107
70
0
0
VERTEX
8
0
10
-19.350876
20
-14.581607
70
0
0
VERTEX
8
0
10
-19.602475
20
-14.241608
70
0
0
VERTEX
8
0
10
-19.848075
20
-13.897408
70
0
0
VERTEX
8
0
10
-20.087575
20
-13.548809
70
0
0
VERTEX
8
0
10
-20.320975
20
-13.196209
70
0
0
VERTEX
8
0
10
-20.548174
20
-12.839510
70
0
0
VERTEX
8
0
10
-20.769174
20
-12.479010
70
0
0
VERTEX
8
0
10
-20.983773
20
-12.114610
70
0
0
VERTEX
8
0
10
-21.191973
20
-11.746511
70
0
0
VERTEX
8
0
10
-21.393773
20
-11.374912
70
0
0
VERTEX
8
0
10
-21.589073
20
-10.999812
70
0
0
VERTEX
8
0
10
-21.777772
20
-10.621312
70
0
0
VERTEX
8
0
10
-21.959772
20
-10.239613
70
0
0
VERTEX
8
0
10
-22.135172
20
-9.854843
70
0
0
VERTEX
8
0
10
-22.303772
20
-9.467034
70
0
0
VERTEX
8
0
10
-22.465672
20
-9.076334
70
0
0
VERTEX
8
0
10
-22.620671
20
-8.682875
70
0
0
VERTEX
8
0
10
-22.768771
20
-8.286765
70
0
0
VERTEX
8
0
10
-22.909871
20
-7.888136
70
0
0
VERTEX
8
0
10
-23.044071
20
-7.487096
70
0
0
VERTEX
8
0
10
-23.171271
20
-7.083787
70
0
0
VERTEX
8
0
10
-23.291371
20
-6.678307
70
0
0
VERTEX
8
0
10
-23.404371
20
-6.270808
70
0
0
VERTEX
8
0
10
-23.510270
20
-5.861388
70
0
0
VERTEX
8
0
10
-23.608970
20
-5.450179
70
0
0
VERTEX
8
0
10
-23.700470
20
-5.037319
70
0
0
VERTEX
8
0
10
-23.784770
20
-4.622920
70
0
0
VERTEX
8
0
10
-23.861870
20
-4.207120
70
0
0
VERTEX
8
0
10
-23.931670
20
-3.790031
70
0
0
VERTEX
8
0
10
-23.994170
20
-3.371782
70
0
0
VERTEX
8
0
10
-24.049370
20
-2.952512
70
0
0
VERTEX
8
0
10
-24.097270
20
-2.532343
70
0
0
VERTEX
8
0
10
-24.137770
20
-2.111403
70
0
0
VERTEX
8
0
10
-24.170970
20
-1.689824
70
0
0
VERTEX
8
0
10
-24.196769
20
-1.267724
70
0
0
VERTEX
8
0
10
-24.215170
20
-0.845240
70
0
0
VERTEX
8
0
10
-24.226270
20
-0.422497
70
0
0
VERTEX
8
0
10
-24.229970
20
0.000374
70
0
0
VERTEX
8
0
10
-24.226270
20
0.423246
70
0
0
VERTEX
8
0
10
-24.215170
20
0.845988
70
0
0
VERTEX
8
0
10
-24.196769
20
1.268473
70
0
0
VERTEX
8
0
10
-24.170970
20
1.690572
70
0
0
VERTEX
8
0
10
-24.137770
20
2.112152
70
0
0
VERTEX
8
0
10
-24.097270
20
2.533091
70
0
0
VERTEX
8
0
10
-24.049370
20
2.953260
70
0
0
VERTEX
8
0
10
-23.994170
20
3.372530
70
0
0
VERTEX
8
0
10
-23.931670
20
3.790779
70
0
0
VERTEX
8
0
10
-23.861870
20
4.207869
70
0
0
VERTEX
8
0
10
-23.784770
20
4.623668
70
0
0
VERTEX
8
0
10
-23.700470
20
5.038068
70
0
0
VERTEX
8
0
10
-23.608970
20
5.450927
70
0
0
VERTEX
8
0
10
-23.510270
20
5.862137
70
0
0
VERTEX
8
0
10
-23.404371
20
6.271556
70
0
0
VERTEX
8
0
10
-23.291371
20
6.679056
70
0
0
VERTEX
8
0
10
-23.171271
20
7.084535
70
0
0
VERTEX
8
0
10
-23.044071
20
7.487845
70
0
0
VERTEX
8
0
10
-22.909871
20
7.888884
70
0
0
VERTEX
8
0
10
-22.768771
20
8.287514
70
0
0
VERTEX
8
0
10
-22.620671
20
8.683623
70
0
0
VERTEX
8
0
10
-22.465672
20
9.077083
70
0
0
VERTEX
8
0
10
-22.303772
20
9.467782
70
0
0
VERTEX
8
0
10
-22.135172
20
9.855592
70
0
0
VERTEX
8
0
10
-21.959772
20
10.240361
70
0
0
VERTEX
8
0
10
-21.777772
20
10.622061
70
0
0
VERTEX
8
0
10
-21.589073
20
11.000560
70
0
0
VERTEX
8
0
10
-21.393773
20
11.375660
70
0
0
VERTEX
8
0
10
-21.191973
20
11.747259
70
0
0
VERTEX
8
0
10
-20.983773
20
12.115359
70
0
0
VERTEX
8
0
10
-20.769174
20
12.479758
70
0
0
VERTEX
8
0
10
-20.548174
20
12.840258
70
0
0
VERTEX
8
0
10
-20.320975
20
13.196957
70
0
0
VERTEX
8
0
10
-20.087575
20
13.549557
70
0
0
VERTEX
8
0
10
-19.848075
20
13.898157
70
0
0
VERTEX
8
0
10
-19.602475
20
14.242356
70
0
0
VERTEX
8
0
10
-19.350876
20
14.582356
70
0
0
VERTEX
8
0
10
-19.093476
20
14.917855
70
0
0
VERTEX
8
0
10
-18.830176
20
15.248755
70
0
0
VERTEX
8
0
10
-18.561277
20
15.575055
70
0
0
VERTEX
8
0
10
-18.286577
20
15.896654
70
0
0
VERTEX
8
0
10
-18.006377
20
16.213354
70
0
0
VERTEX
8
0
10
-17.720678
20
16.525153
70
0
0
VERTEX
8
0
10
-17.429578
20
16.831953
70
0
0
VERTEX
8
0
10
-17.133179
20
17.133553
70
0
0
VERTEX
8
0
10
-16.831579
20
17.429952
70
0
0
VERTEX
8
0
10
-16.524779
20
17.721052
70
0
0
VERTEX
8
0
10
-16.212979
20
18.006751
70
0
0
VERTEX
8
0
10
-15.896280
20
18.286951
70
0
0
VERTEX
8
0
10
-15.574680
20
18.561651
70
0
0
VERTEX
8
0
10
-15.248381
20
18.830551
70
0
0
VERTEX
8
0
10
-14.917481
20
19.093850
70
0
0
VERTEX
8
0
10
-14.581982
20
19.351250
70
0
0
VERTEX
8
0
10
-14.241982
20
19.602849
70
0
0
VERTEX
8
0
10
-13.897782
20
19.848449
70
0
0
VERTEX
8
0
10
-13.549183
20
20.087949
70
0
0
VERTEX
8
0
10
-13.196583
20
20.321348
70
0
0
VERTEX
8
0
10
-12.839884
20
20.548548
70
0
0
VERTEX
8
0
10
-12.479384
20
20.769548
70
0
0
VERTEX
8
0
10
-12.114985
20
20.984148
70
0
0
VERTEX
8
0
10
-11.746885
20
21.192347
70
0
0
VERTEX
8
0
10
-11.375286
20
21.394147
70
0
0
VERTEX
8
0
10
-11.000186
20
21.589447
70
0
0
VERTEX
8
0
10
-10.621687
20
21.778147
70
0
0
VERTEX
8
0
10
-10.239987
20
21.960146
70
0
0
VERTEX
8
0
10
-9.855217
20
22.135546
70
0
0
VERTEX
8
0
10
-9.467408
20
22.304146
70
0
0
VERTEX
8
0
10
-9.076708
20
22.466046
70
0
0
VERTEX
8
0
10
-8.683249
20
22.621046
70
0
0
VERTEX
8
0
10
-8.287140
20
22.769145
70
0
0
VERTEX
8
0
10
-7.888510
20
22.910245
70
0
0
VERTEX
8
0
10
-7.487471
20
23.044445
70
0
0
VERTEX
8
0
10
-7.084161
20
23.171645
70
0
0
VERTEX
8
0
10
-6.678682
20
23.291745
70
0
0
VERTEX
8
0
10
-6.271182
20
23.404745
70
0
0
VERTEX
8
0
10
-5.861763
20
23.510645
70
0
0
VERTEX
8
0
10
-5.450553
20
23.609344
70
0
0
VERTEX
8
0
10
-5.037694
20
23.700844
70
0
0
VERTEX
8
0
10
-4.623294
20
23.785144
70
0
0
VERTEX
8
0
10
-4.207495
20
23.862244
70
0
0
VERTEX
8
0
10
-3.790405
20
23.932044
70
0
0
VERTEX
8
0
10
-3.372156
20
23.994544
70
0
0
VERTEX
8
0
10
-2.952886
20
24.049744
70
0
0
VERTEX
8
0
10
-2.532717
20
24.097644
70
0
0
VERTEX
8
0
10
-2.111777
20
24.138144
70
0
0
VERTEX
8
0
10
-1.690198
20
24.171344
70
0
0
VERTEX
8
0
10
-1.268098
20
24.197144
70
0
0
VERTEX
8
0
10
-0.845614
20
24.215544
70
0
0
VERTEX
8
0
10
-0.422871
20
24.226644
70
0
0
VERTEX
8
0
10
0.000000
20
24.230344
70
0
0
VERTEX
8
0
10
0.422871
20
24.226644
70
0
0
VERTEX
8
0
10
0.845614
20
24.215544
70
0
0
VERTEX
8
0
10
1.268098
20
24.197144
70
0
0
VERTEX
8
0
10
1.690198
20
24.171344
70
0
0
VERTEX
8
0
10
2.111777
20
24.138144
70
0
0
VERTEX
8
0
10
2.532717
20
24.097644
70
0
0
VERTEX
8
0
10
2.952886
20
24.049744
70
0
0
VERTEX
8
0
10
3.372156
20
23.994544
70
0
0
VERTEX
8
0
10
3.790405
20
23.932044
70
0
0
VERTEX
8
0
10
4.207495
20
23.862244
70
0
0
VERTEX
8
0
10
4.623294
20
23.785144
70
0
0
VERTEX
8
0
10
5.037694
20
23.700844
70
0
0
VERTEX
8
0
10
5.450553
20
23.609344
70
0
0
VERTEX
8
0
10
5.861763
20
23.510645
70
0
0
VERTEX
8
0
10
6.271182
20
23.404745
70
0
0
VERTEX
8
0
10
6.678682
20
23.291745
70
0
0
VERTEX
8
0
10
7.084161
20
23.171645
70
0
0
VERTEX
8
0
10
7.487471
20
23.044445
70
0
0
VERTEX
8
0
10
7.888510
20
22.910245
70
0
0
VERTEX
8
0
10
8.287140
20
22.769145
70
0
0
VERTEX
8
0
10
8.683249
20
22.621046
70
0
0
VERTEX
8
0
10
9.076708
20
22.466046
70
0
0
VERTEX
8
0
10
9.467408
20
22.304146
70
0
0
VERTEX
8
0
10
9.855217
20
22.135546
70
0
0
VERTEX
8
0
10
10.239987
20
21.960146
70
0
0
VERTEX
8
0
10
10.621687
20
21.778147
70
0
0
VERTEX
8
0
10
11.000186
20
21.589447
70
0
0
VERTEX
8
0
10
11.375286
20
21.394147
70
0
0
VERTEX
8
0
10
11.746885
20
21.192347
70
0
0
VERTEX
8
0
10
12.114985
20
20.984148
70
0
0
VERTEX
8
0
10
12.479384
20
20.769548
70
0
0
VERTEX
8
0
10
12.839884
20
20.548548
70
0
0
VERTEX
8
0
10
13.196583
20
20.321348
70
0
0
VERTEX
8
0
10
13.549183
20
20.087949
70
0
0
VERTEX
8
0
10
13.897782
20
19.848449
70
0
0
VERTEX
8
0
10
14.241982
20
19.602849
70
0
0
VERTEX
8
0
10
14.581982
20
19.351250
70
0
0
VERTEX
8
0
10
14.917481
20
19.093850
70
0
0
VERTEX
8
0
10
15.248381
20
18.830551
70
0
0
VERTEX
8
0
10
15.574680
20
18.561651
70
0
0
VERTEX
8
0
10
15.896280
20
18.286951
70
0
0
VERTEX
8
0
10
16.212979
20
18.006751
70
0
0
VERTEX
8
0
10
16.524779
20
17.721052
70
0
0
VERTEX
8
0
10
16.831579
20
17.429952
70
0
0
VERTEX
8
0
10
17.133179
20
17.133553
70
0
0
VERTEX
8
0
10
17.429578
20
16.831953
70
0
0
VERTEX
8
0
10
17.720678
20
16.525153
70
0
0
VERTEX
8
0
10
18.006377
20
16.213354
70
0
0
VERTEX
8
0
10
18.286577
20
15.896654
70
0
0
VERTEX
8
0
10
18.561277
20
15.575055
70
0
0
VERTEX
8
0
10
18.830176
20
15.248755
70
0
0
VERTEX
8
0
10
19.093476
20
14.917855
70
0
0
VERTEX
8
0
10
19.350876
20
14.582356
70
0
0
VERTEX
8
0
10
19.602475
20
14.242356
70
0
0
VERTEX
8
0
10
19.848075
20
13.898157
70
0
0
VERTEX
8
0
10
20.087575
20
13.549557
70
0
0
VERTEX
8
0
10
20.320975
20
13.196957
70
0
0
VERTEX
8
0
10
20.548174
20
12.840258
70
0
0
VERTEX
8
0
10
20.769174
20
12.479758
70
0
0
VERTEX
8
0
10
20.983773
20
12.115359
70
0
0
VERTEX
8
0
10
21.191973
20
11.747259
70
0
0
VERTEX
8
0
10
21.393773
20
11.375660
70
0
0
VERTEX
8
0
10
21.589073
20
11.000560
70
0
0
VERTEX
8
0
10
21.777772
20
10.622061
70
0
0
VERTEX
8
0
10
21.959772
20
10.240361
70
0
0
VERTEX
8
0
10
22.135172
20
9.855592
70
0
0
VERTEX
8
0
10
22.303772
20
9.467782
70
0
0
VERTEX
8
0
10
22.465672
20
9.077083
70
0
0
VERTEX
8
0
10
22.620671
20
8.683623
70
0
0
VERTEX
8
0
10
22.768771
20
8.287514
70
0
0
VERTEX
8
0
10
22.909871
20
7.888884
70
0
0
VERTEX
8
0
10
23.044071
20
7.487845
70
0
0
VERTEX
8
0
10
23.171271
20
7.084535
70
0
0
VERTEX
8
0
10
23.291371
20
6.679056
70
0
0
VERTEX
8
0
10
23.404371
20
6.271556
70
0
0
VERTEX
8
0
10
23.510270
20
5.862137
70
0
0
VERTEX
8
0
10
23.608970
20
5.450927
70
0
0
VERTEX
8
0
10
23.700470
20
5.038068
70
0
0
VERTEX
8
0
10
23.784770
20
4.623668
70
0
0
VERTEX
8
0
10
23.861870
20
4.207869
70
0
0
VERTEX
8
0
10
23.931670
20
3.790779
70
0
0
VERTEX
8
0
10
23.994170
20
3.372530
70
0
0
VERTEX
8
0
10
24.049370
20
2.953260
70
0
0
VERTEX
8
0
10
24.097270
20
2.533091
70
0
0
VERTEX
8
0
10
24.137770
20
2.112152
70
0
0
VERTEX
8
0
10
24.170970
20
1.690572
70
0
0
VERTEX
8
0
10
24.196769
20
1.268473
70
0
0
VERTEX
8
0
10
24.215170
20
0.845988
70
0
0
VERTEX
8
0
10
24.226270
20
0.423246
70
0
0
VERTEX
8
0
10
24.229970
20
0.000374
70
0
0
VERTEX
8
0
10
24.226270
20
-0.422497
70
0
0
VERTEX
8
0
10
24.215170
20
-0.845240
70
0
0
VERTEX
8
0
10
24.196769
20
-1.267724
70
0
0
VERTEX
8
0
10
24.170970
20
-1.689824
70
0
0
VERTEX
8
0
10
24.137770
20
-2.111403
70
0
0
VERTEX
8
0
10
24.097270
20
-2.532343
70
0
0
VERTEX
8
0
10
24.049370
20
-2.952512
70
0
0
VERTEX
8
0
10
23.994170
20
-3.371782
70
0
0
VERTEX
8
0
10
23.931670
20
-3.790031
70
0
0
VERTEX
8
0
10
23.861870
20
-4.207120
70
0
0
VERTEX
8
0
10
23.784770
20
-4.622920
70
0
0
VERTEX
8
0
10
23.700470
20
-5.037319
70
0
0
VERTEX
8
0
10
23.608970
20
-5.450179
70
0
0
VERTEX
8
0
10
23.510270
20
-5.861388
70
0
0
VERTEX
8
0
10
23.404371
20
-6.270808
70
0
0
VERTEX
8
0
10
23.291371
20
-6.678307
70
0
0
VERTEX
8
0
10
23.171271
20
-7.083787
70
0
0
VERTEX
8
0
10
23.044071
20
-7.487096
70
0
0
VERTEX
8
0
10
22.909871
20
-7.888136
70
0
0
VERTEX
8
0
10
22.768771
20
-8.286765
70
0
0
VERTEX
8
0
10
22.620671
20
-8.682875
70
0
0
VERTEX
8
0
10
22.465672
20
-9.076334
70
0
0
VERTEX
8
0
10
22.303772
20
-9.467034
70
0
0
VERTEX
8
0
10
22.135172
20
-9.854843
70
0
0
VERTEX
8
0
10
21.959772
20
-10.239613
70
0
0
VERTEX
8
0
10
21.777772
20
-10.621312
70
0
0
VERTEX
8
0
10
21.589073
20
-10.999812
70
0
0
VERTEX
8
0
10
21.393773
20
-11.374912
70
0
0
VERTEX
8
0
10
21.191973
20
-11.746511
70
0
0
VERTEX
8
0
10
20.983773
20
-12.114610
70
0
0
VERTEX
8
0
10
20.769174
20
-12.479010
70
0
0
VERTEX
8
0
10
20.548174
20
-12.839510
70
0
0
VERTEX
8
0
10
20.320975
20
-13.196209
70
0
0
VERTEX
8
0
10
20.087575
20
-13.548809
70
0
0
VERTEX
8
0
10
19.848075
20
-13.897408
70
0
0
VERTEX
8
0
10
19.602475
20
-14.241608
70
0
0
VERTEX
8
0
10
19.350876
20
-14.581607
70
0
0
VERTEX
8
0
10
19.093476
20
-14.917107
70
0
0
VERTEX
8
0
10
18.830176
20
-15.248007
70
0
0
VERTEX
8
0
10
18.561277
20
-15.574306
70
0
0
VERTEX
8
0
10
18.286577
20
-15.895906
70
0
0
VERTEX
8
0
10
18.006377
20
-16.212605
70
0
0
VERTEX
8
0
10
17.720678
20
-16.524405
70
0
0
VERTEX
8
0
10
17.429578
20
-16.831205
70
0
0
VERTEX
8
0
10
17.133179
20
-17.132804
70
0
0
VERTEX
8
0
10
16.831579
20
-17.429204
70
0
0
VERTEX
8
0
10
16.524779
20
-17.720303
70
0
0
VERTEX
8
0
10
16.212979
20
-18.006003
70
0
0
VERTEX
8
0
10
15.896280
20
-18.286203
70
0
0
VERTEX
8
0
10
15.574680
20
-18.560902
70
0
0
VERTEX
8
0
10
15.248381
20
-18.829802
70
0
0
VERTEX
8
0
10
14.917481
20
-19.093102
70
0
0
VERTEX
8
0
10
14.581982
20
-19.350501
70
0
0
VERTEX
8
0
10
14.241982
20
-19.602101
70
0
0
VERTEX
8
0
10
13.897782
20
-19.847701
70
0
0
VERTEX
8
0
10
13.549183
20
-20.087201
70
0
0
VERTEX
8
0
10
13.196583
20
-20.320600
70
0
0
VERTEX
8
0
10
12.839884
20
-20.547800
70
0
0
VERTEX
8
0
10
12.479384
20
-20.768800
70
0
0
VERTEX
8
0
10
12.114985
20
-20.983399
70
0
0
VERTEX
8
0
10
11.746885
20
-21.191599
70
0
0
VERTEX
8
0
10
11.375286
20
-21.393399
70
0
0
VERTEX
8
0
10
11.000186
20
-21.588699
70
0
0
VERTEX
8
0
10
10.621687
20
-21.777398
70
0
0
VERTEX
8
0
10
10.239987
20
-21.959398
70
0
0
VERTEX
8
0
10
9.855217
20
-22.134798
70
0
0
VERTEX
8
0
10
9.467408
20
-22.303398
70
0
0
VERTEX
8
0
10
9.076708
20
-22.465297
70
0
0
VERTEX
8
0
10
8.683249
20
-22.620297
70
0
0
VERTEX
8
0
10
8.287140
20
-22.768397
70
0
0
VERTEX
8
0
10
7.888510
20
-22.909497
70
0
0
VERTEX
8
0
10
7.487471
20
-23.043697
70
0
0
VERTEX
8
0
10
7.084161
20
-23.170897
70
0
0
VERTEX
8
0
10
6.678682
20
-23.290996
70
0
0
VERTEX
8
0
10
6.271182
20
-23.403996
70
0
0
VERTEX
8
0
10
5.861763
20
-23.509896
70
0
0
VERTEX
8
0
10
5.450553
20
-23.608596
70
0
0
VERTEX
8
0
10
5.037694
20
-23.700096
70
0
0
VERTEX
8
0
10
4.623294
20
-23.784396
70
0
0
VERTEX
8
0
10
4.207495
20
-23.861496
70
0
0
VERTEX
8
0
10
3.790405
20
-23.931296
70
0
0
VERTEX
8
0
10
3.372156
20
-23.993796
70
0
0
VERTEX
8
0
10
2.952886
20
-24.048995
70
0
0
VERTEX
8
0
10
2.532717
20
-24.096895
70
0
0
VERTEX
8
0
10
2.111777
20
-24.137395
70
0
0
VERTEX
8
0
10
1.690198
20
-24.170595
70
0
0
VERTEX
8
0
10
1.268098
20
-24.196395
70
0
0
VERTEX
8
0
10
0.845614
20
-24.214795
70
0
0
VERTEX
8
0
10
0.422871
20
-24.225895
70
0
0
VERTEX
8
0
10
0.000000
20
-24.229595
70
0
0
VERTEX
8
0
10
-0.422871
20
-24.225895
70
0
0
VERTEX
8
0
10
-0.422871
20
-24.225895
70
0
0
SEQEND
8
0
 0 
ENDSEC
 0 
EOF