999
DXF from OpenSCAD
  0
SECTION
  2
HEADER
  9
$ACADVER
  1
AC1006
  9
$INSBASE
 10
0.0
 20
0.0
 30
0.0
  9
$EXTMIN
 10
-26.2978
 20
-25.6344
  9
$EXTMAX
 10
26.2989
 20
26.9564
  9
$LINMIN
 10
-26.2978
 20
-25.6344
  9
$LINMAX
 10
26.2989
 20
26.9564
  0
ENDSEC
  0
SECTION
  2
TABLES
  0
TABLE
  2
LTYPE
 70
1
  0
LTYPE
  2
CONTINUOUS
 70
64
  3
Solid line
 72
65
 73
0
 40
0.000000
  0
ENDTAB
  0
TABLE
  2
LAYER
 70
6
  0
LAYER
  2
0
 70
64
 62
7
  6
CONTINUOUS
  0
ENDTAB
  0
TABLE
  2
STYLE
 70
0
  0
ENDTAB
  0
ENDSEC
  0
SECTION
  2
BLOCKS
  0
ENDSEC
  0
SECTION
  2
ENTITIES
  0
LWPOLYLINE
100
AcDbEntity
  8
0
100
AcDbPolyline
 90
534
 70
1
 10
0.935901
 20
-25.6316
 10
0.938644
 20
-25.6314
 10
0.980685
 20
-25.6285
 10
1.40418
 20
-25.5988
 10
1.7742
 20
-25.573
 10
2.63369
 20
-25.5129
 10
2.63588
 20
-25.5127
 10
2.68115
 20
-25.5095
 10
3.06873
 20
-25.4551
 10
3.07413
 20
-25.4543
 10
3.09285
 20
-25.4517
 10
4.29305
 20
-25.283
 10
4.42272
 20
-25.2648
 10
4.44571
 20
-25.2615
 10
4.45407
 20
-25.2603
 10
5.08709
 20
-25.1258
 10
5.09479
 20
-25.1242
 10
5.11709
 20
-25.1194
 10
6.2053
 20
-24.8881
 10
6.57191
 20
-24.783
 10
6.59194
 20
-24.7773
 10
6.59859
 20
-24.7754
 10
7.72768
 20
-24.4516
 10
7.7626
 20
-24.4416
 10
7.82651
 20
-24.4233
 10
7.92629
 20
-24.3946
 10
7.97418
 20
-24.3772
 10
8.02289
 20
-24.3595
 10
9.13386
 20
-23.9551
 10
9.19012
 20
-23.9347
 10
9.37952
 20
-23.8657
 10
9.38716
 20
-23.863
 10
9.60866
 20
-23.7823
 10
10.9212
 20
-23.198
 10
9.60867
 20
-23.7823
 10
10.6642
 20
-23.3124
 10
10.7017
 20
-23.2957
 10
11.2442
 20
-23.0541
 10
12.825
 20
-22.2136
 10
13.1011
 20
-22.0411
 10
14.3433
 20
-21.2648
 10
14.671
 20
-21.0267
 10
14.7055
 20
-21.0016
 10
14.7126
 20
-21.0118
 10
14.7317
 20
-20.9979
 10
14.8116
 20
-20.948
 10
14.8948
 20
-20.9037
 10
14.9808
 20
-20.8654
 10
15.0694
 20
-20.8332
 10
15.16
 20
-20.8072
 10
15.2521
 20
-20.7876
 10
15.3454
 20
-20.7745
 10
15.4394
 20
-20.7679
 10
15.5337
 20
-20.7679
 10
15.6277
 20
-20.7745
 10
15.721
 20
-20.7876
 10
15.8132
 20
-20.8072
 10
15.9037
 20
-20.8332
 10
15.9923
 20
-20.8654
 10
16.0784
 20
-20.9037
 10
16.1616
 20
-20.948
 10
16.2415
 20
-20.9979
 10
16.3177
 20
-21.0533
 10
16.3899
 20
-21.1139
 10
16.4577
 20
-21.1793
 10
16.5207
 20
-21.2493
 10
16.5614
 20
-21.3014
 10
16.9909
 20
-20.9836
 10
18.7551
 20
-19.4229
 10
18.7558
 20
-19.4222
 10
20.3765
 20
-17.7143
 10
20.3772
 20
-17.7136
 10
21.8429
 20
-15.871
 10
21.8435
 20
-15.8702
 10
23.143
 20
-13.9069
 10
23.1435
 20
-13.906
 10
24.267
 20
-11.8369
 10
24.2674
 20
-11.836
 10
25.2063
 20
-9.67692
 10
25.2067
 20
-9.67597
 10
25.9538
 20
-7.44322
 10
25.9541
 20
-7.44225
 10
26.2989
 20
-6.00603
 10
26.2632
 20
-5.99845
 10
26.1726
 20
-5.97247
 10
26.0841
 20
-5.94025
 10
25.998
 20
-5.90191
 10
25.9148
 20
-5.85768
 10
25.8349
 20
-5.80775
 10
25.7587
 20
-5.75236
 10
25.6865
 20
-5.6918
 10
25.6187
 20
-5.62634
 10
25.5556
 20
-5.5563
 10
25.4976
 20
-5.48206
 10
25.4449
 20
-5.40394
 10
25.3978
 20
-5.32233
 10
25.3565
 20
-5.23763
 10
25.3212
 20
-5.15027
 10
25.2921
 20
-5.06066
 10
25.2693
 20
-4.96922
 10
25.259
 20
-4.91093
 10
25.2588
 20
-4.90986
 10
25.1673
 20
-4.89207
 10
25.1722
 20
-4.86393
 10
25.1723
 20
-4.86309
 10
25.3469
 20
-3.87308
 10
25.4004
 20
-3.56984
 10
25.5875
 20
-1.7893
 10
25.5954
 20
-1.5627
 10
25.6411
 20
-0.253786
 10
25.65
 20
-4.57764e-05
 10
25.6421
 20
0.226937
 10
25.5964
 20
1.53584
 10
25.5875
 20
1.78921
 10
25.4004
 20
3.56974
 10
25.1794
 20
4.82301
 10
25.1439
 20
5.02442
 10
25.0895
 20
5.33288
 10
25.0574
 20
5.46158
 10
24.6564
 20
7.07006
 10
24.623
 20
7.17293
 10
24.2182
 20
8.41854
 10
24.1402
 20
8.65862
 10
24.1031
 20
8.77278
 10
24.0764
 20
8.83897
 10
23.5857
 20
10.0533
 10
23.4324
 20
10.4328
 10
23.4108
 20
10.4771
 10
22.8366
 20
11.6543
 10
22.6781
 20
11.9793
 10
22.6476
 20
12.0419
 10
22.6428
 20
12.0502
 10
21.7524
 20
13.5924
 10
20.7513
 20
15.0767
 10
20.4994
 20
15.3991
 10
19.693
 20
16.4312
 10
19.6494
 20
16.4869
 10
19.649
 20
16.4875
 10
19.3998
 20
16.7643
 10
18.5235
 20
17.7376
 10
18.4511
 20
17.818
 10
18.2008
 20
18.0597
 10
17.2586
 20
18.9695
 10
17.1632
 20
19.0617
 10
15.7917
 20
20.2125
 10
15.5593
 20
20.3813
 10
14.7466
 20
20.9717
 10
14.7055
 20
21.0016
 10
14.7126
 20
21.0118
 10
14.6554
 20
21.0533
 10
14.5832
 20
21.1139
 10
14.5155
 20
21.1793
 10
14.4524
 20
21.2493
 10
14.3944
 20
21.3236
 10
14.3417
 20
21.4017
 10
14.2946
 20
21.4833
 10
14.2533
 20
21.568
 10
14.218
 20
21.6554
 10
14.1889
 20
21.745
 10
14.1661
 20
21.8364
 10
14.1497
 20
21.9292
 10
14.1399
 20
22.0229
 10
14.1366
 20
22.1171
 10
14.1399
 20
22.2113
 10
14.1497
 20
22.3049
 10
14.1661
 20
22.3978
 10
14.1889
 20
22.4892
 10
14.218
 20
22.5788
 10
14.2533
 20
22.6662
 10
14.2946
 20
22.7509
 10
14.3417
 20
22.8325
 10
14.3483
 20
22.8423
 10
13.5009
 20
23.3822
 10
13.5
 20
23.3827
 10
11.4116
 20
24.4699
 10
11.4107
 20
24.4703
 10
9.23548
 20
25.3714
 10
9.23454
 20
25.3717
 10
6.98908
 20
26.0797
 10
6.98811
 20
26.0799
 10
4.68949
 20
26.5896
 10
4.6885
 20
26.5898
 10
2.3542
 20
26.8972
 10
2.3532
 20
26.8973
 10
1
 20
26.9564
 10
1
 20
24.2245
 10
2.53481
 20
24.1172
 10
4.21097
 20
23.8816
 10
5.86661
 20
23.5297
 10
7.49366
 20
23.063
 10
9.08421
 20
22.4842
 10
10.6305
 20
21.7958
 10
12.125
 20
21.0011
 10
13.5604
 20
20.1042
 10
14.9298
 20
19.1093
 10
16.2264
 20
18.0213
 10
17.444
 20
16.8455
 10
18.5766
 20
15.5876
 10
19.6187
 20
14.2538
 10
19.624
 20
14.2459
 10
20.3164
 20
13.2193
 10
20.5652
 20
12.8505
 10
20.5815
 20
12.8223
 10
21.2006
 20
11.75
 10
21.4115
 20
11.3847
 10
21.4363
 20
11.3338
 10
21.9791
 20
10.2209
 10
22.1535
 20
9.86332
 10
22.184
 20
9.78786
 10
22.6478
 20
8.6398
 10
22.7875
 20
8.29395
 10
23.3106
 20
6.68416
 10
23.7201
 20
5.04181
 10
23.7478
 20
4.88464
 10
23.9628
 20
3.66522
 10
24.014
 20
3.37491
 10
24.0335
 20
3.18942
 10
24.1629
 20
1.95796
 10
24.1909
 20
1.69154
 10
24.25
 20
-4.57764e-05
 10
24.1909
 20
-1.69164
 10
24.1629
 20
-1.95806
 10
24.0335
 20
-3.18951
 10
24.014
 20
-3.37499
 10
23.9628
 20
-3.66531
 10
23.7478
 20
-4.88473
 10
23.7201
 20
-5.04191
 10
23.3106
 20
-6.68426
 10
22.7875
 20
-8.29403
 10
22.6478
 20
-8.63989
 10
22.184
 20
-9.78795
 10
22.1535
 20
-9.8634
 10
21.9791
 20
-10.221
 10
21.4363
 20
-11.3339
 10
21.4115
 20
-11.3847
 10
21.2006
 20
-11.7501
 10
20.5815
 20
-12.8224
 10
20.5652
 20
-12.8505
 10
20.3164
 20
-13.2194
 10
19.624
 20
-14.246
 10
19.6187
 20
-14.2538
 10
18.5766
 20
-15.5876
 10
17.444
 20
-16.8455
 10
16.2264
 20
-18.0213
 10
14.9298
 20
-19.1093
 10
13.5604
 20
-20.1042
 10
12.125
 20
-21.0011
 10
10.6305
 20
-21.7958
 10
9.08421
 20
-22.4842
 10
7.49366
 20
-23.0631
 10
5.86661
 20
-23.5297
 10
4.21097
 20
-23.8816
 10
2.53481
 20
-24.1172
 10
0.846313
 20
-24.2352
 10
-0.846313
 20
-24.2352
 10
-2.53481
 20
-24.1172
 10
-2.6719
 20
-24.098
 10
-3.73855
 20
-23.948
 10
-4.21097
 20
-23.8816
 10
-5.86661
 20
-23.5297
 10
-7.49366
 20
-23.0631
 10
-9.08421
 20
-22.4842
 10
-10.6305
 20
-21.7958
 10
-12.125
 20
-21.0011
 10
-13.5604
 20
-20.1042
 10
-14.9298
 20
-19.1093
 10
-16.2264
 20
-18.0213
 10
-17.444
 20
-16.8455
 10
-18.5766
 20
-15.5876
 10
-19.6187
 20
-14.2538
 10
-20.3111
 20
-13.2273
 10
-20.5599
 20
-12.8585
 10
-20.5652
 20
-12.8505
 10
-20.7761
 20
-12.4852
 10
-21.3952
 20
-11.4129
 10
-21.4115
 20
-11.3847
 10
-21.5859
 20
-11.0272
 10
-22.1287
 20
-9.91423
 10
-22.1535
 20
-9.8634
 10
-22.7875
 20
-8.29403
 10
-22.8949
 20
-7.96356
 10
-23.2776
 20
-6.78593
 10
-23.3106
 20
-6.68426
 10
-23.3883
 20
-6.37243
 10
-23.6879
 20
-5.17098
 10
-23.7201
 20
-5.04191
 10
-24.014
 20
-3.37499
 10
-24.1909
 20
-1.69164
 10
-24.1993
 20
-1.451
 10
-24.2425
 20
-0.21353
 10
-24.25
 20
-4.57764e-05
 10
-24.2425
 20
0.213439
 10
-24.1993
 20
1.45091
 10
-24.1909
 20
1.69154
 10
-24.014
 20
3.37491
 10
-23.7201
 20
5.04181
 10
-23.6879
 20
5.17089
 10
-23.3883
 20
6.37234
 10
-23.3106
 20
6.68416
 10
-23.2776
 20
6.78584
 10
-22.8949
 20
7.96347
 10
-22.7875
 20
8.29395
 10
-22.1535
 20
9.86332
 10
-22.1287
 20
9.91415
 10
-21.5859
 20
11.0271
 10
-21.4115
 20
11.3847
 10
-21.3952
 20
11.4128
 10
-20.7761
 20
12.4851
 10
-20.5652
 20
12.8505
 10
-20.5599
 20
12.8584
 10
-19.8675
 20
13.885
 10
-19.6187
 20
14.2538
 10
-18.5766
 20
15.5876
 10
-17.444
 20
16.8455
 10
-16.2264
 20
18.0213
 10
-14.9298
 20
19.1093
 10
-13.5604
 20
20.1042
 10
-12.125
 20
21.0011
 10
-10.6305
 20
21.7958
 10
-9.08421
 20
22.4842
 10
-7.49366
 20
23.063
 10
-5.86661
 20
23.5297
 10
-4.21097
 20
23.8816
 10
-2.53481
 20
24.1172
 10
-1
 20
24.2245
 10
-1
 20
26.9564
 10
-2.35221
 20
26.8973
 10
-2.3532
 20
26.8973
 10
-4.68752
 20
26.59
 10
-4.6885
 20
26.5898
 10
-6.98715
 20
26.0803
 10
-9.2336
 20
25.372
 10
-9.23454
 20
25.3717
 10
-11.4098
 20
24.4707
 10
-11.4107
 20
24.4703
 10
-13.4991
 20
23.3832
 10
-13.5
 20
23.3827
 10
-14.3483
 20
22.8423
 10
-14.3417
 20
22.8325
 10
-14.2946
 20
22.7509
 10
-14.2533
 20
22.6662
 10
-14.218
 20
22.5788
 10
-14.1889
 20
22.4892
 10
-14.1661
 20
22.3978
 10
-14.1497
 20
22.3049
 10
-14.1399
 20
22.2113
 10
-14.1366
 20
22.1171
 10
-14.1399
 20
22.0229
 10
-14.1497
 20
21.9292
 10
-14.1661
 20
21.8364
 10
-14.1889
 20
21.745
 10
-14.218
 20
21.6554
 10
-14.2533
 20
21.568
 10
-14.2946
 20
21.4833
 10
-14.3417
 20
21.4017
 10
-14.3944
 20
21.3236
 10
-14.4524
 20
21.2493
 10
-14.5155
 20
21.1793
 10
-14.5832
 20
21.1139
 10
-14.6554
 20
21.0533
 10
-14.7126
 20
21.0118
 10
-14.7055
 20
21.0016
 10
-14.7315
 20
20.9827
 10
-14.7322
 20
20.9822
 10
-15.5593
 20
20.3813
 10
-15.7917
 20
20.2125
 10
-17.1632
 20
19.0617
 10
-17.9534
 20
18.2986
 10
-18.2008
 20
18.0597
 10
-18.4511
 20
17.818
 10
-18.5235
 20
17.7376
 10
-19.3998
 20
16.7643
 10
-19.649
 20
16.4875
 10
-19.693
 20
16.4312
 10
-20.4994
 20
15.3991
 10
-20.7513
 20
15.0767
 10
-21.6433
 20
13.7542
 10
-21.7398
 20
13.6111
 10
-21.7524
 20
13.5924
 10
-21.7572
 20
13.584
 10
-22.4463
 20
12.3905
 10
-22.643
 20
12.0499
 10
-22.6476
 20
12.0419
 10
-22.8278
 20
11.6725
 10
-23.4019
 20
10.4954
 10
-23.4324
 20
10.4328
 10
-23.5811
 20
10.0647
 10
-24.0772
 20
8.837
 10
-24.1031
 20
8.77278
 10
-24.622
 20
7.17591
 10
-24.6236
 20
7.17099
 10
-24.6564
 20
7.07006
 10
-24.7383
 20
6.74157
 10
-25.0583
 20
5.45808
 10
-25.0895
 20
5.33288
 10
-25.143
 20
5.02966
 10
-25.3704
 20
3.73984
 10
-25.4004
 20
3.56974
 10
-25.5875
 20
1.78921
 10
-25.5964
 20
1.53584
 10
-25.6421
 20
0.226928
 10
-25.65
 20
-4.57764e-05
 10
-25.5875
 20
-1.7893
 10
-25.4004
 20
-3.56984
 10
-25.3713
 20
-3.73469
 10
-25.2537
 20
-4.40151
 10
-25.2531
 20
-4.40514
 10
-25.2449
 20
-4.45141
 10
-25.2611
 20
-4.45426
 10
-25.2529
 20
-4.50066
 10
-25.2431
 20
-4.59437
 10
-25.2398
 20
-4.68854
 10
-25.2431
 20
-4.78272
 10
-25.2529
 20
-4.87643
 10
-25.2693
 20
-4.96922
 10
-25.2921
 20
-5.06066
 10
-25.3212
 20
-5.15027
 10
-25.3565
 20
-5.23763
 10
-25.3978
 20
-5.32233
 10
-25.4449
 20
-5.40394
 10
-25.4976
 20
-5.48206
 10
-25.499
 20
-5.48381
 10
-25.5556
 20
-5.5563
 10
-25.6187
 20
-5.62634
 10
-25.6865
 20
-5.6918
 10
-25.7587
 20
-5.75236
 10
-25.8349
 20
-5.80775
 10
-25.9148
 20
-5.85768
 10
-25.998
 20
-5.90191
 10
-26.0841
 20
-5.94025
 10
-26.1726
 20
-5.97247
 10
-26.2632
 20
-5.99845
 10
-26.2978
 20
-6.00579
 10
-26.0803
 20
-6.98719
 10
-26.08
 20
-6.98815
 10
-25.372
 20
-9.23365
 10
-25.3717
 20
-9.23459
 10
-24.4707
 20
-11.4098
 10
-24.4703
 20
-11.4107
 10
-23.3832
 20
-13.4991
 10
-23.3827
 20
-13.5
 10
-22.1177
 20
-15.4857
 10
-22.1171
 20
-15.4866
 10
-20.6838
 20
-17.3545
 10
-20.6832
 20
-17.3553
 10
-19.0926
 20
-19.0912
 10
-19.0919
 20
-19.0919
 10
-17.356
 20
-20.6826
 10
-17.3553
 20
-20.6832
 10
-16.557
 20
-21.2958
 10
-16.5207
 20
-21.2493
 10
-16.4577
 20
-21.1793
 10
-16.3899
 20
-21.1139
 10
-16.3177
 20
-21.0533
 10
-16.2415
 20
-20.9979
 10
-16.1616
 20
-20.948
 10
-16.0784
 20
-20.9037
 10
-15.9923
 20
-20.8654
 10
-15.9037
 20
-20.8332
 10
-15.8132
 20
-20.8072
 10
-15.721
 20
-20.7876
 10
-15.6277
 20
-20.7745
 10
-15.5337
 20
-20.7679
 10
-15.4394
 20
-20.7679
 10
-15.3454
 20
-20.7745
 10
-15.2521
 20
-20.7876
 10
-15.16
 20
-20.8072
 10
-15.0694
 20
-20.8332
 10
-14.9808
 20
-20.8654
 10
-14.8948
 20
-20.9037
 10
-14.8116
 20
-20.948
 10
-14.7317
 20
-20.9979
 10
-14.7126
 20
-21.0118
 10
-14.7055
 20
-21.0017
 10
-14.6724
 20
-21.0258
 10
-14.6716
 20
-21.0263
 10
-14.3433
 20
-21.2648
 10
-14.0672
 20
-21.4374
 10
-12.825
 20
-22.2136
 10
-11.2442
 20
-23.0541
 10
-10.8568
 20
-23.2266
 10
-10.8554
 20
-23.2273
 10
-10.7482
 20
-23.275
 10
-9.60866
 20
-23.7823
 10
-9.40853
 20
-23.8552
 10
-9.40537
 20
-23.8563
 10
-9.35439
 20
-23.8749
 10
-9.34779
 20
-23.8773
 10
-8.13489
 20
-24.3187
 10
-8.1303
 20
-24.3204
 10
-8.0299
 20
-24.3569
 10
-8.01896
 20
-24.3609
 10
-7.98612
 20
-24.3729
 10
-7.94739
 20
-24.387
 10
-7.92745
 20
-24.3942
 10
-7.92629
 20
-24.3946
 10
-6.45361
 20
-24.8169
 10
-6.45067
 20
-24.8178
 10
-6.43942
 20
-24.821
 10
-6.41068
 20
-24.8293
 10
-6.40726
 20
-24.8302
 10
-6.37797
 20
-24.8386
 10
-6.37763
 20
-24.8387
 10
-6.29706
 20
-24.8618
 10
-6.29567
 20
-24.8622
 10
-6.2053
 20
-24.8881
 10
-6.16841
 20
-24.896
 10
-6.16531
 20
-24.8966
 10
-6.16432
 20
-24.8969
 10
-6.10659
 20
-24.9091
 10
-6.10316
 20
-24.9099
 10
-5.96279
 20
-24.9397
 10
-5.95622
 20
-24.9411
 10
-5.69855
 20
-24.9959
 10
-4.50961
 20
-25.2486
 10
-4.46868
 20
-25.2573
 10
-4.45407
 20
-25.2603
 10
-4.4261
 20
-25.2643
 10
-4.41532
 20
-25.2658
 10
-4.33377
 20
-25.2773
 10
-4.30832
 20
-25.2808
 10
-3.05781
 20
-25.4566
 10
-3.03993
 20
-25.4591
 10
-2.9954
 20
-25.4654
 10
-2.92467
 20
-25.4753
 10
-2.91172
 20
-25.4772
 10
-2.84429
 20
-25.4866
 10
-2.83606
 20
-25.4878
 10
-2.68115
 20
-25.5095
 10
-2.17347
 20
-25.5451
 10
-2.14657
 20
-25.5469
 10
-2.14168
 20
-25.5473
 10
-0.895172
 20
-25.6344
 10
0.895172
 20
-25.6344
  0
ENDSEC
  0
EOF
