999
"DXF R12 Output" (www.mydxf.blogspot.com)
 0 
SECTION
 2 
HEADER
 9 
$ACADVER
 1 
AC1009
 9 
$EXTMIN
 10 
 0 
 20 
 0 
 9 
$EXTMAX
 10 
 8.5 
 20 
 11 
 0 
ENDSEC
 0 
SECTION
 2 
ENTITIES
0
POLYLINE
8
0
62
7
70
0
10
0.000000
20
0.000000
66
1
0
VERTEX
8
0
10
93.463151
20
70.935975
70
0
0
VERTEX
8
0
10
90.856324
20
71.443890
70
0
0
VERTEX
8
0
10
88.129010
20
72.280446
70
0
0
VERTEX
8
0
10
85.481602
20
73.373692
70
0
0
VERTEX
8
0
10
83.114492
20
74.651675
70
0
0
VERTEX
8
0
10
81.456477
20
75.557983
70
0
0
VERTEX
8
0
10
80.923190
20
75.667182
70
0
0
VERTEX
8
0
10
80.374503
20
75.622377
70
0
0
VERTEX
8
0
10
79.808201
20
75.572457
70
0
0
VERTEX
8
0
10
79.300947
20
75.762596
70
0
0
VERTEX
8
0
10
77.447421
20
77.522803
70
0
0
VERTEX
8
0
10
75.333925
20
79.936756
70
0
0
VERTEX
8
0
10
73.575860
20
82.466676
70
0
0
VERTEX
8
0
10
72.147941
20
85.153968
70
0
0
VERTEX
8
0
10
71.024880
20
88.040041
70
0
0
VERTEX
8
0
10
70.559119
20
89.707017
70
0
0
VERTEX
8
0
10
70.613572
20
90.034103
70
0
0
VERTEX
8
0
10
70.840312
20
90.254794
70
0
0
VERTEX
8
0
10
71.072311
20
90.573953
70
0
0
VERTEX
8
0
10
71.203486
20
91.328729
70
0
0
VERTEX
8
0
10
71.274951
20
95.488870
70
0
0
VERTEX
8
0
10
71.370922
20
99.947527
70
0
0
VERTEX
8
0
10
71.548620
20
101.237253
70
0
0
VERTEX
8
0
10
71.864111
20
102.512355
70
0
0
VERTEX
8
0
10
72.508064
20
104.515969
70
0
0
VERTEX
8
0
10
73.297743
20
106.451330
70
0
0
VERTEX
8
0
10
74.225997
20
108.307502
70
0
0
VERTEX
8
0
10
75.285677
20
110.073551
70
0
0
VERTEX
8
0
10
76.469632
20
111.738542
70
0
0
VERTEX
8
0
10
77.770711
20
113.291541
70
0
0
VERTEX
8
0
10
79.181764
20
114.721613
70
0
0
VERTEX
8
0
10
80.695640
20
116.017822
70
0
0
VERTEX
8
0
10
82.234557
20
117.387676
70
0
0
VERTEX
8
0
10
82.492930
20
117.876738
70
0
0
VERTEX
8
0
10
82.554987
20
118.421943
70
0
0
VERTEX
8
0
10
82.620432
20
118.826595
70
0
0
VERTEX
8
0
10
82.920608
20
119.178742
70
0
0
VERTEX
8
0
10
84.848180
20
120.211796
70
0
0
VERTEX
8
0
10
86.938801
20
121.092677
70
0
0
VERTEX
8
0
10
89.213720
20
121.846699
70
0
0
VERTEX
8
0
10
91.475107
20
122.416144
70
0
0
VERTEX
8
0
10
93.525130
20
122.743297
70
0
0
VERTEX
8
0
10
95.198543
20
122.909680
70
0
0
VERTEX
8
0
10
95.198543
20
121.794071
70
0
0
VERTEX
8
0
10
95.198543
20
120.678465
70
0
0
VERTEX
8
0
10
93.620501
20
120.516789
70
0
0
VERTEX
8
0
10
90.010762
20
119.848660
70
0
0
VERTEX
8
0
10
86.579039
20
118.629439
70
0
0
VERTEX
8
0
10
83.378663
20
116.905496
70
0
0
VERTEX
8
0
10
80.462964
20
114.723203
70
0
0
VERTEX
8
0
10
77.885271
20
112.128931
70
0
0
VERTEX
8
0
10
75.698914
20
109.169051
70
0
0
VERTEX
8
0
10
73.957223
20
105.889932
70
0
0
VERTEX
8
0
10
72.713528
20
102.337947
70
0
0
VERTEX
8
0
10
72.180778
20
99.683162
70
0
0
VERTEX
8
0
10
72.067557
20
96.190576
70
0
0
VERTEX
8
0
10
72.180778
20
92.697990
70
0
0
VERTEX
8
0
10
72.713528
20
90.043204
70
0
0
VERTEX
8
0
10
73.768898
20
86.915348
70
0
0
VERTEX
8
0
10
75.201544
20
84.000571
70
0
0
VERTEX
8
0
10
76.985038
20
81.325371
70
0
0
VERTEX
8
0
10
79.092952
20
78.916243
70
0
0
VERTEX
8
0
10
81.498862
20
76.799683
70
0
0
VERTEX
8
0
10
84.176338
20
75.002190
70
0
0
VERTEX
8
0
10
87.098954
20
73.550258
70
0
0
VERTEX
8
0
10
90.240284
20
72.470384
70
0
0
VERTEX
8
0
10
92.701346
20
71.997737
70
0
0
VERTEX
8
0
10
96.438106
20
71.895115
70
0
0
VERTEX
8
0
10
100.174865
20
71.997737
70
0
0
VERTEX
8
0
10
102.635929
20
72.470384
70
0
0
VERTEX
8
0
10
105.786547
20
73.551833
70
0
0
VERTEX
8
0
10
108.712925
20
75.002640
70
0
0
VERTEX
8
0
10
111.390170
20
76.797825
70
0
0
VERTEX
8
0
10
113.793394
20
78.912410
70
0
0
VERTEX
8
0
10
115.897704
20
81.321415
70
0
0
VERTEX
8
0
10
117.678212
20
83.999862
70
0
0
VERTEX
8
0
10
119.110026
20
86.922770
70
0
0
VERTEX
8
0
10
120.168257
20
90.065162
70
0
0
VERTEX
8
0
10
120.695894
20
92.702898
70
0
0
VERTEX
8
0
10
120.808659
20
96.190576
70
0
0
VERTEX
8
0
10
120.695894
20
99.678253
70
0
0
VERTEX
8
0
10
120.168257
20
102.315990
70
0
0
VERTEX
8
0
10
118.921570
20
105.883713
70
0
0
VERTEX
8
0
10
117.180980
20
109.171954
70
0
0
VERTEX
8
0
10
114.998098
20
112.135792
70
0
0
VERTEX
8
0
10
112.424536
20
114.730309
70
0
0
VERTEX
8
0
10
109.511905
20
116.910586
70
0
0
VERTEX
8
0
10
106.311816
20
118.631705
70
0
0
VERTEX
8
0
10
102.875881
20
119.848745
70
0
0
VERTEX
8
0
10
99.255712
20
120.516789
70
0
0
VERTEX
8
0
10
97.677670
20
120.678465
70
0
0
VERTEX
8
0
10
97.677670
20
121.791870
70
0
0
VERTEX
8
0
10
97.677670
20
122.905275
70
0
0
VERTEX
8
0
10
99.396086
20
122.735947
70
0
0
VERTEX
8
0
10
101.452108
20
122.414846
70
0
0
VERTEX
8
0
10
103.673482
20
121.860334
70
0
0
VERTEX
8
0
10
105.905430
20
121.117500
70
0
0
VERTEX
8
0
10
107.993171
20
120.231436
70
0
0
VERTEX
8
0
10
109.950724
20
119.181750
70
0
0
VERTEX
8
0
10
110.255040
20
118.827261
70
0
0
VERTEX
8
0
10
110.321226
20
118.421943
70
0
0
VERTEX
8
0
10
110.386597
20
117.859409
70
0
0
VERTEX
8
0
10
110.686008
20
117.336462
70
0
0
VERTEX
8
0
10
112.606742
20
115.660463
70
0
0
VERTEX
8
0
10
114.000992
20
114.449282
70
0
0
VERTEX
8
0
10
115.308867
20
113.102016
70
0
0
VERTEX
8
0
10
117.633970
20
110.047945
70
0
0
VERTEX
8
0
10
119.519001
20
106.595684
70
0
0
VERTEX
8
0
10
120.900911
20
102.842668
70
0
0
VERTEX
8
0
10
121.363484
20
100.473698
70
0
0
VERTEX
8
0
10
121.646654
20
97.537903
70
0
0
VERTEX
8
0
10
121.714272
20
94.636756
70
0
0
VERTEX
8
0
10
121.530192
20
92.371730
70
0
0
VERTEX
8
0
10
121.409365
20
91.143703
70
0
0
VERTEX
8
0
10
121.556889
20
90.797938
70
0
0
VERTEX
8
0
10
121.877839
20
90.437380
70
0
0
VERTEX
8
0
10
122.472476
20
89.842743
70
0
0
VERTEX
8
0
10
121.849959
20
87.988296
70
0
0
VERTEX
8
0
10
120.713938
20
85.118362
70
0
0
VERTEX
8
0
10
119.292348
20
82.461561
70
0
0
VERTEX
8
0
10
117.545807
20
79.953698
70
0
0
VERTEX
8
0
10
115.434938
20
77.530576
70
0
0
VERTEX
8
0
10
113.588237
20
75.757903
70
0
0
VERTEX
8
0
10
113.081776
20
75.568920
70
0
0
VERTEX
8
0
10
112.510320
20
75.620925
70
0
0
VERTEX
8
0
10
111.956640
20
75.667244
70
0
0
VERTEX
8
0
10
111.422309
20
75.559344
70
0
0
VERTEX
8
0
10
109.761720
20
74.651675
70
0
0
VERTEX
8
0
10
106.846996
20
73.081890
70
0
0
VERTEX
8
0
10
103.819088
20
71.941684
70
0
0
VERTEX
8
0
10
100.648516
20
71.222211
70
0
0
VERTEX
8
0
10
97.305801
20
70.914626
70
0
0
VERTEX
8
0
10
93.463151
20
70.935977
70
0
0
VERTEX
8
0
10
93.463151
20
70.935975
70
0
0
SEQEND
8
0
 0 
ENDSEC
 0 
EOF