<?xml version="1.0" encoding="UTF-8" standalone="no"?>
<svg
   viewBox="0 0 199.99377 199.7909"
   width="199.99377"
   height="199.79089"
   version="1.1"
   id="svg7"
   xmlns="http://www.w3.org/2000/svg"
   xmlns:svg="http://www.w3.org/2000/svg">
  <desc
     id="desc1">cannon_plate.dxf - scale = 1.000000, origin = (0.000000, 0.000000), method = manual</desc>
  <defs
     id="defs4" />
  <g
     id="g7"
     transform="translate(-13.01747,-907.57944)">
    <path
       d="m 116.54513,1106.8596 0.0102,-7e-4 0.15912,-0.011 1.60063,-0.112 1.40144,-0.098 3.24549,-0.227 0.008,-6e-4 0.17084,-0.012 1.46494,-0.2059 h 0.0204 l 0.0711,-0.01 4.53618,-0.6376 0.48983,-0.069 0.0869,-0.012 h 0.0318 l 2.39244,-0.5085 0.0291,-0.01 0.0843,-0.018 4.11289,-0.8741 1.38557,-0.3973 0.0756,-0.022 0.0253,-0.01 4.26747,-1.2237 0.1319,-0.038 0.24152,-0.069 0.37719,-0.1082 0.18104,-0.066 0.18407,-0.067 4.19867,-1.5282 0.21279,-0.077 0.71584,-0.2605 0.0291,-0.011 0.83717,-0.3047 0.912,-0.4061 -0.912,0.4061 3.98929,-1.7763 0.14173,-0.063 2.0504,-0.913 5.97467,-3.1766 1.04353,-0.6521 4.69493,-2.934 1.23855,-0.8999 0.1304,-0.095 0.0268,0.039 0.0722,-0.053 0.30198,-0.1885 0.31446,-0.1674 0.32504,-0.1448 0.33487,-0.1217 0.34242,-0.098 0.3481,-0.074 0.35263,-0.05 0.35527,-0.025 h 0.35641 l 0.35528,0.025 0.35263,0.05 0.34847,0.074 0.34205,0.098 0.33486,0.1217 0.32542,0.1448 0.31446,0.1674 0.30198,0.1885 0.288,0.2094 0.27288,0.2291 0.25625,0.2472 0.23811,0.2646 0.15383,0.1969 1.62331,-1.2012 6.66784,-5.8989 h 0.003 l 6.12548,-6.4551 h 0.003 l 5.53966,-6.9642 h 0.002 l 4.9115,-7.4203 h 0.002 l 4.2463,-7.8203 h 0.002 l 3.5486,-8.1603 h 0.002 l 2.82369,-8.439 h 0.001 l 1.30318,-5.4285 -0.13493,-0.029 -0.34242,-0.098 -0.33449,-0.1221 -0.32542,-0.1448 -0.31446,-0.167 -0.30198,-0.189 -0.288,-0.209 -0.27288,-0.229 -0.25625,-0.2476 -0.23849,-0.2646 -0.21921,-0.2804 -0.19919,-0.2956 -0.17801,-0.3084 -0.1561,-0.3201 -0.13341,-0.3299 -0.10999,-0.3387 -0.0862,-0.3458 -0.0389,-0.2204 h -7.6e-4 l -0.34582,-0.067 0.0185,-0.1066 h 3.8e-4 l 0.6599,-3.7418 0.20221,-1.1463 0.70714,-6.7294 0.0299,-0.8565 0.17273,-4.947 0.0336,-0.9592 -0.0299,-0.8576 -0.17273,-4.947 -0.0336,-0.9578 -0.70714,-6.72943 -0.83528,-4.73764 -0.13417,-0.76044 -0.20561,-1.16598 -0.12132,-0.48643 -1.51559,-6.07937 -0.12624,-0.38853 -1.52995,-4.70778 -0.29481,-0.90747 -0.14022,-0.43162 -0.10091,-0.2502 -1.85461,-4.58948 -0.5794,-1.43433 -0.0816,-0.16744 -2.17021,-4.44926 -0.59905,-1.22834 -0.11528,-0.2366 -0.0181,-0.0314 -3.36529,-5.82879 -3.78369,-5.60995 -0.95206,-1.21852 h -3.8e-4 l -3.04743,-3.90085 -0.16479,-0.21052 -0.002,-0.002 -0.94186,-1.04617 -3.312,-3.67862 -0.27364,-0.30387 -0.94601,-0.91351 -3.56107,-3.43862 -0.36057,-0.34847 -5.18362,-4.34948 -0.87836,-0.63798 -3.07163,-2.23144 -0.15533,-0.113 0.0268,-0.0386 -0.21619,-0.15685 -0.27288,-0.22904 -0.25587,-0.24718 -0.23849,-0.26456 -0.21921,-0.28082 -0.19919,-0.29518 -0.17801,-0.30841 -0.1561,-0.32013 -0.13341,-0.33033 -0.10999,-0.33865 -0.0862,-0.34544 -0.062,-0.35074 -0.037,-0.35415 -0.0125,-0.35603 0.0125,-0.35603 0.037,-0.35376 0.062,-0.35112 0.0862,-0.34545 0.10999,-0.33864 0.13341,-0.33034 0.1561,-0.32012 0.17801,-0.30841 0.025,-0.037 -3.20277,-2.04057 -0.003,-0.002 -7.89317,-4.1091 -0.003,-0.002 -8.22123,-3.40573 -0.004,-10e-4 -8.48655,-2.6759 -0.004,-7.6e-4 -8.68762,-1.92642 -0.004,-7.6e-4 -8.82255,-1.16183 -0.004,-3.8e-4 -5.11446,-0.22336 v 10.32529 l 5.80082,0.40554 6.33524,0.89046 6.25739,1.33001 6.14967,1.76391 6.01134,2.18759 5.84428,2.60182 5.64851,3.0036 5.42513,3.38985 5.17568,3.76026 4.90054,4.11212 4.60195,4.44397 4.2807,4.75427 3.93864,5.04113 0.02,0.0299 2.61695,3.88006 0.94034,1.39389 0.0616,0.10659 2.33991,4.05278 0.7971,1.38066 0.0937,0.19238 2.05153,4.20624 0.65915,1.35156 0.11527,0.28497 1.75295,4.33928 0.528,1.30734 1.97707,6.0839 1.54772,6.2075 0.10469,0.59414 0.8126,4.60876 0.19351,1.09719 0.0737,0.70111 0.48907,4.65405 0.10583,1.0073 0.22337,6.3931 -0.22337,6.3934 -0.10583,1.0072 -0.48907,4.6542 -0.0737,0.7011 -0.19351,1.0972 -0.8126,4.6087 -0.10469,0.5942 -1.54772,6.2074 -1.97707,6.084 -0.528,1.3073 -1.75295,4.3393 -0.11527,0.2849 -0.65915,1.3516 -2.05153,4.2062 -0.0937,0.192 -0.7971,1.3811 -2.33991,4.0528 -0.0616,0.1062 -0.94034,1.3942 -2.61695,3.8801 -0.02,0.03 -3.93864,5.0411 -4.2807,4.7543 -4.60195,4.444 -4.90054,4.1121 -5.17568,3.7604 -5.42513,3.3899 -5.64851,3.0036 -5.84428,2.6018 -6.01134,2.1879 -6.14967,1.7636 -6.25739,1.33 -6.33524,0.8905 -6.38173,0.4459 h -6.39723 l -6.38173,-0.4459 -0.51818,-0.073 -4.031618,-0.5667 -1.785449,-0.2509 -6.257385,-1.33 -6.14967,-1.7636 -6.011338,-2.1879 -5.844284,-2.6018 -5.648504,-3.0036 -5.425133,-3.3899 -5.175686,-3.7604 -4.900535,-4.1121 -4.601953,-4.444 -4.280693,-4.7543 -3.938645,-5.0411 -2.622312,-3.8876 -0.934828,-1.386 -0.02018,-0.03 -0.797103,-1.3807 -2.339905,-4.0528 -0.06161,-0.1066 -0.659112,-1.3511 -2.051565,-4.2067 -0.09373,-0.192 -2.39622,-5.9315 -0.405846,-1.2488 -1.446312,-4.4512 -0.124913,-0.384 -0.293858,-1.1788 -1.132196,-4.5407 -0.121663,-0.4879 -1.110803,-6.3001 -0.668598,-6.3625 -0.03175,-0.9094 -0.163427,-4.6771 -0.0282,-0.8069 0.0282,-0.8066 0.163427,-4.6772 0.03175,-0.9093 0.668598,-6.36246 1.110803,-6.30009 0.121663,-0.48794 1.132196,-4.54072 0.293858,-1.17884 0.124913,-0.384 1.446312,-4.45115 0.405846,-1.24875 2.39622,-5.93159 0.09373,-0.192 2.051565,-4.20662 0.659112,-1.35156 0.06161,-0.1062 2.339905,-4.05279 0.797103,-1.38104 0.02018,-0.0299 2.616793,-3.88007 0.940347,-1.39389 3.938645,-5.04113 4.280693,-4.75427 4.601953,-4.44397 4.900535,-4.11212 5.175686,-3.76026 5.425133,-3.38985 5.648504,-3.0036 5.844284,-2.60182 6.011338,-2.18759 6.14967,-1.76391 6.257385,-1.33001 6.335247,-0.89046 5.80082,-0.40554 V 908.1018 l -5.11068,0.22336 h -0.004 l -8.822551,1.16145 -0.0038,7.6e-4 -8.688,1.92567 -8.490331,2.67704 -0.0034,0.001 -8.221607,3.40536 -0.0034,0.002 -7.893165,4.10872 -0.0034,0.002 -3.206173,2.04246 0.02495,0.037 0.178015,0.30841 0.156095,0.32012 0.133417,0.33034 0.109984,0.33864 0.08617,0.34545 0.06198,0.35112 0.03704,0.35376 0.01247,0.35603 -0.01247,0.35603 -0.03704,0.35415 -0.06198,0.35074 -0.08617,0.34544 -0.109984,0.33865 -0.133417,0.33033 -0.156095,0.32013 -0.178015,0.30841 -0.199181,0.29518 -0.219213,0.28082 -0.238488,0.26456 -0.255874,0.24718 -0.272882,0.22904 -0.216189,0.15685 0.02683,0.0386 -0.09827,0.0714 -0.0026,0.002 -3.126047,2.27112 -0.878362,0.63798 -5.183622,4.34948 -2.986583,2.88416 -0.935055,0.90293 -0.946016,0.91351 -0.273638,0.30387 -3.312,3.67862 -0.941858,1.04617 -0.166299,0.21279 -3.04766,3.90085 -0.952214,1.21852 -3.371112,4.99842 -0.3648,0.54085 -0.04777,0.0707 -0.01818,0.0317 -2.603301,4.50898 -0.744415,1.28919 -0.01754,0.0302 -0.68092,1.39616 -2.169902,4.44888 -0.115352,0.2366 -0.562129,1.39124 -1.874759,4.64013 -0.09804,0.24264 -1.961197,6.03553 -0.0061,0.0185 -0.12393,0.38135 -0.309544,1.24158 -1.209411,4.85102 -0.117959,0.4732 -0.202129,1.14595 -0.859578,4.87521 -0.113348,0.6429 -0.707149,6.72947 -0.03349,0.9578 -0.1728,4.947 -0.02993,0.8576 0.236221,6.7627 0.707149,6.7294 0.109871,0.6233 0.444548,2.5201 0.0024,0.014 0.0308,0.175 -0.06115,0.011 0.03099,0.1754 0.03704,0.3541 0.01247,0.3557 -0.01247,0.356 -0.03704,0.3541 -0.06198,0.3508 -0.08617,0.3458 -0.109984,0.3387 -0.133418,0.3299 -0.156094,0.3201 -0.178016,0.3084 -0.199181,0.2956 -0.0053,0.01 -0.213921,0.274 -0.238489,0.2646 -0.256252,0.2476 -0.272882,0.229 -0.288,0.209 -0.301984,0.189 -0.314456,0.167 -0.325418,0.1448 -0.334488,0.1221 -0.342425,0.098 -0.130772,0.028 0.822047,3.7093 h 0.0011 l 2.675906,8.4866 h 0.0011 l 3.405354,8.2212 h 0.0015 l 4.108724,7.8932 h 0.0019 l 4.781102,7.505 h 0.0023 l 5.417197,7.0598 h 0.0023 l 6.011716,6.5609 h 0.0026 l 6.560882,6.0123 h 0.0026 l 3.017197,2.3153 0.137197,-0.1757 0.23811,-0.2646 0.256252,-0.2472 0.272882,-0.2291 0.288,-0.2094 0.301984,-0.1885 0.314457,-0.1674 0.325417,-0.1448 0.334867,-0.1217 0.342047,-0.098 0.348472,-0.074 0.35263,-0.05 0.355276,-0.025 h 0.356409 l 0.355276,0.025 0.35263,0.05 0.348094,0.074 0.342425,0.098 0.334867,0.1217 0.325039,0.1448 0.314457,0.1674 0.301984,0.1885 0.07219,0.053 0.02683,-0.038 0.125103,0.091 h 0.003 l 1.240819,0.9017 1.043528,0.652 4.694929,2.9341 5.974677,3.1766 1.464189,0.6519 h 0.0057 l 0.404787,0.1803 4.306772,1.9176 0.756661,0.2753 h 0.01172 l 0.192755,0.07 0.02495,0.01 4.584189,1.6685 0.01739,0.01 0.379465,0.1381 0.0412,0.015 0.124346,0.045 0.146268,0.053 0.07559,0.027 h 0.0042 l 5.56611,1.5961 h 0.01096 l 0.04271,0.012 0.108473,0.031 h 0.01285 l 0.11074,0.032 0.0015,4e-4 0.304252,0.087 h 0.0053 l 0.34167,0.098 0.139464,0.03 h 0.01172 l 0.0038,8e-4 0.218079,0.046 h 0.01285 l 0.530646,0.1127 0.02495,0.01 0.973984,0.207 4.493481,0.9551 0.154582,0.033 0.05518,0.012 0.105827,0.015 0.04082,0.01 0.308031,0.043 0.09638,0.013 4.72629,0.6644 0.0677,0.01 0.16818,0.024 0.26722,0.038 0.0491,0.01 0.25474,0.036 h 0.031 l 0.58544,0.082 1.91886,0.1342 0.10167,0.01 h 0.0185 l 4.71118,0.3294 h 6.76687 z"
       style="fill:none;stroke:#000000"
       id="path5" />
    <path
       d="m 138.61115,916.53581 -0.001,-3.8e-4 z"
       style="fill:none;stroke:#000000"
       id="path6" />
    <path
       d="m 154.28523,1097.6615 h -3.8e-4 l -4.04863,1.8027 z"
       style="fill:none;stroke:#000000"
       id="path7" />
  </g>
</svg>
